STARTFONT 2.3
FONT -FontForge-Source Code Pro-Bold-R-Normal--20-200-72-72-M-120-ISO10646-1
SIZE 20 72 72  4
FONTBOUNDINGBOX 22 30 -5 -9
COMMENT "Generated by fontforge, http://fontforge.sourceforge.net"
COMMENT "Copyright 2010, 2012 Adobe Systems Incorporated (http://www.adobe.com/), with Reserved Font Name `Source'."
STARTPROPERTIES 41
FOUNDRY "FontForge"
FAMILY_NAME "Source Code Pro"
WEIGHT_NAME "Bold"
SLANT "R"
SETWIDTH_NAME "Normal"
ADD_STYLE_NAME ""
PIXEL_SIZE 20
POINT_SIZE 200
RESOLUTION_X 72
RESOLUTION_Y 72
SPACING "M"
AVERAGE_WIDTH 120
CHARSET_REGISTRY "ISO10646"
CHARSET_ENCODING "1"
FONTNAME_REGISTRY ""
CHARSET_COLLECTIONS "ASCII ISOLatin1Encoding ISO8859-2 ISO8859-5 ISO8859-7 ISO8859-9 ISO8859-4 ISO10646-1"
BITS_PER_PIXEL 4
FONT_NAME "SourceCodePro-Bold"
FACE_NAME "Source Code Pro Bold"
COPYRIGHT "Copyright 2010, 2012 Adobe Systems Incorporated (http://www.adobe.com/), with Reserved Font Name `Source'."
FONT_VERSION "2.030;PS 1.000;hotconv 16.6.51;makeotf.lib2.5.65220"
FONT_ASCENT 15
FONT_DESCENT 5
UNDERLINE_POSITION -2
UNDERLINE_THICKNESS 1
X_HEIGHT 9
CAP_HEIGHT 12
RAW_ASCENT 750
RAW_DESCENT 250
NORM_SPACE 12
RELATIVE_WEIGHT 70
RELATIVE_SETWIDTH 50
SUPERSCRIPT_X 0
SUPERSCRIPT_Y 7
SUPERSCRIPT_SIZE 12
SUBSCRIPT_X 0
SUBSCRIPT_Y 1
SUBSCRIPT_SIZE 12
FIGURE_WIDTH 12
AVG_LOWERCASE_WIDTH 120
AVG_UPPERCASE_WIDTH 120
ENDPROPERTIES
CHARS 1564
STARTCHAR space
ENCODING 32
SWIDTH 600 0
DWIDTH 12 0
BBX 1 1 0 0
BITMAP
00
ENDCHAR
STARTCHAR exclam
ENCODING 33
SWIDTH 600 0
DWIDTH 12 0
BBX 4 13 4 0
BITMAP
7FF7
6FF6
5FF5
4FF4
3FF3
2FF2
1FF1
0FF0
0000
5EE5
EFFE
EFFD
5EE5
ENDCHAR
STARTCHAR quotedbl
ENCODING 34
SWIDTH 600 0
DWIDTH 12 0
BBX 10 8 1 6
BITMAP
5FFF10FFF5
4FFF00FFF5
4FFF00EFF4
3FFD00DFF3
1FFB00BFF1
0DF9009FE0
0BF7007FC0
09F5005F90
ENDCHAR
STARTCHAR numbersign
ENCODING 35
SWIDTH 600 0
DWIDTH 12 0
BBX 10 13 1 0
BITMAP
000FA04F70
002F806F50
004F607F30
3FFFCBDFB7
3FFFFFFFFA
00AF33DD32
00CE00FB00
9FFE9AFD93
9FFFFFFFF4
02FA48F841
04F707F300
06F509F200
08F30BF000
ENDCHAR
STARTCHAR dollar
ENCODING 36
SWIDTH 600 0
DWIDTH 12 0
BBX 10 17 1 -2
BITMAP
0000EF1000
0000EF1000
0000EF1000
007DFFEA20
0AFFFFFFE1
1FFC115C40
2FFD300000
0BFFFC6100
019FFFFE40
00028DFFF2
0100009FF6
1DB5119FF4
7FFFFFFFB0
05AEFFC700
0000EF1000
0000EF1000
0000EF1000
ENDCHAR
STARTCHAR percent
ENCODING 37
SWIDTH 600 0
DWIDTH 12 0
BBX 12 13 0 0
BITMAP
03CEB20004A0
1EFFFD002EF6
5FB1CF41CF80
6F809F6AF700
5FB1CF486000
1EFFFD000000
03CEB22BEC30
000680DFFFE1
007FA4FC1BF5
08FD16F908F7
6FE204FC1BF5
094000DFFFE1
0000002BEC30
ENDCHAR
STARTCHAR ampersand
ENCODING 38
SWIDTH 600 0
DWIDTH 12 0
BBX 12 13 0 0
BITMAP
001AEE910000
00BFFFFA0000
02FF65FF0000
04FF35FF0000
01FFAEFA0000
00AFFFD10785
02DFFD104FF6
1DFFFF809FF1
6FF8AFFCFF90
8FF41BFFFF20
5FFB12EFFFC5
0CFFFFFFEFF7
018DFEB417D2
ENDCHAR
STARTCHAR quotesingle
ENCODING 39
SWIDTH 600 0
DWIDTH 12 0
BBX 4 8 4 6
BITMAP
AFFA
AFFA
9FF9
8FF8
6FF6
4FF4
2FF2
0FF0
ENDCHAR
STARTCHAR parenleft
ENCODING 40
SWIDTH 600 0
DWIDTH 12 0
BBX 7 18 3 -3
BITMAP
00009700
0009FF30
005FF600
01DFA000
07FF2000
0DFA0000
2FF60000
4FF30000
5FF20000
5FF20000
4FF30000
2FF60000
0DFA0000
07FE2000
01EFA000
005FF500
0009FF30
00009700
ENDCHAR
STARTCHAR parenright
ENCODING 41
SWIDTH 600 0
DWIDTH 12 0
BBX 7 18 2 -3
BITMAP
07900000
3FF90000
06FF5000
00AFD100
002FF700
000AFD00
0006FF20
0003FF40
0002FF50
0002FF50
0003FF40
0006FF20
000AFD00
002EF700
00AFE100
05FF5000
3FF90000
07900000
ENDCHAR
STARTCHAR asterisk
ENCODING 42
SWIDTH 600 0
DWIDTH 12 0
BBX 10 10 1 2
BITMAP
0000660000
0000DD0000
0000EE0000
5951FF1595
8FFFFFFFF8
03AFFFFA30
001DFFD100
008FBBF800
03FD11DF30
03C2002C30
ENDCHAR
STARTCHAR plus
ENCODING 43
SWIDTH 600 0
DWIDTH 12 0
BBX 10 10 1 2
BITMAP
0001AA1000
0001FF1000
0001FF1000
0001FF1000
9FFFFFFFF9
9FFFFFFFF9
0001FF1000
0001FF1000
0001FF1000
0001AA1000
ENDCHAR
STARTCHAR comma
ENCODING 44
SWIDTH 600 0
DWIDTH 12 0
BBX 6 9 3 -5
BITMAP
06DE70
1FFFF3
1FFFF7
06EFF8
000DF7
005FF2
19FF80
1FF800
052000
ENDCHAR
STARTCHAR hyphen
ENCODING 45
SWIDTH 600 0
DWIDTH 12 0
BBX 10 2 1 6
BITMAP
9FFFFFFFF9
9FFFFFFFF9
ENDCHAR
STARTCHAR period
ENCODING 46
SWIDTH 600 0
DWIDTH 12 0
BBX 6 5 3 0
BITMAP
06DD50
2FFFF1
4FFFF4
2FFFF2
06EE60
ENDCHAR
STARTCHAR slash
ENCODING 47
SWIDTH 600 0
DWIDTH 12 0
BBX 10 17 1 -3
BITMAP
0000002FF5
0000008FE0
000000DF80
000004FF20
00000AFC00
00001FF600
00007FE100
0000DF9000
0003FF3000
0009FD0000
001EF70000
006FF10000
00CFA00000
02FF400000
08FD000000
0EF8000000
5FF2000000
ENDCHAR
STARTCHAR zero
ENCODING 48
SWIDTH 600 0
DWIDTH 12 0
BBX 10 13 1 0
BITMAP
004BEEB400
06FFFFFF60
1EFB22BFE1
7FF2002FF7
BFD0000DFA
CFC3EE3CFC
DFB7FF7BFD
CFC2DD2CFC
AFE0000EFA
7FF3003FF7
1EFB22BFE1
06FFFFFF50
004BEEB400
ENDCHAR
STARTCHAR one
ENCODING 49
SWIDTH 600 0
DWIDTH 12 0
BBX 10 13 1 0
BITMAP
06AD854000
0CFFFFE000
0566FFE000
0000FFE000
0000FFE000
0000FFE000
0000FFE000
0000FFE000
0000FFE000
0000FFE000
0000FFE554
6FFFFFFFFC
6FFFFFFFFC
ENDCHAR
STARTCHAR two
ENCODING 50
SWIDTH 600 0
DWIDTH 12 0
BBX 10 13 1 0
BITMAP
04AEFE9200
9FFFFFFE20
4E9218FFA0
020000DFE0
000000CFF0
000002FFC0
00000AFF60
00007FFB00
0005FFD100
006FFE2000
07FFE20000
7FFFEEFFFB
DFFFFFFFFB
ENDCHAR
STARTCHAR three
ENCODING 51
SWIDTH 600 0
DWIDTH 12 0
BBX 10 13 1 0
BITMAP
05AEFDB500
8FFFFFFF80
1C9204EFF1
000000CFF2
000028FFB0
002FFFE810
002FFFFC30
000026FFE2
0000007FF8
0100006FF9
6E7204DFF5
DFFFFFFF90
17CEFDB400
ENDCHAR
STARTCHAR four
ENCODING 52
SWIDTH 600 0
DWIDTH 12 0
BBX 12 13 0 0
BITMAP
000005FFF800
00001EFFF800
00009FAFF800
0004FE4FF800
001DF83FF800
008FE13FF800
03FF603FF800
0CFC003FF800
4FFFFFFFFFF2
4FFFFFFFFFF2
0000003FF800
0000003FF800
0000003FF800
ENDCHAR
STARTCHAR five
ENCODING 53
SWIDTH 600 0
DWIDTH 12 0
BBX 10 13 1 0
BITMAP
0BFFFFFFF1
0CFFFFFFF1
0DFC000000
0EFA000000
0EFA000000
0FFFFEC710
0DFFFFFFC1
017204DFF6
0000006FF9
0100006FF8
5E7114DFF3
CFFFFFFF80
06BEFEA300
ENDCHAR
STARTCHAR six
ENCODING 54
SWIDTH 600 0
DWIDTH 12 0
BBX 10 13 1 0
BITMAP
0017DFEC60
01CFFFFFF6
0BFF711780
3FF9000000
8FF3000000
BFF3AEEB30
CFFEFFFFF3
BFFB316FFA
AFF2000DFD
6FF5000DFC
0DFD317FF8
04EFFFFFC0
002AEFD810
ENDCHAR
STARTCHAR seven
ENCODING 55
SWIDTH 600 0
DWIDTH 12 0
BBX 10 13 1 0
BITMAP
CFFFFFFFFC
CFFFFFFFF9
000000BFC1
000006FF30
00001EF900
00007FF200
0000DFB000
0004FF7000
0008FF4000
000BFF1000
000EFF0000
000FFE0000
002FFD0000
ENDCHAR
STARTCHAR eight
ENCODING 56
SWIDTH 600 0
DWIDTH 12 0
BBX 10 13 1 0
BITMAP
006CEEC600
09FFFFFF90
2FFA119FF2
3FF7004FF3
0DFE72AFD0
02CFFFFD20
04DFFFFD40
3FF83AFFF3
AFD0005FF9
BFD0000FFB
8FF8118FF9
1DFFFFFFD2
017DFFD810
ENDCHAR
STARTCHAR nine
ENCODING 57
SWIDTH 600 0
DWIDTH 12 0
BBX 10 13 1 0
BITMAP
018DFE9200
1CFFFFFE30
8FF713EFD0
DFD0006FF5
EFC0002FF9
BFF513CFFB
3FFFFFEFFB
04BEEA2FFA
0000003FF7
0000009FF3
087117FFA0
7FFFFFFC10
06CEFD7100
ENDCHAR
STARTCHAR colon
ENCODING 58
SWIDTH 600 0
DWIDTH 12 0
BBX 6 11 3 0
BITMAP
06DD50
2FFFF1
4FFFF4
2FFFF2
06EE60
000000
06DD50
2FFFF1
4FFFF4
2FFFF2
06EE60
ENDCHAR
STARTCHAR semicolon
ENCODING 59
SWIDTH 600 0
DWIDTH 12 0
BBX 6 16 3 -5
BITMAP
06DD50
2FFFF1
4FFFF4
2FFFF2
06EE60
000000
000000
06DE70
1FFFF3
1FFFF7
06EFF8
000DF7
005FF2
19FF80
1FF800
052000
ENDCHAR
STARTCHAR less
ENCODING 60
SWIDTH 600 0
DWIDTH 12 0
BBX 9 10 2 2
BITMAP
0000003B10
00003AFF10
002AFFD500
29FFE60000
AFF8100000
AFF8100000
29FFE60000
002AFFD500
00003AFF10
0000003B10
ENDCHAR
STARTCHAR equal
ENCODING 61
SWIDTH 600 0
DWIDTH 12 0
BBX 10 6 1 4
BITMAP
9FFFFFFFF9
9FFFFFFFF9
0000000000
0000000000
9FFFFFFFF9
9FFFFFFFF9
ENDCHAR
STARTCHAR greater
ENCODING 62
SWIDTH 600 0
DWIDTH 12 0
BBX 9 10 1 2
BITMAP
1B30000000
1FFA300000
05DFFA2000
0006EFF920
000018FFA0
000018FFA0
0006EFF920
05DFFA2000
1FFA300000
1B30000000
ENDCHAR
STARTCHAR question
ENCODING 63
SWIDTH 600 0
DWIDTH 12 0
BBX 8 13 2 0
BITMAP
07CFEB50
BFFFFFF6
1B504FFD
00001EFD
0000AFF6
000BFF70
006FF700
00AFE000
00000000
008EC200
03FFF900
03FFF900
008EC200
ENDCHAR
STARTCHAR at
ENCODING 64
SWIDTH 600 0
DWIDTH 12 0
BBX 11 16 0 -3
BITMAP
00029DFE9200
004EFFFFFD10
01EFC313BF80
08FC10001ED0
0EF400025EF0
2FE004CFFFF0
4FB05FFDAFF0
5FA0BF902FF0
5FA0BF81AFF0
4FB07FFFFEF0
2FE009ED5AF0
0DF500000000
07FD10000000
00DFD4114700
002DFFFFFF20
00017CFEB400
ENDCHAR
STARTCHAR A
ENCODING 65
SWIDTH 600 0
DWIDTH 12 0
BBX 12 13 0 0
BITMAP
0000EFFE0000
0004FFFF3000
0008FDEF8000
000DF9BFD000
003FF68FF200
007FF24FF700
00CFE01FFC00
02FFA00CFF20
06FFFFFFFF60
0BFFFFFFFFB0
1FFD0000EFF1
5FF90000AFF5
AFF500006FFA
ENDCHAR
STARTCHAR B
ENCODING 66
SWIDTH 600 0
DWIDTH 12 0
BBX 11 13 1 0
BITMAP
8FFFFED93000
8FFFFFFFF300
8FF6019FF800
8FF6004FF900
8FF602BFF300
8FFFFFFC4000
8FFFFFFFB200
8FF6015FFD00
8FF6000BFF20
8FF6000BFF30
8FF6016FFE00
8FFFFFFFF500
8FFFFFD93000
ENDCHAR
STARTCHAR C
ENCODING 67
SWIDTH 600 0
DWIDTH 12 0
BBX 11 13 1 0
BITMAP
0005BEFD9200
01BFFFFFFD00
0BFFA204B200
4FFC00000000
AFF600000000
DFF300000000
EFF200000000
DFF300000000
AFF600000000
5FFD00000000
0CFFB204D600
02CFFFFFFF20
0006CEFD9200
ENDCHAR
STARTCHAR D
ENCODING 68
SWIDTH 600 0
DWIDTH 12 0
BBX 11 13 1 0
BITMAP
9FFFFD930000
9FFFFFFF7000
9FF526EFF400
9FF5005FFC00
9FF5000EFF10
9FF5000CFF30
9FF5000BFF40
9FF5000CFF30
9FF5000EFF10
9FF5006FFB00
9FF526EFF400
9FFFFFFF7000
9FFFFDA30000
ENDCHAR
STARTCHAR E
ENCODING 69
SWIDTH 600 0
DWIDTH 12 0
BBX 10 13 1 0
BITMAP
2FFFFFFFF7
2FFFFFFFF7
2FFC000000
2FFC000000
2FFC000000
2FFC000000
2FFFFFFF90
2FFFFFFF90
2FFC000000
2FFC000000
2FFC000000
2FFFFFFFFA
2FFFFFFFFA
ENDCHAR
STARTCHAR F
ENCODING 70
SWIDTH 600 0
DWIDTH 12 0
BBX 9 13 2 0
BITMAP
EFFFFFFFC0
EFFFFFFFC0
EFF1000000
EFF1000000
EFF1000000
EFF1000000
EFFFFFFE00
EFFFFFFE00
EFF1000000
EFF1000000
EFF1000000
EFF1000000
EFF1000000
ENDCHAR
STARTCHAR G
ENCODING 71
SWIDTH 600 0
DWIDTH 12 0
BBX 11 13 0 0
BITMAP
00018CEEC600
003DFFFFFF60
01DFF8118800
08FF90000000
0DFF30000000
1FFF10000000
2FFE009FFFE0
1FFF009FFFE0
0DFF3000BFE0
09FF9000BFE0
02EFF611CFE0
004EFFFFFFC0
00028DFEC600
ENDCHAR
STARTCHAR H
ENCODING 72
SWIDTH 600 0
DWIDTH 12 0
BBX 10 13 1 0
BITMAP
BFF3003FFB
BFF3003FFB
BFF3003FFB
BFF3003FFB
BFF3003FFB
BFF3003FFB
BFFFFFFFFB
BFFFFFFFFB
BFF3003FFB
BFF3003FFB
BFF3003FFB
BFF3003FFB
BFF3003FFB
ENDCHAR
STARTCHAR I
ENCODING 73
SWIDTH 600 0
DWIDTH 12 0
BBX 10 13 1 0
BITMAP
8FFFFFFFF8
8FFFFFFFF8
0007FF7000
0007FF7000
0007FF7000
0007FF7000
0007FF7000
0007FF7000
0007FF7000
0007FF7000
0007FF7000
8FFFFFFFF8
8FFFFFFFF8
ENDCHAR
STARTCHAR J
ENCODING 74
SWIDTH 600 0
DWIDTH 12 0
BBX 10 13 1 0
BITMAP
0BFFFFFFF5
0BFFFFFFF5
0000009FF5
0000009FF5
0000009FF5
0000009FF5
0000009FF5
0000009FF5
000000AFF4
021000BFF2
2DC315FFE0
7FFFFFFF50
04AEFEA300
ENDCHAR
STARTCHAR K
ENCODING 75
SWIDTH 600 0
DWIDTH 12 0
BBX 11 13 1 0
BITMAP
AFF5002EFE30
AFF500CFF600
AFF508FF9000
AFF54FFC1000
AFF6EFE20000
AFFEFFC00000
AFFFFFF50000
AFFFDFFD0000
AFFE2AFF6000
AFF602FFE100
AFF500AFF800
AFF5002FFE10
AFF50009FF90
ENDCHAR
STARTCHAR L
ENCODING 76
SWIDTH 600 0
DWIDTH 12 0
BBX 9 13 2 0
BITMAP
DFF1000000
DFF1000000
DFF1000000
DFF1000000
DFF1000000
DFF1000000
DFF1000000
DFF1000000
DFF1000000
DFF1000000
DFF1000000
DFFFFFFFD0
DFFFFFFFD0
ENDCHAR
STARTCHAR M
ENCODING 77
SWIDTH 600 0
DWIDTH 12 0
BBX 10 13 1 0
BITMAP
DFF6006FFD
DFFA00AFFD
DFFE00EFFD
DFDF33FDFD
DFAF77F9FD
DF7FBBE7FD
DF7BEEA8FD
DF86FF59FD
DF92FF1AFD
DF90760AFD
DF90000AFD
DF90000AFD
DF90000AFD
ENDCHAR
STARTCHAR N
ENCODING 78
SWIDTH 600 0
DWIDTH 12 0
BBX 10 13 1 0
BITMAP
AFF8002FFA
AFFE102FFA
AFFF602FFA
AFEFC02FFA
AFCDF42FFA
AFE7FA1FFA
AFF2FF2FFA
AFF1AF7EFA
AFF24FDCFA
AFF20CFEFA
AFF206FFFA
AFF201EFFA
AFF2008FFA
ENDCHAR
STARTCHAR O
ENCODING 79
SWIDTH 600 0
DWIDTH 12 0
BBX 12 13 0 0
BITMAP
0005CEEC5000
009FFFFFF900
05FFC22CFF50
0CFF3004FFC0
1FFE0000EFF1
3FFC0000CFF3
3FFC0000CFF3
3FFC0000CFF3
1FFE0000EFF1
0BFF4004FFB0
05FFC22CFF50
009FFFFFF900
0005CEEC5000
ENDCHAR
STARTCHAR P
ENCODING 80
SWIDTH 600 0
DWIDTH 12 0
BBX 11 13 1 0
BITMAP
8FFFFEDA3000
8FFFFFFFF400
8FF7017FFD00
8FF7000CFF20
8FF7000AFF30
8FF7000DFF10
8FF7018FFB00
8FFFFFFFE200
8FFFFFD81000
8FF700000000
8FF700000000
8FF700000000
8FF700000000
ENDCHAR
STARTCHAR Q
ENCODING 81
SWIDTH 600 0
DWIDTH 12 0
BBX 12 16 0 -3
BITMAP
0005CEEC5000
009FFFFFF800
04FFC22CFF40
0BFF3003FFB0
1FFE0000EFF0
2FFC0000CFF2
3FFC0000CFF3
3FFC0000DFF2
1FFE0000EFF1
0CFF3004FFC0
06FFC22CFF60
00BFFFFFFA00
0008EFFE7000
00001EFF6211
000004EFFFF5
00000029DEE7
ENDCHAR
STARTCHAR R
ENCODING 82
SWIDTH 600 0
DWIDTH 12 0
BBX 11 13 1 0
BITMAP
9FFFFEDA3000
9FFFFFFFF400
9FF5017FFC00
9FF5000EFF00
9FF5000EFF00
9FF5019FFB00
9FFFFFFFE300
9FFFFFFE2000
9FF50DFF4000
9FF506FFC000
9FF500DFF500
9FF5006FFD00
9FF5000DFF60
ENDCHAR
STARTCHAR S
ENCODING 83
SWIDTH 600 0
DWIDTH 12 0
BBX 10 13 1 0
BITMAP
004BEFDA40
08FFFFFFF5
3FFC203A90
7FF9000000
5FFF710000
1DFFFE9200
02CFFFFF90
0004AFFFF9
000002BFFE
0200001FFF
2ED5116FFA
AFFFFFFFD2
05ADFFD810
ENDCHAR
STARTCHAR T
ENCODING 84
SWIDTH 600 0
DWIDTH 12 0
BBX 12 13 0 0
BITMAP
6FFFFFFFFFF6
6FFFFFFFFFF6
00007FF70000
00007FF70000
00007FF70000
00007FF70000
00007FF70000
00007FF70000
00007FF70000
00007FF70000
00007FF70000
00007FF70000
00007FF70000
ENDCHAR
STARTCHAR U
ENCODING 85
SWIDTH 600 0
DWIDTH 12 0
BBX 10 13 1 0
BITMAP
BFF3002FFB
BFF3002FFB
BFF3002FFB
BFF3002FFB
BFF3002FFB
BFF3002FFB
BFF3002FFB
BFF3002FFB
AFF3002FFA
8FF5004FF8
4FFC21BFF4
0AFFFFFFA0
007CEFC700
ENDCHAR
STARTCHAR V
ENCODING 86
SWIDTH 600 0
DWIDTH 12 0
BBX 12 13 0 0
BITMAP
8FF800006FF8
4FFC0000AFF4
0EFF1000EFE0
0AFF5003FFA0
05FF9007FF50
01FFD00BFF10
00BFF20EFB00
007FF64FF700
002FFA8FF200
000CFDCFD000
0008FFFF8000
0003FFFF3000
0000EFFE0000
ENDCHAR
STARTCHAR W
ENCODING 87
SWIDTH 600 0
DWIDTH 12 0
BBX 12 13 0 0
BITMAP
DFF300000FFD
BFF300000FFB
9FF400001FF9
7FF509B22FF7
5FF61FF53FF5
3FF75FF93FF4
1FF89FEC4FF2
0EF8CDDF5FF0
0CF9FBAF9FD0
0AFCF87FCFB0
08FFF55FFF90
06FFF22FFF70
04FFE00EFF60
ENDCHAR
STARTCHAR X
ENCODING 88
SWIDTH 600 0
DWIDTH 12 0
BBX 12 13 0 0
BITMAP
2FFF2001EFF2
09FFA007FF90
01EFF20EFE10
007FF96FF700
000DFFDFD100
0005FFFF6000
0001EFFE0000
0008FFFF7000
002EFBEFE100
00AFF47FF900
03FFC01EFF30
0CFF4007FFB0
5FFB0000DFF5
ENDCHAR
STARTCHAR Y
ENCODING 89
SWIDTH 600 0
DWIDTH 12 0
BBX 12 13 0 0
BITMAP
7FFA00009FF7
1EFF2001EFE1
07FF8007FF70
01EFE00DFE10
007FF54FF700
001EFBAFE100
0008FFFF8000
0001EFFE1000
00009FF90000
00007FF70000
00007FF70000
00007FF70000
00007FF70000
ENDCHAR
STARTCHAR Z
ENCODING 90
SWIDTH 600 0
DWIDTH 12 0
BBX 10 13 1 0
BITMAP
4FFFFFFFFD
4FFFFFFFFB
000002EFF2
00000BFF70
00005FFC00
0001EFF300
0009FF9000
004FFE1000
00DFF50000
07FFB00000
2FFE200000
BFFFFFFFFE
DFFFFFFFFE
ENDCHAR
STARTCHAR bracketleft
ENCODING 91
SWIDTH 600 0
DWIDTH 12 0
BBX 6 17 4 -3
BITMAP
FFFFFE
FFFFFE
FF4000
FF4000
FF4000
FF4000
FF4000
FF4000
FF4000
FF4000
FF4000
FF4000
FF4000
FF4000
FF4000
FFFFFE
FFFFFE
ENDCHAR
STARTCHAR backslash
ENCODING 92
SWIDTH 600 0
DWIDTH 12 0
BBX 10 17 1 -3
BITMAP
5FF2000000
0EF8000000
08FD000000
02FF400000
00CFA00000
006FF10000
001EF70000
0009FD0000
0003FF3000
0000DF9000
00007FE100
00001FF600
00000AFC00
000004FF20
000000DF80
0000008FE0
0000002FF5
ENDCHAR
STARTCHAR bracketright
ENCODING 93
SWIDTH 600 0
DWIDTH 12 0
BBX 6 17 2 -3
BITMAP
EFFFFF
EFFFFF
0004FF
0004FF
0004FF
0004FF
0004FF
0004FF
0004FF
0004FF
0004FF
0004FF
0004FF
0004FF
0004FF
EFFFFF
EFFFFF
ENDCHAR
STARTCHAR asciicircum
ENCODING 94
SWIDTH 600 0
DWIDTH 12 0
BBX 10 8 1 5
BITMAP
0006FF6000
000CFFC000
002FFFF200
008FAAF800
00EF55FE00
05FF11FF50
0BFA00AFB0
2FF5005FF2
ENDCHAR
STARTCHAR underscore
ENCODING 95
SWIDTH 600 0
DWIDTH 12 0
BBX 10 2 1 -3
BITMAP
CFFFFFFFFC
CFFFFFFFFC
ENDCHAR
STARTCHAR grave
ENCODING 96
SWIDTH 600 0
DWIDTH 12 0
BBX 6 5 2 11
BITMAP
02B100
2EFB00
1BFFA0
009FF5
000790
ENDCHAR
STARTCHAR a
ENCODING 97
SWIDTH 600 0
DWIDTH 12 0
BBX 10 10 1 0
BITMAP
039CEFD810
3FFFFFFFC0
088313DFF6
0000005FF9
0059CDFFFA
2DFFFFFFFB
AFFA414FFB
BFF403AFFB
6FFFFFEFFB
07DFD81CFB
ENDCHAR
STARTCHAR b
ENCODING 98
SWIDTH 600 0
DWIDTH 12 0
BBX 11 14 1 0
BITMAP
8FF600000000
8FF600000000
8FF600000000
8FF600000000
8FF69EEB3000
8FFFFFFFE200
8FFD31AFFA00
8FF6002FFE00
8FF6000FFF10
8FF6000FFF00
8FF6003FFD00
8FFD32BFF700
8FFEFFFFC000
8FD2BEE81000
ENDCHAR
STARTCHAR c
ENCODING 99
SWIDTH 600 0
DWIDTH 12 0
BBX 10 10 1 0
BITMAP
0017CEFD82
03EFFFFFF7
1DFF921580
6FFB000000
9FF7000000
9FF7000000
6FFB000000
1EFF8214B2
04EFFFFFFA
0029DFEC81
ENDCHAR
STARTCHAR d
ENCODING 100
SWIDTH 600 0
DWIDTH 12 0
BBX 10 14 1 0
BITMAP
0000006FF8
0000006FF8
0000006FF8
0000005FF8
019EFB7FF8
1CFFFFFFF8
8FFC22CFF8
DFF3006FF8
FFF0006FF8
FFF0006FF8
EFF2006FF8
9FFA13DFF8
1EFFFFEFF8
02AEEA2EF8
ENDCHAR
STARTCHAR e
ENCODING 101
SWIDTH 600 0
DWIDTH 12 0
BBX 10 10 1 0
BITMAP
004AEFD810
07FFFFFFC1
4FFD316FF7
AFF4000CFC
DFFFFFFFFE
DFFFFFFFFD
AFF4000000
4FFD411470
07FFFFFFF4
004AEFEB61
ENDCHAR
STARTCHAR f
ENCODING 102
SWIDTH 600 0
DWIDTH 12 0
BBX 11 14 1 0
BITMAP
000029DFEC60
0001EFFFFF60
0008FFA11310
000AFF400000
5EFFFFFFF900
5FFFFFFFF900
000BFF300000
000BFF300000
000BFF300000
000BFF300000
000BFF300000
000BFF300000
000BFF300000
000BFF300000
ENDCHAR
STARTCHAR g
ENCODING 103
SWIDTH 600 0
DWIDTH 12 0
BBX 11 14 1 -4
BITMAP
017CEFFFFF50
0BFFFFFFFF50
6FF914FF9000
8FF400DFB000
5FFB36FF9000
0BFFFFFD1000
0AFBCB810000
5FF200000000
4FFFFFFEB500
0BFEFFFFFF30
8F900018FF60
EFC3013CFF30
AFFFFFFFF700
07CEFEC93000
ENDCHAR
STARTCHAR h
ENCODING 104
SWIDTH 600 0
DWIDTH 12 0
BBX 10 14 1 0
BITMAP
8FF6000000
8FF6000000
8FF6000000
8FF5000000
8FF46DFD60
8FFDFFFFF3
8FFE518FF9
8FF7003FFB
8FF6002FFC
8FF6002FFC
8FF6002FFC
8FF6002FFC
8FF6002FFC
8FF6002FFC
ENDCHAR
STARTCHAR i
ENCODING 105
SWIDTH 600 0
DWIDTH 12 0
BBX 8 15 1 0
BITMAP
00005ED3
0000EFFB
0000EFFC
00006ED4
00000000
6FFFFFF8
6FFFFFF8
00007FF8
00007FF8
00007FF8
00007FF8
00007FF8
00007FF8
00007FF8
00007FF8
ENDCHAR
STARTCHAR j
ENCODING 106
SWIDTH 600 0
DWIDTH 12 0
BBX 8 19 1 -4
BITMAP
00005ED3
0000EFFB
0000EFFC
00006ED4
00000000
6FFFFFF8
6FFFFFF8
00007FF8
00007FF8
00007FF8
00007FF8
00007FF8
00007FF8
00007FF8
00007FF7
00008FF5
3302DFF2
BFFFFF90
9DEEC600
ENDCHAR
STARTCHAR k
ENCODING 107
SWIDTH 600 0
DWIDTH 12 0
BBX 11 14 1 0
BITMAP
7FF700000000
7FF700000000
7FF700000000
7FF700000000
7FF7004FFD10
7FF703EFE200
7FF72EFE3000
7FF8DFE40000
7FFFFFD10000
7FFFFFF90000
7FFF6BFF4000
7FF902EFD100
7FF7007FFA00
7FF7000CFF50
ENDCHAR
STARTCHAR l
ENCODING 108
SWIDTH 600 0
DWIDTH 12 0
BBX 10 14 1 0
BITMAP
FFFFFF1000
FFFFFF1000
000DFF1000
000DFF1000
000DFF1000
000DFF1000
000DFF1000
000DFF1000
000DFF1000
000DFF1000
000CFF1000
0009FF8021
0002FFFFF8
00004CFFD8
ENDCHAR
STARTCHAR m
ENCODING 109
SWIDTH 600 0
DWIDTH 12 0
BBX 12 10 0 0
BITMAP
4FF2CE73DE80
4FFDFFFDFFF3
4FFD3FFA6FF6
4FF81FF45FF7
4FF81FF45FF7
4FF81FF45FF7
4FF81FF45FF7
4FF81FF45FF7
4FF81FF45FF7
4FF81FF45FF7
ENDCHAR
STARTCHAR n
ENCODING 110
SWIDTH 600 0
DWIDTH 12 0
BBX 10 10 1 0
BITMAP
8FE07DFD60
8FFBFFFFF3
8FFF518FF9
8FF7003FFB
8FF6002FFC
8FF6002FFC
8FF6002FFC
8FF6002FFC
8FF6002FFC
8FF6002FFC
ENDCHAR
STARTCHAR o
ENCODING 111
SWIDTH 600 0
DWIDTH 12 0
BBX 10 10 1 0
BITMAP
005BEEB500
0AFFFFFFA0
6FFB22BFF6
DFF3003FFD
FFF0000FFF
FFF0000FFF
DFF3003FFD
6FFB22BFF6
0AFFFFFFA0
006CEEC600
ENDCHAR
STARTCHAR p
ENCODING 112
SWIDTH 600 0
DWIDTH 12 0
BBX 11 14 1 -4
BITMAP
8FE19EEB3000
8FFEFFFFE200
8FFD31AFF900
8FF6002FFE00
8FF6000FFF10
8FF6000FFF00
8FF6003FFD00
8FFC32BFF700
8FFFFFFFC000
8FF7BFE81000
8FF500000000
8FF600000000
8FF600000000
8FF600000000
ENDCHAR
STARTCHAR q
ENCODING 113
SWIDTH 600 0
DWIDTH 12 0
BBX 10 14 1 -4
BITMAP
019EFB3DF8
1CFFFFEFF8
8FFC22DFF8
DFF3006FF8
FFF0006FF8
FFF0006FF8
EFF2006FF8
9FFA13CFF8
1EFFFFFFF8
02AEEA6FF8
0000005FF8
0000006FF8
0000006FF8
0000006FF8
ENDCHAR
STARTCHAR r
ENCODING 114
SWIDTH 600 0
DWIDTH 12 0
BBX 9 10 2 0
BITMAP
AFC04BEFB0
AFD6FFFF90
AFFFB30110
AFFB000000
AFF4000000
AFF4000000
AFF4000000
AFF4000000
AFF4000000
AFF4000000
ENDCHAR
STARTCHAR s
ENCODING 115
SWIDTH 600 0
DWIDTH 12 0
BBX 10 10 1 0
BITMAP
016CEFDA40
0BFFFFFFF4
4FFB114980
3FFE740000
0AFFFFEA40
005BEFFFF5
0100039FFB
3E94105FFA
AFFFFFFFE3
04ADFFD920
ENDCHAR
STARTCHAR t
ENCODING 116
SWIDTH 600 0
DWIDTH 12 0
BBX 10 13 1 0
BITMAP
001FF60000
003FF60000
005FF60000
EEFFFFFFF9
FFFFFFFFF9
008FF60000
008FF60000
008FF60000
008FF60000
006FF80000
003FFD3022
000BFFFFFB
00018DFED9
ENDCHAR
STARTCHAR u
ENCODING 117
SWIDTH 600 0
DWIDTH 12 0
BBX 10 10 1 0
BITMAP
CFF3007FF8
CFF3007FF8
CFF3007FF8
CFF3007FF8
CFF3007FF8
CFF3007FF8
BFF3008FF8
9FF915FFF8
3FFFFFBFF8
06DFD70FF8
ENDCHAR
STARTCHAR v
ENCODING 118
SWIDTH 600 0
DWIDTH 12 0
BBX 12 10 0 0
BITMAP
3FFB00009FF3
0CFF1000EFC0
07FF6004FF70
01FFB009FF20
00AFF10EFB00
005FF64FF600
000EFA8FE100
0009FECFA000
0003FFFF4000
0000CFFE0000
ENDCHAR
STARTCHAR w
ENCODING 119
SWIDTH 600 0
DWIDTH 12 0
BBX 12 10 0 0
BITMAP
DFF000000DFD
AFF21AA20FFA
8FF43FF62FF8
5FF66FF83FF6
3FF89DDB5FF4
1FFACCBE7FF1
0DFBEA9FAFE0
0BFEF87FEFC0
08FFF55FFF90
06FFF32FFF70
ENDCHAR
STARTCHAR x
ENCODING 120
SWIDTH 600 0
DWIDTH 12 0
BBX 12 10 0 0
BITMAP
0BFF7005FFB0
02EFE20DFE20
005FFA5FF700
000AFFEFC000
0001EFFF3000
0004FFFE2000
001DFDFFB000
009FF49FF700
04FFA01DFF30
1DFF2004FFD1
ENDCHAR
STARTCHAR y
ENCODING 121
SWIDTH 600 0
DWIDTH 12 0
BBX 12 14 0 -4
BITMAP
2FFB00008FF3
0AFF2000DFD0
03FF8003FF70
00CFD008FF10
005FF40DFA00
000DF93FF400
0006FE7FE000
0000EFEF8000
00007FFF2000
00002FFB0000
00007FF50000
0013EFD00000
05FFFF300000
07FEB3000000
ENDCHAR
STARTCHAR z
ENCODING 122
SWIDTH 600 0
DWIDTH 12 0
BBX 10 10 1 0
BITMAP
0FFFFFFFFA
0FFFFFFFF7
00000CFFA0
00009FFD10
0005FFF300
002EFF6000
01DFF90000
0AFFC00000
6FFFFFFFFC
9FFFFFFFFC
ENDCHAR
STARTCHAR braceleft
ENCODING 123
SWIDTH 600 0
DWIDTH 12 0
BBX 8 17 2 -3
BITMAP
0005CEFE
002FFFFE
005FF510
005FF100
003FF200
002FF200
02AFF100
DFFE7000
DFFD5000
03BFF100
003FF200
003FF200
004FF100
005FF100
005FF610
001FFFFE
0004CEFE
ENDCHAR
STARTCHAR bar
ENCODING 124
SWIDTH 600 0
DWIDTH 12 0
BBX 4 20 4 -5
BITMAP
4FF4
4FF4
4FF4
4FF4
4FF4
4FF4
4FF4
4FF4
4FF4
4FF4
4FF4
4FF4
4FF4
4FF4
4FF4
4FF4
4FF4
4FF4
4FF4
4FF4
ENDCHAR
STARTCHAR braceright
ENCODING 125
SWIDTH 600 0
DWIDTH 12 0
BBX 8 17 2 -3
BITMAP
EFEC5000
EFFFF200
016FF500
001FF500
002FF300
002FF200
001FFA20
0007DFFE
0005DFFE
001FFB30
002FF300
002FF300
001FF400
001FF500
016FF500
EFFFF200
EFEC4000
ENDCHAR
STARTCHAR asciitilde
ENCODING 126
SWIDTH 600 0
DWIDTH 12 0
BBX 10 3 1 5
BITMAP
06DEC615E8
5FFFFFFFF5
8E516CED50
ENDCHAR
STARTCHAR uni00A0
ENCODING 160
SWIDTH 600 0
DWIDTH 12 0
BBX 1 1 0 0
BITMAP
00
ENDCHAR
STARTCHAR exclamdown
ENCODING 161
SWIDTH 600 0
DWIDTH 12 0
BBX 4 14 4 -4
BITMAP
5EE5
EFFD
EFFE
5EE5
0000
0FF0
1FF1
2FF2
3FF3
4FF4
5FF5
6FF6
6FF6
7FF7
ENDCHAR
STARTCHAR cent
ENCODING 162
SWIDTH 600 0
DWIDTH 12 0
BBX 10 14 1 -1
BITMAP
00000CD000
00000CD000
0006BFFD81
00AFFFFFC1
06FFACD420
0DFF1CD000
1FFC0CD000
1FFC0CD000
0DFF1CD000
07FF9CD450
00BFFFFFE2
0007DFFD71
00000CD000
00000CD000
ENDCHAR
STARTCHAR sterling
ENCODING 163
SWIDTH 600 0
DWIDTH 12 0
BBX 10 13 1 0
BITMAP
0003AEFD91
005FFFFFFA
00EFE41491
03FF900000
04FF800000
01FFA00000
8EFFFFFF20
9FFFFFFF20
005FF30000
007FF10000
02EF800000
5EFFFFFFFF
AFFFFFFFFF
ENDCHAR
STARTCHAR currency
ENCODING 164
SWIDTH 600 0
DWIDTH 12 0
BBX 12 12 0 1
BITMAP
001000000100
09D200002D90
1DFDBEEBDFD1
02EFFFFFFD20
01EFC22CFE10
04FF5005FF40
04FF5005FF40
01EFC22CFE10
01DFFFFFFD10
1DFDBEEBDFD1
09D200002D90
001000000100
ENDCHAR
STARTCHAR yen
ENCODING 165
SWIDTH 600 0
DWIDTH 12 0
BBX 12 13 0 0
BITMAP
2FFD0000CFF2
09FF4003FF90
01EFB00AFE10
008FF21FF800
001EF87FE100
0007FEDF7000
0BDDFFFFDDB0
0DFFFFFFFFD0
02228FF82220
0BDDEFFEDDB0
0DFFFFFFFFD0
02228FF82220
00007FF70000
ENDCHAR
STARTCHAR brokenbar
ENCODING 166
SWIDTH 600 0
DWIDTH 12 0
BBX 4 20 4 -5
BITMAP
4FF4
4FF4
4FF4
4FF4
4FF4
4FF4
4FF4
4FF4
4CC4
0000
0000
4CC4
4FF4
4FF4
4FF4
4FF4
4FF4
4FF4
4FF4
4FF4
ENDCHAR
STARTCHAR section
ENCODING 167
SWIDTH 600 0
DWIDTH 12 0
BBX 10 16 1 -2
BITMAP
003BEEC710
01EFFFFF60
06FF416900
07FF910000
03FFFE7100
09FFFFFD30
5FF57EFFE2
8FE0019FF7
7FFA100EF8
1EFFE85FF4
03DFFFFF80
0007DFFF20
000019FF50
05C307FF30
2FFFFFFB00
03ADFD9100
ENDCHAR
STARTCHAR dieresis
ENCODING 168
SWIDTH 600 0
DWIDTH 12 0
BBX 8 3 2 12
BITMAP
5EC11CE5
CFF55FFB
6EC11CE5
ENDCHAR
STARTCHAR copyright
ENCODING 169
SWIDTH 600 0
DWIDTH 12 0
BBX 12 13 0 0
BITMAP
0006CEEC5000
00AFFFFFFA00
08FB4114BF80
1EA015620AE1
6F24EFFE31F6
8B1EFC9B10B8
9A3FF00000A9
8B1FFB8A00C8
5F26FFFF31F5
1EA026730AE1
07FB4114BF70
00AFFFFFFA00
0005BEEB5000
ENDCHAR
STARTCHAR ordfeminine
ENCODING 170
SWIDTH 600 0
DWIDTH 12 0
BBX 7 7 3 7
BITMAP
29EEB300
AFFFFD00
2513FF20
18CEFF30
DFFFFF30
FFFFFF30
6EE88F30
ENDCHAR
STARTCHAR guillemotleft
ENCODING 171
SWIDTH 600 0
DWIDTH 12 0
BBX 11 9 0 1
BITMAP
0005B1002C30
006FF303EF80
08FF704EFB00
2FFB00DFE200
2FF300DF7000
2FFB00DFE200
08FF704EFB00
006FF303EF80
0005B1002C30
ENDCHAR
STARTCHAR logicalnot
ENCODING 172
SWIDTH 600 0
DWIDTH 12 0
BBX 10 6 1 2
BITMAP
9FFFFFFFF9
9FFFFFFFF9
00000008F9
00000008F9
00000008F9
00000006A6
ENDCHAR
STARTCHAR uni00AD
ENCODING 173
SWIDTH 600 0
DWIDTH 12 0
BBX 10 2 1 6
BITMAP
9FFFFFFFF9
9FFFFFFFF9
ENDCHAR
STARTCHAR registered
ENCODING 174
SWIDTH 600 0
DWIDTH 12 0
BBX 8 9 2 5
BITMAP
02AEE910
1DFFFFD0
8E6016E7
D597776C
F2AFF63E
D587886C
8E5116E7
1DFFFFD1
01AEE910
ENDCHAR
STARTCHAR macron
ENCODING 175
SWIDTH 600 0
DWIDTH 12 0
BBX 6 2 3 12
BITMAP
EFFFFE
EFFFFE
ENDCHAR
STARTCHAR degree
ENCODING 176
SWIDTH 600 0
DWIDTH 12 0
BBX 6 6 3 8
BITMAP
08EE80
7FFFF7
CD21DC
CD21DC
7FFFF7
08EE80
ENDCHAR
STARTCHAR plusminus
ENCODING 177
SWIDTH 600 0
DWIDTH 12 0
BBX 10 11 1 0
BITMAP
0001FF1000
0001FF1000
0001FF1000
9FFFFFFFF9
9FFFFFFFF9
0001FF1000
0001FF1000
0001FF1000
0000000000
9FFFFFFFF9
9FFFFFFFF9
ENDCHAR
STARTCHAR two.sups
ENCODING 178
SWIDTH 600 0
DWIDTH 12 0
BBX 8 8 2 7
BITMAP
03BEE910
2EFFFF90
0A518FC0
00005F90
0003ED10
007FC200
0BFFFFF2
0EFFFFF2
ENDCHAR
STARTCHAR three.sups
ENCODING 179
SWIDTH 600 0
DWIDTH 12 0
BBX 8 8 2 7
BITMAP
02AEEA10
0DFFFFA0
03717FC0
000FFE30
000FFF90
19614FF2
2EFFFFD1
03BEEA20
ENDCHAR
STARTCHAR acute
ENCODING 180
SWIDTH 600 0
DWIDTH 12 0
BBX 6 5 4 11
BITMAP
001B20
00BFD2
0AFFB1
5FF900
097000
ENDCHAR
STARTCHAR uni00B5
ENCODING 181
SWIDTH 600 0
DWIDTH 12 0
BBX 11 14 1 -4
BITMAP
BFF3007FF700
BFF3007FF600
BFF3007FF600
BFF3007FF500
BFF3007FF500
BFF3007FF500
BFF400AFF400
BFF915FFF500
BFFFFFAFFF60
BFFCEA16FF90
BFF100000100
BFF100000000
BFF200000000
BFF300000000
ENDCHAR
STARTCHAR paragraph
ENCODING 182
SWIDTH 600 0
DWIDTH 12 0
BBX 10 15 1 -2
BITMAP
029DF86FF8
2EFFF86FF8
AFFFF86FF8
EFFFF86FF8
FFFFF86FF8
EFFFF86FF8
9FFFF86FF8
2DFFF86FF8
02AEF86FF8
0000116FF8
0000006FF8
0000006FF8
0000006FF8
0000006FF8
0000006FF8
ENDCHAR
STARTCHAR periodcentered
ENCODING 183
SWIDTH 600 0
DWIDTH 12 0
BBX 6 5 3 5
BITMAP
06DD50
2FFFF1
4FFFF4
2FFFF2
06EE60
ENDCHAR
STARTCHAR cedilla
ENCODING 184
SWIDTH 600 0
DWIDTH 12 0
BBX 5 5 3 -5
BITMAP
01EA00
07FE50
018FD0
018FA0
2EC810
ENDCHAR
STARTCHAR one.sups
ENCODING 185
SWIDTH 600 0
DWIDTH 12 0
BBX 7 8 3 7
BITMAP
25AFE000
7FFFE000
004FE000
004FE000
004FE000
004FE000
AFFFFFF0
AFFFFFF0
ENDCHAR
STARTCHAR ordmasculine
ENCODING 186
SWIDTH 600 0
DWIDTH 12 0
BBX 8 7 2 7
BITMAP
019EE910
0BFFFFA0
3FE22EF3
5FC00CF5
3FE22EF3
0BFFFFB0
019EE910
ENDCHAR
STARTCHAR guillemotright
ENCODING 187
SWIDTH 600 0
DWIDTH 12 0
BBX 11 9 1 1
BITMAP
3C2001B50000
7FE303FF6000
0BFE407FF800
01EFD00BFF20
007FD002FF20
01EFD00BFF20
0BFE407FF800
7FE303FF6000
3C2001B50000
ENDCHAR
STARTCHAR onequarter
ENCODING 188
SWIDTH 600 0
DWIDTH 12 0
BBX 12 13 0 0
BITMAP
0000000004A0
05AFD0002EF6
0EFFD001CF80
004FD00AF700
004FD0086000
004FD0000000
004FD0000000
00068009B100
007FA03F9BA0
08FC10CE1FD0
6FE203FFFFFD
0A4004FFFFFD
000000000FD0
ENDCHAR
STARTCHAR onehalf
ENCODING 189
SWIDTH 600 0
DWIDTH 12 0
BBX 12 13 0 0
BITMAP
0000000004A0
05AFD0002EF6
0EFFD001CF80
004FD00AF700
004FD0086000
004FD0000000
004FD01BED50
000680BFFFF2
007FA0261EF3
08FC10003FD0
6FE20004EE20
0A40007FFFF7
000000BFFFF7
ENDCHAR
STARTCHAR threequarters
ENCODING 190
SWIDTH 600 0
DWIDTH 12 0
BBX 12 13 0 0
BITMAP
18EE900002B1
3FFFF7001DF8
041AF700BFA0
00BFD208F900
06CFF9068000
5FFFFB000000
19EEB2000000
00049009B100
005FC03F9BA0
06FE20CE1FD0
4FF303FFFFFD
086004FFFFFD
000000000FD0
ENDCHAR
STARTCHAR questiondown
ENCODING 191
SWIDTH 600 0
DWIDTH 12 0
BBX 8 14 2 -4
BITMAP
002CE800
009FFF30
009FFF30
002CE800
00000000
000EF900
005FF700
04EFE100
2EFF4000
BFF50000
DFE00000
CFF405B2
4FFFFFFB
04BEFC71
ENDCHAR
STARTCHAR Agrave
ENCODING 192
SWIDTH 600 0
DWIDTH 12 0
BBX 12 18 0 0
BITMAP
0001B5000000
0009FF900000
0002AFFB0000
000004C40000
000000000000
0000EFFE0000
0004FFFF3000
0008FDEF8000
000DF9BFD000
003FF68FF200
007FF24FF700
00CFE01FFC00
02FFA00CFF20
06FFFFFFFF60
0BFFFFFFFFB0
1FFD0000EFF1
5FF90000AFF5
AFF500006FFA
ENDCHAR
STARTCHAR Aacute
ENCODING 193
SWIDTH 600 0
DWIDTH 12 0
BBX 12 18 0 0
BITMAP
0000005B1000
000009FF9000
0000BFFA1000
00004C400000
000000000000
0000EFFE0000
0004FFFF3000
0008FDEF8000
000DF9BFD000
003FF68FF200
007FF24FF700
00CFE01FFC00
02FFA00CFF20
06FFFFFFFF60
0BFFFFFFFFB0
1FFD0000EFF1
5FF90000AFF5
AFF500006FFA
ENDCHAR
STARTCHAR Acircumflex
ENCODING 194
SWIDTH 600 0
DWIDTH 12 0
BBX 12 17 0 0
BITMAP
0002EFFE2000
000CFAAFC000
002B7007B200
000000000000
0000EFFE0000
0004FFFF3000
0008FDEF8000
000DF9BFD000
003FF68FF200
007FF24FF700
00CFE01FFC00
02FFA00CFF20
06FFFFFFFF60
0BFFFFFFFFB0
1FFD0000EFF1
5FF90000AFF5
AFF500006FFA
ENDCHAR
STARTCHAR Atilde
ENCODING 195
SWIDTH 600 0
DWIDTH 12 0
BBX 12 17 0 0
BITMAP
002BEC52CA00
00AFFFFFFA00
00AC25CEB200
000000000000
0000EFFE0000
0004FFFF3000
0008FDEF8000
000DF9BFD000
003FF68FF200
007FF24FF700
00CFE01FFC00
02FFA00CFF20
06FFFFFFFF60
0BFFFFFFFFB0
1FFD0000EFF1
5FF90000AFF5
AFF500006FFA
ENDCHAR
STARTCHAR Adieresis
ENCODING 196
SWIDTH 600 0
DWIDTH 12 0
BBX 12 17 0 0
BITMAP
004EB11BE400
00AFF33FFA00
004EB01BE400
000000000000
0000EFFE0000
0004FFFF3000
0008FDEF8000
000DF9BFD000
003FF68FF200
007FF24FF700
00CFE01FFC00
02FFA00CFF20
06FFFFFFFF60
0BFFFFFFFFB0
1FFD0000EFF1
5FF90000AFF5
AFF500006FFA
ENDCHAR
STARTCHAR Aring
ENCODING 197
SWIDTH 600 0
DWIDTH 12 0
BBX 12 18 0 0
BITMAP
00007EE70000
0003F66F3000
0003F66F3000
00007EE70000
000000000000
0000EFFE0000
0004FFFF3000
0008FDEF8000
000DF9BFD000
003FF68FF200
007FF24FF700
00CFE01FFC00
02FFA00CFF20
06FFFFFFFF60
0BFFFFFFFFB0
1FFD0000EFF1
5FF90000AFF5
AFF500006FFA
ENDCHAR
STARTCHAR AE
ENCODING 198
SWIDTH 600 0
DWIDTH 12 0
BBX 12 13 0 0
BITMAP
0000DFFFFFFB
0003FFFFFFFB
0008FFDFC000
000DFCCFC000
003FF8CFC000
008FF4CFC000
00DFE0CFFFF3
03FFA0CFFFF3
08FFFFFFC000
0DFFFFFFC000
3FFB00CFC000
8FF600CFFFFE
DFF200CFFFFE
ENDCHAR
STARTCHAR Ccedilla
ENCODING 199
SWIDTH 600 0
DWIDTH 12 0
BBX 11 18 1 -5
BITMAP
0005BEFD9200
01BFFFFFFD00
0BFFA204B200
4FFC00000000
AFF600000000
DFF300000000
EFF200000000
DFF300000000
AFF600000000
5FFD00000000
0CFFB204D600
02CFFFFFFF20
0006CEFD9200
00002F800000
00009FD40000
00001AFB0000
00002AF80000
0004EC700000
ENDCHAR
STARTCHAR Egrave
ENCODING 200
SWIDTH 600 0
DWIDTH 12 0
BBX 10 18 1 0
BITMAP
0005A10000
003FFD3000
0006EFF300
000019A000
0000000000
2FFFFFFFF7
2FFFFFFFF7
2FFC000000
2FFC000000
2FFC000000
2FFC000000
2FFFFFFF90
2FFFFFFF90
2FFC000000
2FFC000000
2FFC000000
2FFFFFFFFA
2FFFFFFFFA
ENDCHAR
STARTCHAR Eacute
ENCODING 201
SWIDTH 600 0
DWIDTH 12 0
BBX 10 18 1 0
BITMAP
000001B400
00004DFE20
0004FFD500
0000B81000
0000000000
2FFFFFFFF7
2FFFFFFFF7
2FFC000000
2FFC000000
2FFC000000
2FFC000000
2FFFFFFF90
2FFFFFFF90
2FFC000000
2FFC000000
2FFC000000
2FFFFFFFFA
2FFFFFFFFA
ENDCHAR
STARTCHAR Ecircumflex
ENCODING 202
SWIDTH 600 0
DWIDTH 12 0
BBX 10 17 1 0
BITMAP
0008FFF700
006FE7EF40
007C203C60
0000000000
2FFFFFFFF7
2FFFFFFFF7
2FFC000000
2FFC000000
2FFC000000
2FFC000000
2FFFFFFF90
2FFFFFFF90
2FFC000000
2FFC000000
2FFC000000
2FFFFFFFFA
2FFFFFFFFA
ENDCHAR
STARTCHAR Edieresis
ENCODING 203
SWIDTH 600 0
DWIDTH 12 0
BBX 10 17 1 0
BITMAP
00BE506EA0
03FFA0CFF1
00BE506EA0
0000000000
2FFFFFFFF7
2FFFFFFFF7
2FFC000000
2FFC000000
2FFC000000
2FFC000000
2FFFFFFF90
2FFFFFFF90
2FFC000000
2FFC000000
2FFC000000
2FFFFFFFFA
2FFFFFFFFA
ENDCHAR
STARTCHAR Igrave
ENCODING 204
SWIDTH 600 0
DWIDTH 12 0
BBX 10 18 1 0
BITMAP
001B500000
009FF90000
002AFFB000
00004C4000
0000000000
8FFFFFFFF8
8FFFFFFFF8
0007FF7000
0007FF7000
0007FF7000
0007FF7000
0007FF7000
0007FF7000
0007FF7000
0007FF7000
0007FF7000
8FFFFFFFF8
8FFFFFFFF8
ENDCHAR
STARTCHAR Iacute
ENCODING 205
SWIDTH 600 0
DWIDTH 12 0
BBX 10 18 1 0
BITMAP
000005B100
00009FF900
000BFFA100
0004C40000
0000000000
8FFFFFFFF8
8FFFFFFFF8
0007FF7000
0007FF7000
0007FF7000
0007FF7000
0007FF7000
0007FF7000
0007FF7000
0007FF7000
0007FF7000
8FFFFFFFF8
8FFFFFFFF8
ENDCHAR
STARTCHAR Icircumflex
ENCODING 206
SWIDTH 600 0
DWIDTH 12 0
BBX 10 17 1 0
BITMAP
002EFFE200
00CFAAFC00
02B7007B20
0000000000
8FFFFFFFF8
8FFFFFFFF8
0007FF7000
0007FF7000
0007FF7000
0007FF7000
0007FF7000
0007FF7000
0007FF7000
0007FF7000
0007FF7000
8FFFFFFFF8
8FFFFFFFF8
ENDCHAR
STARTCHAR Idieresis
ENCODING 207
SWIDTH 600 0
DWIDTH 12 0
BBX 10 17 1 0
BITMAP
04EB11BE40
0AFF33FFA0
04EB01BE40
0000000000
8FFFFFFFF8
8FFFFFFFF8
0007FF7000
0007FF7000
0007FF7000
0007FF7000
0007FF7000
0007FF7000
0007FF7000
0007FF7000
0007FF7000
8FFFFFFFF8
8FFFFFFFF8
ENDCHAR
STARTCHAR Eth
ENCODING 208
SWIDTH 600 0
DWIDTH 12 0
BBX 12 13 0 0
BITMAP
09FFFFD93000
09FFFFFFF700
09FF526EFF40
09FF5005FFC0
09FF5000EFF1
EFFFFF80CFF3
FFFFFF80BFF4
09FF5000CFF3
09FF5000EFF1
09FF5006FFB0
09FF526EFF40
09FFFFFFF600
09FFFFD93000
ENDCHAR
STARTCHAR Ntilde
ENCODING 209
SWIDTH 600 0
DWIDTH 12 0
BBX 10 17 1 0
BITMAP
01AED71BB1
07FFFFFFD0
07C44BEC30
0000000000
AFF8002FFA
AFFE102FFA
AFFF602FFA
AFEFC02FFA
AFCDF42FFA
AFE7FA1FFA
AFF2FF2FFA
AFF1AF7EFA
AFF24FDCFA
AFF20CFEFA
AFF206FFFA
AFF201EFFA
AFF2008FFA
ENDCHAR
STARTCHAR Ograve
ENCODING 210
SWIDTH 600 0
DWIDTH 12 0
BBX 12 18 0 0
BITMAP
0001B5000000
0009FF900000
0002AFFB0000
000004C40000
000000000000
0005CEEC5000
009FFFFFF900
05FFC22CFF50
0CFF3004FFC0
1FFE0000EFF1
3FFC0000CFF3
3FFC0000CFF3
3FFC0000CFF3
1FFE0000EFF1
0BFF4004FFB0
05FFC22CFF50
009FFFFFF900
0005CEEC5000
ENDCHAR
STARTCHAR Oacute
ENCODING 211
SWIDTH 600 0
DWIDTH 12 0
BBX 12 18 0 0
BITMAP
0000005B1000
000009FF9000
0000BFFA1000
00004C400000
000000000000
0005CEEC5000
009FFFFFF900
05FFC22CFF50
0CFF3004FFC0
1FFE0000EFF1
3FFC0000CFF3
3FFC0000CFF3
3FFC0000CFF3
1FFE0000EFF1
0BFF4004FFB0
05FFC22CFF50
009FFFFFF900
0005CEEC5000
ENDCHAR
STARTCHAR Ocircumflex
ENCODING 212
SWIDTH 600 0
DWIDTH 12 0
BBX 12 17 0 0
BITMAP
0002EFFE2000
000CFAAFC000
002B7007B200
000000000000
0005CEEC5000
009FFFFFF900
05FFC22CFF50
0CFF3004FFC0
1FFE0000EFF1
3FFC0000CFF3
3FFC0000CFF3
3FFC0000CFF3
1FFE0000EFF1
0BFF4004FFB0
05FFC22CFF50
009FFFFFF900
0005CEEC5000
ENDCHAR
STARTCHAR Otilde
ENCODING 213
SWIDTH 600 0
DWIDTH 12 0
BBX 12 17 0 0
BITMAP
002BEC52CA00
00AFFFFFFA00
00AC25CEB200
000000000000
0005CEEC5000
009FFFFFF900
05FFC22CFF50
0CFF3004FFC0
1FFE0000EFF1
3FFC0000CFF3
3FFC0000CFF3
3FFC0000CFF3
1FFE0000EFF1
0BFF4004FFB0
05FFC22CFF50
009FFFFFF900
0005CEEC5000
ENDCHAR
STARTCHAR Odieresis
ENCODING 214
SWIDTH 600 0
DWIDTH 12 0
BBX 12 17 0 0
BITMAP
004EB11BE400
00AFF33FFA00
004EB01BE400
000000000000
0005CEEC5000
009FFFFFF900
05FFC22CFF50
0CFF3004FFC0
1FFE0000EFF1
3FFC0000CFF3
3FFC0000CFF3
3FFC0000CFF3
1FFE0000EFF1
0BFF4004FFB0
05FFC22CFF50
009FFFFFF900
0005CEEC5000
ENDCHAR
STARTCHAR multiply
ENCODING 215
SWIDTH 600 0
DWIDTH 12 0
BBX 10 9 1 2
BITMAP
0360000950
1EF6008FF2
08FF67FF60
008FFFF700
000BFFB000
006FFFF600
06FF88FF50
1EF8009FF1
0480000950
ENDCHAR
STARTCHAR Oslash
ENCODING 216
SWIDTH 600 0
DWIDTH 12 0
BBX 12 15 0 -1
BITMAP
000000000250
0005CEEC5CF5
009FFFFFFFC0
05FFC23EFF60
0CFF301EFFC0
1FFE00BFFFF1
3FFC07FDDFF3
3FFC3FF3CFF3
3FFDDF60CFF3
1FFFFA00EFF1
0BFFD104FFB0
05FFE32CFF50
0CFFFFFFF900
6FC5BEEC5000
052000000000
ENDCHAR
STARTCHAR Ugrave
ENCODING 217
SWIDTH 600 0
DWIDTH 12 0
BBX 10 18 1 0
BITMAP
001B500000
009FF90000
002AFFB000
00004C4000
0000000000
BFF3002FFB
BFF3002FFB
BFF3002FFB
BFF3002FFB
BFF3002FFB
BFF3002FFB
BFF3002FFB
BFF3002FFB
AFF3002FFA
8FF5004FF8
4FFC21BFF4
0AFFFFFFA0
007CEFC700
ENDCHAR
STARTCHAR Uacute
ENCODING 218
SWIDTH 600 0
DWIDTH 12 0
BBX 10 18 1 0
BITMAP
000005B100
00009FF900
000BFFA100
0004C40000
0000000000
BFF3002FFB
BFF3002FFB
BFF3002FFB
BFF3002FFB
BFF3002FFB
BFF3002FFB
BFF3002FFB
BFF3002FFB
AFF3002FFA
8FF5004FF8
4FFC21BFF4
0AFFFFFFA0
007CEFC700
ENDCHAR
STARTCHAR Ucircumflex
ENCODING 219
SWIDTH 600 0
DWIDTH 12 0
BBX 10 17 1 0
BITMAP
002EFFE200
00CFAAFC00
02B7007B20
0000000000
BFF3002FFB
BFF3002FFB
BFF3002FFB
BFF3002FFB
BFF3002FFB
BFF3002FFB
BFF3002FFB
BFF3002FFB
AFF3002FFA
8FF5004FF8
4FFC21BFF4
0AFFFFFFA0
007CEFC700
ENDCHAR
STARTCHAR Udieresis
ENCODING 220
SWIDTH 600 0
DWIDTH 12 0
BBX 10 17 1 0
BITMAP
04EB11BE40
0AFF33FFA0
04EB01BE40
0000000000
BFF3002FFB
BFF3002FFB
BFF3002FFB
BFF3002FFB
BFF3002FFB
BFF3002FFB
BFF3002FFB
BFF3002FFB
AFF3002FFA
8FF5004FF8
4FFC21BFF4
0AFFFFFFA0
007CEFC700
ENDCHAR
STARTCHAR Yacute
ENCODING 221
SWIDTH 600 0
DWIDTH 12 0
BBX 12 18 0 0
BITMAP
0000005B1000
000009FF9000
0000BFFA1000
00004C400000
000000000000
7FFA00009FF7
1EFF2001EFE1
07FF8007FF70
01EFE00DFE10
007FF54FF700
001EFBAFE100
0008FFFF8000
0001EFFE1000
00009FF90000
00007FF70000
00007FF70000
00007FF70000
00007FF70000
ENDCHAR
STARTCHAR Thorn
ENCODING 222
SWIDTH 600 0
DWIDTH 12 0
BBX 11 13 1 0
BITMAP
8FF600000000
8FF600000000
8FFFFFDB5000
8FFFFFFFF700
8FF6015EFF10
8FF6000AFF40
8FF6000AFF40
8FF6016FFE10
8FFFFFFFF500
8FFFFED92000
8FF600000000
8FF600000000
8FF600000000
ENDCHAR
STARTCHAR germandbls
ENCODING 223
SWIDTH 600 0
DWIDTH 12 0
BBX 11 14 1 0
BITMAP
018DFEA20000
1CFFFFFD1000
7FFA17FF6000
BFF404FF7000
CFF208FF4000
CFF21EFC0000
CFF25FF60000
CFF24FFC1000
CFF20CFFE400
CFF2019FFE10
CFF20008FF50
CFF20517FF50
CFF26FFFFD10
CFF26CEEA200
ENDCHAR
STARTCHAR agrave
ENCODING 224
SWIDTH 600 0
DWIDTH 12 0
BBX 10 16 1 0
BITMAP
0009500000
00AFF30000
006FFE2000
0004EFB000
00003C2000
0000000000
039CEFD810
3FFFFFFFC0
088313DFF6
0000005FF9
0059CDFFFA
2DFFFFFFFB
AFFA414FFB
BFF403AFFB
6FFFFFEFFB
07DFD81CFB
ENDCHAR
STARTCHAR aacute
ENCODING 225
SWIDTH 600 0
DWIDTH 12 0
BBX 10 16 1 0
BITMAP
0000008600
000006FF70
00004FFE40
0000DFD300
00004B1000
0000000000
039CEFD810
3FFFFFFFC0
088313DFF6
0000005FF9
0059CDFFFA
2DFFFFFFFB
AFFA414FFB
BFF403AFFB
6FFFFFEFFB
07DFD81CFB
ENDCHAR
STARTCHAR acircumflex
ENCODING 226
SWIDTH 600 0
DWIDTH 12 0
BBX 10 15 1 0
BITMAP
0007FFF400
004FFFFE20
01DFA2CFC0
0097000A70
0000000000
039CEFD810
3FFFFFFFC0
088313DFF6
0000005FF9
0059CDFFFA
2DFFFFFFFB
AFFA414FFB
BFF403AFFB
6FFFFFEFFB
07DFD81CFB
ENDCHAR
STARTCHAR atilde
ENCODING 227
SWIDTH 600 0
DWIDTH 12 0
BBX 10 15 1 0
BITMAP
0002200000
009FFA2CF2
03FFEFFFE0
04C719ED40
0000000000
039CEFD810
3FFFFFFFC0
088313DFF6
0000005FF9
0059CDFFFA
2DFFFFFFFB
AFFA414FFB
BFF403AFFB
6FFFFFEFFB
07DFD81CFB
ENDCHAR
STARTCHAR adieresis
ENCODING 228
SWIDTH 600 0
DWIDTH 12 0
BBX 10 15 1 0
BITMAP
01CE507EA0
05FFB0EFF3
01CE508EB0
0000000000
0000000000
039CEFD810
3FFFFFFFC0
088313DFF6
0000005FF9
0059CDFFFA
2DFFFFFFFB
AFFA414FFB
BFF403AFFB
6FFFFFEFFB
07DFD81CFB
ENDCHAR
STARTCHAR aring
ENCODING 229
SWIDTH 600 0
DWIDTH 12 0
BBX 10 15 1 0
BITMAP
0006DFC400
002FB1DE00
002FB1EE00
0006DFC400
0000000000
039CEFD810
3FFFFFFFC0
088313DFF6
0000005FF9
0059CDFFFA
2DFFFFFFFB
AFFA414FFB
BFF403AFFB
6FFFFFEFFB
07DFD81CFB
ENDCHAR
STARTCHAR ae
ENCODING 230
SWIDTH 600 0
DWIDTH 12 0
BBX 12 10 0 0
BITMAP
17CFD62BFD40
2EFFFFDFFFE2
05416FF90BF7
005AEFF307FB
0AFFFFFFFFFC
6FFA4FFFFFFC
AFF10FF40000
9FF24FFC2250
5FFFFDEFFFF3
07EE913BEEA2
ENDCHAR
STARTCHAR ccedilla
ENCODING 231
SWIDTH 600 0
DWIDTH 12 0
BBX 10 15 1 -5
BITMAP
0017CEFD82
03EFFFFFF7
1DFF921580
6FFB000000
9FF7000000
9FF7000000
6FFB000000
1EFF8214B2
04EFFFFFFA
0029DFEC81
00002F8000
0000AFD400
00001AFB00
00002AF800
0005EC7000
ENDCHAR
STARTCHAR egrave
ENCODING 232
SWIDTH 600 0
DWIDTH 12 0
BBX 10 16 1 0
BITMAP
001A300000
01CFE20000
009FFC1000
0006FF8000
00004B1000
0000000000
004AEFD810
07FFFFFFC1
4FFD316FF7
AFF4000CFC
DFFFFFFFFE
DFFFFFFFFD
AFF4000000
4FFD411470
07FFFFFFF4
004AEFEB61
ENDCHAR
STARTCHAR eacute
ENCODING 233
SWIDTH 600 0
DWIDTH 12 0
BBX 10 16 1 0
BITMAP
000000A400
000008FF50
00006FFD30
0002FFC100
00006A0000
0000000000
004AEFD810
07FFFFFFC1
4FFD316FF7
AFF4000CFC
DFFFFFFFFE
DFFFFFFFFD
AFF4000000
4FFD411470
07FFFFFFF4
004AEFEB61
ENDCHAR
STARTCHAR ecircumflex
ENCODING 234
SWIDTH 600 0
DWIDTH 12 0
BBX 10 15 1 0
BITMAP
000AFFE200
006FFFFC10
03FF83DF90
01B5001B40
0000000000
004AEFD810
07FFFFFFC1
4FFD316FF7
AFF4000CFC
DFFFFFFFFE
DFFFFFFFFD
AFF4000000
4FFD411470
07FFFFFFF4
004AEFEB61
ENDCHAR
STARTCHAR edieresis
ENCODING 235
SWIDTH 600 0
DWIDTH 12 0
BBX 10 15 1 0
BITMAP
03DD30AE80
08FF81FFF0
03DD30AE90
0000000000
0000000000
004AEFD810
07FFFFFFC1
4FFD316FF7
AFF4000CFC
DFFFFFFFFE
DFFFFFFFFD
AFF4000000
4FFD411470
07FFFFFFF4
004AEFEB61
ENDCHAR
STARTCHAR igrave
ENCODING 236
SWIDTH 600 0
DWIDTH 12 0
BBX 8 16 1 0
BITMAP
0003B100
003EFA00
002CFF80
0001AFF4
00000880
00000000
6FFFFFF8
6FFFFFF8
00007FF8
00007FF8
00007FF8
00007FF8
00007FF8
00007FF8
00007FF8
00007FF8
ENDCHAR
STARTCHAR iacute
ENCODING 237
SWIDTH 600 0
DWIDTH 12 0
BBX 10 16 1 0
BITMAP
0000002B10
000001CFD2
00000BFFA1
00006FF800
00000A6000
0000000000
6FFFFFF800
6FFFFFF800
00007FF800
00007FF800
00007FF800
00007FF800
00007FF800
00007FF800
00007FF800
00007FF800
ENDCHAR
STARTCHAR icircumflex
ENCODING 238
SWIDTH 600 0
DWIDTH 12 0
BBX 10 15 1 0
BITMAP
0001DFFC00
000BFFFF80
007FE46FF4
003C2004B1
0000000000
6FFFFFF800
6FFFFFF800
00007FF800
00007FF800
00007FF800
00007FF800
00007FF800
00007FF800
00007FF800
00007FF800
ENDCHAR
STARTCHAR idieresis
ENCODING 239
SWIDTH 600 0
DWIDTH 12 0
BBX 10 15 1 0
BITMAP
007EB02DE4
00DFF36FFA
007EB12DE4
0000000000
0000000000
6FFFFFF800
6FFFFFF800
00007FF800
00007FF800
00007FF800
00007FF800
00007FF800
00007FF800
00007FF800
00007FF800
ENDCHAR
STARTCHAR eth
ENCODING 240
SWIDTH 600 0
DWIDTH 12 0
BBX 11 14 0 0
BITMAP
0006B4004900
001EFFBCFD20
0002DFFF8000
006EFCEFE200
005B403EFC00
0019EFBBFF50
02DFFFFFFFA0
0AFF7119FFD0
0EFC0000CFE0
1FFA0000CFE0
0EFD0001EFB0
08FF812AFF50
01CFFFFFF900
0007CFEC6000
ENDCHAR
STARTCHAR ntilde
ENCODING 241
SWIDTH 600 0
DWIDTH 12 0
BBX 10 15 1 0
BITMAP
0002200000
00BFF91DF0
04FEEFFFC0
05C51AEC30
0000000000
8FE07DFD60
8FFBFFFFF3
8FFF518FF9
8FF7003FFB
8FF6002FFC
8FF6002FFC
8FF6002FFC
8FF6002FFC
8FF6002FFC
8FF6002FFC
ENDCHAR
STARTCHAR ograve
ENCODING 242
SWIDTH 600 0
DWIDTH 12 0
BBX 10 16 1 0
BITMAP
002B100000
02EFB00000
01BFFA0000
0009FF5000
0000790000
0000000000
005BEEB500
0AFFFFFFA0
6FFB22BFF6
DFF3003FFD
FFF0000FFF
FFF0000FFF
DFF3003FFD
6FFB22BFF6
0AFFFFFFA0
006CEEC600
ENDCHAR
STARTCHAR oacute
ENCODING 243
SWIDTH 600 0
DWIDTH 12 0
BBX 10 16 1 0
BITMAP
000001B200
00000BFD20
0000AFFB10
0005FF9000
0000970000
0000000000
005BEEB500
0AFFFFFFA0
6FFB22BFF6
DFF3003FFD
FFF0000FFF
FFF0000FFF
DFF3003FFD
6FFB22BFF6
0AFFFFFFA0
006CEEC600
ENDCHAR
STARTCHAR ocircumflex
ENCODING 244
SWIDTH 600 0
DWIDTH 12 0
BBX 10 15 1 0
BITMAP
001DFFD100
00AFFFF900
06FE55EF60
02C3003C20
0000000000
005BEEB500
0AFFFFFFA0
6FFB22BFF6
DFF3003FFD
FFF0000FFF
FFF0000FFF
DFF3003FFD
6FFB22BFF6
0AFFFFFFA0
006CEEC600
ENDCHAR
STARTCHAR otilde
ENCODING 245
SWIDTH 600 0
DWIDTH 12 0
BBX 10 15 1 0
BITMAP
0003100000
02DFE63FB0
09FEFFFF80
08C23CEA10
0000000000
005BEEB500
0AFFFFFFA0
6FFB22BFF6
DFF3003FFD
FFF0000FFF
FFF0000FFF
DFF3003FFD
6FFB22BFF6
0AFFFFFFA0
006CEEC600
ENDCHAR
STARTCHAR odieresis
ENCODING 246
SWIDTH 600 0
DWIDTH 12 0
BBX 10 15 1 0
BITMAP
05EC11CE50
0CFF55FFB0
06EC11CE50
0000000000
0000000000
005BEEB500
0AFFFFFFA0
6FFB22BFF6
DFF3003FFD
FFF0000FFF
FFF0000FFF
DFF3003FFD
6FFB22BFF6
0AFFFFFFA0
006CEEC600
ENDCHAR
STARTCHAR divide
ENCODING 247
SWIDTH 600 0
DWIDTH 12 0
BBX 10 10 1 2
BITMAP
0003DD3000
0009FF9000
0003DD3000
0000000000
9FFFFFFFF9
9FFFFFFFF9
0000000000
0003DD3000
0009FF9000
0003DD3000
ENDCHAR
STARTCHAR oslash
ENCODING 248
SWIDTH 600 0
DWIDTH 12 0
BBX 10 12 1 -1
BITMAP
0000000020
005BEEB6E7
0AFFFFFFF2
6FFC23FFF6
DFF30AFFFD
FFF08F6FFF
FFF6F80FFF
DFFFA03FFD
6FFF32BFF6
2FFFFFFFA0
7E6CEEC600
0200000000
ENDCHAR
STARTCHAR ugrave
ENCODING 249
SWIDTH 600 0
DWIDTH 12 0
BBX 10 16 1 0
BITMAP
003B100000
03EFB00000
01CFF90000
001AFF4000
0000880000
0000000000
CFF3007FF8
CFF3007FF8
CFF3007FF8
CFF3007FF8
CFF3007FF8
CFF3007FF8
BFF3008FF8
9FF915FFF8
3FFFFFBFF8
06DFD70FF8
ENDCHAR
STARTCHAR uacute
ENCODING 250
SWIDTH 600 0
DWIDTH 12 0
BBX 10 16 1 0
BITMAP
000002B200
00001CFD20
0000AFFB10
0006FF9000
0000A60000
0000000000
CFF3007FF8
CFF3007FF8
CFF3007FF8
CFF3007FF8
CFF3007FF8
CFF3007FF8
BFF3008FF8
9FF915FFF8
3FFFFFBFF8
06DFD70FF8
ENDCHAR
STARTCHAR ucircumflex
ENCODING 251
SWIDTH 600 0
DWIDTH 12 0
BBX 10 15 1 0
BITMAP
001DFFC000
00AFFFF900
06FE56FF50
03C2003C20
0000000000
CFF3007FF8
CFF3007FF8
CFF3007FF8
CFF3007FF8
CFF3007FF8
CFF3007FF8
BFF3008FF8
9FF915FFF8
3FFFFFBFF8
06DFD70FF8
ENDCHAR
STARTCHAR udieresis
ENCODING 252
SWIDTH 600 0
DWIDTH 12 0
BBX 10 15 1 0
BITMAP
06EB12CE50
0CFF46FFB0
06EC12DE50
0000000000
0000000000
CFF3007FF8
CFF3007FF8
CFF3007FF8
CFF3007FF8
CFF3007FF8
CFF3007FF8
BFF3008FF8
9FF915FFF8
3FFFFFBFF8
06DFD70FF8
ENDCHAR
STARTCHAR yacute
ENCODING 253
SWIDTH 600 0
DWIDTH 12 0
BBX 12 20 0 -4
BITMAP
0000000A3000
0000009FE400
000007FFD200
00003FFB1000
000007900000
000000000000
2FFB00008FF3
0AFF2000DFD0
03FF8003FF70
00CFD008FF10
005FF40DFA00
000DF93FF400
0006FE7FE000
0000EFEF8000
00007FFF2000
00002FFB0000
00007FF50000
0013EFD00000
05FFFF300000
07FEB3000000
ENDCHAR
STARTCHAR thorn
ENCODING 254
SWIDTH 600 0
DWIDTH 12 0
BBX 11 18 1 -4
BITMAP
8FF600000000
8FF600000000
8FF600000000
8FF600000000
8FF69EEB3000
8FFFFFFFE200
8FFD31AFF900
8FF6002FFE00
8FF6000FFF10
8FF6001FFF00
8FF6003FFD00
8FFC32CFF700
8FFFFFFFC000
8FF7BEE81000
8FF500000000
8FF600000000
8FF600000000
8FF600000000
ENDCHAR
STARTCHAR ydieresis
ENCODING 255
SWIDTH 600 0
DWIDTH 12 0
BBX 12 19 0 -4
BITMAP
004ED20BE700
009FF73FFE00
004ED20BE700
000000000000
000000000000
2FFB00008FF3
0AFF2000DFD0
03FF8003FF70
00CFD008FF10
005FF40DFA00
000DF93FF400
0006FE7FE000
0000EFEF8000
00007FFF2000
00002FFB0000
00007FF50000
0013EFD00000
05FFFF300000
07FEB3000000
ENDCHAR
STARTCHAR Amacron
ENCODING 256
SWIDTH 600 0
DWIDTH 12 0
BBX 12 16 0 0
BITMAP
000FFFFFF000
000FFFFFF000
000000000000
0000EFFE0000
0004FFFF3000
0008FDEF8000
000DF9BFD000
003FF68FF200
007FF24FF700
00CFE01FFC00
02FFA00CFF20
06FFFFFFFF60
0BFFFFFFFFB0
1FFD0000EFF1
5FF90000AFF5
AFF500006FFA
ENDCHAR
STARTCHAR amacron
ENCODING 257
SWIDTH 600 0
DWIDTH 12 0
BBX 10 14 1 0
BITMAP
008FFFFF50
008FFFFF50
0000000000
0000000000
039CEFD810
3FFFFFFFC0
088313DFF6
0000005FF9
0059CDFFFA
2DFFFFFFFB
AFFA414FFB
BFF403AFFB
6FFFFFEFFB
07DFD81CFB
ENDCHAR
STARTCHAR Abreve
ENCODING 258
SWIDTH 600 0
DWIDTH 12 0
BBX 12 17 0 0
BITMAP
002DA11AD200
000DFFFFD000
0002BEEB2000
000000000000
0000EFFE0000
0004FFFF3000
0008FDEF8000
000DF9BFD000
003FF68FF200
007FF24FF700
00CFE01FFC00
02FFA00CFF20
06FFFFFFFF60
0BFFFFFFFFB0
1FFD0000EFF1
5FF90000AFF5
AFF500006FFA
ENDCHAR
STARTCHAR abreve
ENCODING 259
SWIDTH 600 0
DWIDTH 12 0
BBX 10 15 1 0
BITMAP
0013000310
00DE306FA0
008FFFFF50
0008DED600
0000000000
039CEFD810
3FFFFFFFC0
088313DFF6
0000005FF9
0059CDFFFA
2DFFFFFFFB
AFFA414FFB
BFF403AFFB
6FFFFFEFFB
07DFD81CFB
ENDCHAR
STARTCHAR Aogonek
ENCODING 260
SWIDTH 600 0
DWIDTH 12 0
BBX 13 18 0 -5
BITMAP
0000EFFE000000
0004FFFF300000
0008FDEF800000
000DF9BFD00000
003FF68FF20000
007FF34FF70000
00CFE01FFC0000
02FFA00CFF2000
06FFFFFFFF6000
0BFFFFFFFFB000
1FFD0000EFF100
5FF90000AFF500
AFF500006FFA00
000000003EB200
00000000CF1000
00000002FF2200
00000001FFFE10
000000006DEA10
ENDCHAR
STARTCHAR aogonek
ENCODING 261
SWIDTH 600 0
DWIDTH 12 0
BBX 10 15 1 -5
BITMAP
039CEFD810
3FFFFFFFC0
088313DFF6
0000005FF9
0059CDFFFA
2DFFFFFFFB
AFFA414FFB
BFF403AFFB
6FFFFFFFFB
07DFD92CFB
0000005E92
000002FB00
000005FB11
000004FFFD
0000008ED8
ENDCHAR
STARTCHAR Cacute
ENCODING 262
SWIDTH 600 0
DWIDTH 12 0
BBX 11 18 1 0
BITMAP
0000004B1000
000008FFA000
0000AFFA2000
00003C400000
000000000000
0005BEFD9200
01BFFFFFFD00
0BFFA204B200
4FFC00000000
AFF600000000
DFF300000000
EFF200000000
DFF300000000
AFF600000000
5FFD00000000
0CFFB204D600
02CFFFFFFF20
0006CEFD9200
ENDCHAR
STARTCHAR cacute
ENCODING 263
SWIDTH 600 0
DWIDTH 12 0
BBX 10 16 1 0
BITMAP
0000002B10
000001DFC1
00000CFFA0
00007FF700
00001B5000
0000000000
0017CEFD82
03EFFFFFF7
1DFF921580
6FFB000000
9FF7000000
9FF7000000
6FFB000000
1EFF8214B2
04EFFFFFFA
0029DFEC81
ENDCHAR
STARTCHAR Ccircumflex
ENCODING 264
SWIDTH 600 0
DWIDTH 12 0
BBX 11 17 1 0
BITMAP
0001DFFE2000
000BFBAFC100
001B8007C200
000000000000
0005BEFD9200
01BFFFFFFD00
0BFFA204B200
4FFC00000000
AFF600000000
DFF300000000
EFF200000000
DFF300000000
AFF600000000
5FFD00000000
0CFFB204D600
02CFFFFFFF20
0006CEFD9200
ENDCHAR
STARTCHAR ccircumflex
ENCODING 265
SWIDTH 600 0
DWIDTH 12 0
BBX 10 15 1 0
BITMAP
0002EFFB00
000CFFFF70
008FE47FF3
004B2004B1
0000000000
0017CEFD82
03EFFFFFF7
1DFF921580
6FFB000000
9FF7000000
9FF7000000
6FFB000000
1EFF8214B2
04EFFFFFFA
0029DFEC81
ENDCHAR
STARTCHAR Cdotaccent
ENCODING 266
SWIDTH 600 0
DWIDTH 12 0
BBX 11 17 1 0
BITMAP
00004DE60000
0000AFFC0000
00004EE60000
000000000000
0005BEFD9200
01BFFFFFFD00
0BFFA204B200
4FFC00000000
AFF600000000
DFF300000000
EFF200000000
DFF300000000
AFF600000000
5FFD00000000
0CFFB204D600
02CFFFFFFF20
0006CEFD9200
ENDCHAR
STARTCHAR cdotaccent
ENCODING 267
SWIDTH 600 0
DWIDTH 12 0
BBX 10 15 1 0
BITMAP
00006ED300
0000FFFA00
0001FFFB00
00007ED300
0000000000
0017CEFD82
03EFFFFFF7
1DFF921580
6FFB000000
9FF7000000
9FF7000000
6FFB000000
1EFF8214B2
04EFFFFFFA
0029DFEC81
ENDCHAR
STARTCHAR Ccaron
ENCODING 268
SWIDTH 600 0
DWIDTH 12 0
BBX 11 17 1 0
BITMAP
001B8007C200
000BFBAFD100
0001DFFE2000
000000000000
0005BEFD9200
01BFFFFFFD00
0BFFA204B200
4FFC00000000
AFF600000000
DFF300000000
EFF200000000
DFF300000000
AFF600000000
5FFD00000000
0CFFB204D600
02CFFFFFFF20
0006CEFD9200
ENDCHAR
STARTCHAR ccaron
ENCODING 269
SWIDTH 600 0
DWIDTH 12 0
BBX 10 15 1 0
BITMAP
003B2004B1
008FE47FF3
000CFFFF70
0002EFFB00
0000000000
0017CEFD82
03EFFFFFF7
1DFF921580
6FFB000000
9FF7000000
9FF7000000
6FFB000000
1EFF8214B2
04EFFFFFFA
0029DFEC81
ENDCHAR
STARTCHAR Dcaron
ENCODING 270
SWIDTH 600 0
DWIDTH 12 0
BBX 11 17 1 0
BITMAP
02B7007B2000
01CFAAFC0000
002EFFE20000
000000000000
9FFFFD930000
9FFFFFFF7000
9FF526EFF400
9FF5005FFC00
9FF5000EFF10
9FF5000CFF30
9FF5000BFF40
9FF5000CFF30
9FF5000EFF10
9FF5006FFB00
9FF526EFF400
9FFFFFFF7000
9FFFFDA30000
ENDCHAR
STARTCHAR dcaron
ENCODING 271
SWIDTH 600 0
DWIDTH 12 0
BBX 13 16 0 0
BITMAP
0000000000EFA0
0000000000EFA0
0000007FF4DF80
0000007FF4DF60
0000007FF4CF30
0000007FF40000
004CFB8FF40000
04FFFFFFF40000
0CFF52DFF40000
2FFB007FF40000
4FF8007FF40000
4FF8007FF40000
2FFA007FF40000
0DFF42DFF40000
06FFFFEFF40000
006DFA2FF40000
ENDCHAR
STARTCHAR Dcroat
ENCODING 272
SWIDTH 600 0
DWIDTH 12 0
BBX 12 13 0 0
BITMAP
09FFFFD93000
09FFFFFFF700
09FF526EFF40
09FF5005FFC0
09FF5000EFF1
EFFFFF80CFF3
FFFFFF80BFF4
09FF5000CFF3
09FF5000EFF1
09FF5006FFB0
09FF526EFF40
09FFFFFFF600
09FFFFD93000
ENDCHAR
STARTCHAR dcroat
ENCODING 273
SWIDTH 600 0
DWIDTH 12 0
BBX 11 14 1 0
BITMAP
0000006FF800
0008FFFFFFD0
0008FFFFFFC0
0000006FF800
019EFB6FF800
1CFFFFFFF800
7FFC22BFF800
DFF3006FF800
FFF0006FF800
FFF0006FF800
EFF2006FF800
8FFA13DFF800
1EFFFFEFF800
02AEEA1EF800
ENDCHAR
STARTCHAR Emacron
ENCODING 274
SWIDTH 600 0
DWIDTH 12 0
BBX 10 16 1 0
BITMAP
008FFFFF70
008FFFFF70
0000000000
2FFFFFFFF7
2FFFFFFFF7
2FFC000000
2FFC000000
2FFC000000
2FFC000000
2FFFFFFF90
2FFFFFFF90
2FFC000000
2FFC000000
2FFC000000
2FFFFFFFFA
2FFFFFFFFA
ENDCHAR
STARTCHAR emacron
ENCODING 275
SWIDTH 600 0
DWIDTH 12 0
BBX 10 14 1 0
BITMAP
00BFFFFF30
00BFFFFF30
0000000000
0000000000
004AEFD810
07FFFFFFC1
4FFD316FF7
AFF4000CFC
DFFFFFFFFE
DFFFFFFFFD
AFF4000000
4FFD411470
07FFFFFFF4
004AEFEB61
ENDCHAR
STARTCHAR Ebreve
ENCODING 276
SWIDTH 600 0
DWIDTH 12 0
BBX 10 17 1 0
BITMAP
009E405E70
006FFFFF50
0007DFD600
0000000000
2FFFFFFFF7
2FFFFFFFF7
2FFC000000
2FFC000000
2FFC000000
2FFC000000
2FFFFFFF90
2FFFFFFF90
2FFC000000
2FFC000000
2FFC000000
2FFFFFFFFA
2FFFFFFFFA
ENDCHAR
STARTCHAR ebreve
ENCODING 277
SWIDTH 600 0
DWIDTH 12 0
BBX 10 15 1 0
BITMAP
0022000300
01FD218F80
00AFFFFF30
0019DEC400
0000000000
004AEFD810
07FFFFFFC1
4FFD316FF7
AFF4000CFC
DFFFFFFFFE
DFFFFFFFFD
AFF4000000
4FFD411470
07FFFFFFF4
004AEFEB61
ENDCHAR
STARTCHAR Edotaccent
ENCODING 278
SWIDTH 600 0
DWIDTH 12 0
BBX 10 17 1 0
BITMAP
0001BEA000
0004FFF300
0001BFA000
0000000000
2FFFFFFFF7
2FFFFFFFF7
2FFC000000
2FFC000000
2FFC000000
2FFC000000
2FFFFFFF90
2FFFFFFF90
2FFC000000
2FFC000000
2FFC000000
2FFFFFFFFA
2FFFFFFFFA
ENDCHAR
STARTCHAR edotaccent
ENCODING 279
SWIDTH 600 0
DWIDTH 12 0
BBX 10 15 1 0
BITMAP
0002CE7000
0009FFF100
000AFFF200
0002CE8000
0000000000
004AEFD810
07FFFFFFC1
4FFD316FF7
AFF4000CFC
DFFFFFFFFE
DFFFFFFFFD
AFF4000000
4FFD411470
07FFFFFFF4
004AEFEB61
ENDCHAR
STARTCHAR Eogonek
ENCODING 280
SWIDTH 600 0
DWIDTH 12 0
BBX 10 18 1 -5
BITMAP
2FFFFFFFF7
2FFFFFFFF7
2FFC000000
2FFC000000
2FFC000000
2FFC000000
2FFFFFFF90
2FFFFFFF90
2FFC000000
2FFC000000
2FFC000000
2FFFFFFFFA
2FFFFFFFFA
0000005F91
000001EE00
000005FE12
000004FFFC
0000008EE9
ENDCHAR
STARTCHAR eogonek
ENCODING 281
SWIDTH 600 0
DWIDTH 12 0
BBX 10 15 1 -5
BITMAP
004AEFD810
07FFFFFFC1
4FFD316FF7
AFF4000CFC
DFFFFFFFFE
DFFFFFFFFD
AFF4000000
4FFD411470
07FFFFFFF3
004AEFFFD3
000003EB10
00000CF100
00000FF320
00000DFFF4
000004DEB3
ENDCHAR
STARTCHAR Ecaron
ENCODING 282
SWIDTH 600 0
DWIDTH 12 0
BBX 10 17 1 0
BITMAP
007C203C60
006FE7EF40
0008FFF700
0000000000
2FFFFFFFF7
2FFFFFFFF7
2FFC000000
2FFC000000
2FFC000000
2FFC000000
2FFFFFFF90
2FFFFFFF90
2FFC000000
2FFC000000
2FFC000000
2FFFFFFFFA
2FFFFFFFFA
ENDCHAR
STARTCHAR ecaron
ENCODING 283
SWIDTH 600 0
DWIDTH 12 0
BBX 10 15 1 0
BITMAP
01B5001B40
03FF83DF90
006FFFFC10
000AFFE200
0000000000
004AEFD810
07FFFFFFC1
4FFD316FF7
AFF4000CFC
DFFFFFFFFE
DFFFFFFFFD
AFF4000000
4FFD411470
07FFFFFFF4
004AEFEB61
ENDCHAR
STARTCHAR Gcircumflex
ENCODING 284
SWIDTH 600 0
DWIDTH 12 0
BBX 11 17 0 0
BITMAP
00006FFF9000
0004FE7EF600
0005C302C800
000000000000
00018CEEC600
003DFFFFFF60
01DFF8118800
08FF90000000
0DFF30000000
1FFF10000000
2FFE009FFFE0
1FFF009FFFE0
0DFF3000BFE0
09FF9000BFE0
02EFF611CFE0
004EFFFFFFC0
00028DFEC600
ENDCHAR
STARTCHAR gcircumflex
ENCODING 285
SWIDTH 600 0
DWIDTH 12 0
BBX 11 19 1 -4
BITMAP
000CFFD10000
008FFFFB0000
04FF64EF7000
01C4002C3000
000000000000
017CEFFFFF50
0BFFFFFFFF50
6FF914FF9000
8FF400DFB000
5FFB36FF9000
0BFFFFFD1000
0AFBCB810000
5FF200000000
4FFFFFFEB500
0BFEFFFFFF30
8F900018FF60
EFC3013CFF30
AFFFFFFFF700
07CEFEC93000
ENDCHAR
STARTCHAR Gbreve
ENCODING 286
SWIDTH 600 0
DWIDTH 12 0
BBX 11 17 0 0
BITMAP
0007E503D900
0004FFFFF700
00006DFD8000
000000000000
00018CEEC600
003DFFFFFF60
01DFF8118800
08FF90000000
0DFF30000000
1FFF10000000
2FFE009FFFE0
1FFF009FFFE0
0DFF3000BFE0
09FF9000BFE0
02EFF611CFE0
004EFFFFFFC0
00028DFEC600
ENDCHAR
STARTCHAR gbreve
ENCODING 287
SWIDTH 600 0
DWIDTH 12 0
BBX 11 19 1 -4
BITMAP
002200120000
03FC21AF5000
00DFFFFE1000
002AEEB30000
000000000000
017CEFFFFF50
0BFFFFFFFF50
6FF914FF9000
8FF400DFB000
5FFB36FF9000
0BFFFFFD1000
0AFBCB810000
5FF200000000
4FFFFFFEB500
0BFEFFFFFF30
8F900018FF60
EFC3013CFF30
AFFFFFFFF700
07CEFEC93000
ENDCHAR
STARTCHAR Gdotaccent
ENCODING 288
SWIDTH 600 0
DWIDTH 12 0
BBX 11 17 0 0
BITMAP
00000AEC1000
00002FFF5000
00000AEC1000
000000000000
00018CEEC600
003DFFFFFF60
01DFF8118800
08FF90000000
0DFF30000000
1FFF10000000
2FFE009FFFE0
1FFF009FFFE0
0DFF3000BFE0
09FF9000BFE0
02EFF611CFE0
004EFFFFFFC0
00028DFEC600
ENDCHAR
STARTCHAR gdotaccent
ENCODING 289
SWIDTH 600 0
DWIDTH 12 0
BBX 11 19 1 -4
BITMAP
0004DE500000
000CFFE00000
000CFFE00000
0004DE600000
000000000000
017CEFFFFF50
0BFFFFFFFF50
6FF914FF9000
8FF400DFB000
5FFB36FF9000
0BFFFFFD1000
0AFBCB810000
5FF200000000
4FFFFFFEB500
0BFEFFFFFF30
8F900018FF60
EFC3013CFF30
AFFFFFFFF700
07CEFEC93000
ENDCHAR
STARTCHAR uni0122
ENCODING 290
SWIDTH 600 0
DWIDTH 12 0
BBX 11 18 0 -5
BITMAP
00018CEEC600
003DFFFFFF60
01DFF8118800
08FF90000000
0DFF30000000
1FFF10000000
2FFE009FFFE0
1FFF009FFFE0
0DFF3000BFE0
09FF9000BFE0
02EFF611CFE0
004EFFFFFFC0
00028DFEC600
000000000000
00000BD80000
000003EF4000
0000BFFF3000
00009DA40000
ENDCHAR
STARTCHAR uni0123
ENCODING 291
SWIDTH 600 0
DWIDTH 12 0
BBX 11 20 1 -4
BITMAP
00006BE30000
0007FFF40000
000CF9200000
000AF8000000
0002AE400000
000000000000
017CEFFFFF50
0BFFFFFFFF50
6FF914FF9000
8FF400DFB000
5FFB36FF9000
0BFFFFFD1000
0AFBCB810000
5FF200000000
4FFFFFFEB500
0BFEFFFFFF30
8F900018FF60
EFC3013CFF30
AFFFFFFFF700
07CEFEC93000
ENDCHAR
STARTCHAR Hcircumflex
ENCODING 292
SWIDTH 600 0
DWIDTH 12 0
BBX 10 17 1 0
BITMAP
002EFFE200
00CFAAFC00
02B7007B20
0000000000
BFF3003FFB
BFF3003FFB
BFF3003FFB
BFF3003FFB
BFF3003FFB
BFF3003FFB
BFFFFFFFFB
BFFFFFFFFB
BFF3003FFB
BFF3003FFB
BFF3003FFB
BFF3003FFB
BFF3003FFB
ENDCHAR
STARTCHAR hcircumflex
ENCODING 293
SWIDTH 600 0
DWIDTH 12 0
BBX 12 18 -1 0
BITMAP
02EFFD100000
1DF9BFB00000
2C6008B10000
000000000000
008FF6000000
008FF6000000
008FF6000000
008FF5000000
008FF46DFD60
008FFDFFFFF3
008FFE518FF9
008FF7003FFB
008FF6002FFC
008FF6002FFC
008FF6002FFC
008FF6002FFC
008FF6002FFC
008FF6002FFC
ENDCHAR
STARTCHAR Hbar
ENCODING 294
SWIDTH 600 0
DWIDTH 12 0
BBX 12 13 0 0
BITMAP
0BFF3003FFB0
0BFF3003FFB0
DFFFFFFFFFFE
EFFFFFFFFFFE
0BFF3003FFB0
0BFF3003FFB0
0BFFFFFFFFB0
0BFFFFFFFFB0
0BFF3003FFB0
0BFF3003FFB0
0BFF3003FFB0
0BFF3003FFB0
0BFF3003FFB0
ENDCHAR
STARTCHAR hbar
ENCODING 295
SWIDTH 600 0
DWIDTH 12 0
BBX 11 14 0 0
BITMAP
08FF60000000
CFFFFFFF0000
DFFFFFFF0000
08FF60000000
08FF46DFD600
08FFCFFFFF30
08FFD419FF90
08FF6003FFB0
08FF6002FFC0
08FF6002FFC0
08FF6002FFC0
08FF6002FFC0
08FF6002FFC0
08FF6002FFC0
ENDCHAR
STARTCHAR Itilde
ENCODING 296
SWIDTH 600 0
DWIDTH 12 0
BBX 10 17 1 0
BITMAP
02BEC52CA0
0AFFFFFFA0
0AC25CEB20
0000000000
8FFFFFFFF8
8FFFFFFFF8
0007FF7000
0007FF7000
0007FF7000
0007FF7000
0007FF7000
0007FF7000
0007FF7000
0007FF7000
0007FF7000
8FFFFFFFF8
8FFFFFFFF8
ENDCHAR
STARTCHAR itilde
ENCODING 297
SWIDTH 600 0
DWIDTH 12 0
BBX 10 15 1 0
BITMAP
0001310000
003EFE55F9
00AFDFFFF6
009C14CEA0
0000000000
6FFFFFF800
6FFFFFF800
00007FF800
00007FF800
00007FF800
00007FF800
00007FF800
00007FF800
00007FF800
00007FF800
ENDCHAR
STARTCHAR Imacron
ENCODING 298
SWIDTH 600 0
DWIDTH 12 0
BBX 10 16 1 0
BITMAP
00FFFFFF00
00FFFFFF00
0000000000
8FFFFFFFF8
8FFFFFFFF8
0007FF7000
0007FF7000
0007FF7000
0007FF7000
0007FF7000
0007FF7000
0007FF7000
0007FF7000
0007FF7000
8FFFFFFFF8
8FFFFFFFF8
ENDCHAR
STARTCHAR imacron
ENCODING 299
SWIDTH 600 0
DWIDTH 12 0
BBX 9 14 1 0
BITMAP
001FFFFFD0
001FFFFFD0
0000000000
0000000000
6FFFFFF800
6FFFFFF800
00007FF800
00007FF800
00007FF800
00007FF800
00007FF800
00007FF800
00007FF800
00007FF800
ENDCHAR
STARTCHAR Ibreve
ENCODING 300
SWIDTH 600 0
DWIDTH 12 0
BBX 10 17 1 0
BITMAP
02DA11AD20
00DFFFFD00
002BEEB200
0000000000
8FFFFFFFF8
8FFFFFFFF8
0007FF7000
0007FF7000
0007FF7000
0007FF7000
0007FF7000
0007FF7000
0007FF7000
0007FF7000
0007FF7000
8FFFFFFFF8
8FFFFFFFF8
ENDCHAR
STARTCHAR ibreve
ENCODING 301
SWIDTH 600 0
DWIDTH 12 0
BBX 10 15 1 0
BITMAP
0002100220
006FA12CF3
001EFFFFC0
0003BEEA20
0000000000
6FFFFFF800
6FFFFFF800
00007FF800
00007FF800
00007FF800
00007FF800
00007FF800
00007FF800
00007FF800
00007FF800
ENDCHAR
STARTCHAR Iogonek
ENCODING 302
SWIDTH 600 0
DWIDTH 12 0
BBX 10 18 1 -5
BITMAP
8FFFFFFFF8
8FFFFFFFF8
0007FF7000
0007FF7000
0007FF7000
0007FF7000
0007FF7000
0007FF7000
0007FF7000
0007FF7000
0007FF7000
8FFFFFFFF8
8FFFFFFFF8
0003EB1000
000CF10000
002FF22000
001FFFE100
0006DEA100
ENDCHAR
STARTCHAR iogonek
ENCODING 303
SWIDTH 600 0
DWIDTH 12 0
BBX 9 20 1 -5
BITMAP
00005ED300
0000EFFB00
0000EFFC00
00006ED400
0000000000
6FFFFFF800
6FFFFFF800
00007FF800
00007FF800
00007FF800
00007FF800
00007FF800
00007FF800
00007FF800
00007FF800
00004E8100
0001EC0000
0004FC1200
0003FFFE10
00007EE910
ENDCHAR
STARTCHAR Idotaccent
ENCODING 304
SWIDTH 600 0
DWIDTH 12 0
BBX 10 17 1 0
BITMAP
0005EE5000
000BFFB000
0005EE5000
0000000000
8FFFFFFFF8
8FFFFFFFF8
0007FF7000
0007FF7000
0007FF7000
0007FF7000
0007FF7000
0007FF7000
0007FF7000
0007FF7000
0007FF7000
8FFFFFFFF8
8FFFFFFFF8
ENDCHAR
STARTCHAR dotlessi
ENCODING 305
SWIDTH 600 0
DWIDTH 12 0
BBX 8 10 1 0
BITMAP
6FFFFFF8
6FFFFFF8
00007FF8
00007FF8
00007FF8
00007FF8
00007FF8
00007FF8
00007FF8
00007FF8
ENDCHAR
STARTCHAR IJ
ENCODING 306
SWIDTH 600 0
DWIDTH 12 0
BBX 10 16 1 -3
BITMAP
8FF7007FF8
8FF7007FF8
8FF7007FF8
8FF7007FF8
8FF7007FF8
8FF7007FF8
8FF7007FF8
8FF7007FF8
8FF7007FF8
8FF7007FF8
8FF7007FF8
8FF7007FF8
8FF7007FF7
000011AFF5
0000AFFFD0
0000CFEB20
ENDCHAR
STARTCHAR ij
ENCODING 307
SWIDTH 600 0
DWIDTH 12 0
BBX 10 18 1 -4
BITMAP
4DE4002DE7
AFFA007FFD
4EE4002DE7
0000000000
7FF7004FFA
7FF7004FFA
7FF7004FFA
7FF7004FFA
7FF7004FFA
7FF7004FFA
7FF7004FFA
7FF7004FFA
7FF7004FFA
7FF7004FFA
0000004FF9
0000018FF7
00004FFFE1
00006EFC40
ENDCHAR
STARTCHAR Jcircumflex
ENCODING 308
SWIDTH 600 0
DWIDTH 12 0
BBX 10 17 1 0
BITMAP
0007FFF800
004FE7EF60
006C302C70
0000000000
0BFFFFFFF5
0BFFFFFFF5
0000009FF5
0000009FF5
0000009FF5
0000009FF5
0000009FF5
0000009FF5
000000AFF4
021000BFF2
2DC315FFE0
7FFFFFFF50
04AEFEA300
ENDCHAR
STARTCHAR jcircumflex
ENCODING 309
SWIDTH 600 0
DWIDTH 12 0
BBX 10 19 1 -4
BITMAP
0001DFFC00
000BFFFF80
007FE46FF4
003C2004B1
0000000000
6FFFFFF800
6FFFFFF800
00007FF800
00007FF800
00007FF800
00007FF800
00007FF800
00007FF800
00007FF800
00007FF700
00008FF500
3302DFF200
BFFFFF9000
9DEEC60000
ENDCHAR
STARTCHAR uni0136
ENCODING 310
SWIDTH 600 0
DWIDTH 12 0
BBX 11 18 1 -5
BITMAP
AFF5002EFE30
AFF500CFF600
AFF508FF9000
AFF54FFC1000
AFF6EFE20000
AFFEFFC00000
AFFFFFF50000
AFFFDFFD0000
AFFE2AFF6000
AFF602FFE100
AFF500AFF800
AFF5002FFE10
AFF50009FF90
000000000000
0000AD800000
00003DF50000
000BFFF30000
0009DB500000
ENDCHAR
STARTCHAR uni0137
ENCODING 311
SWIDTH 600 0
DWIDTH 12 0
BBX 11 19 1 -5
BITMAP
7FF700000000
7FF700000000
7FF700000000
7FF700000000
7FF7004FFD10
7FF703EFE200
7FF72EFE3000
7FF8DFE40000
7FFFFFD10000
7FFFFFF90000
7FFF6BFF4000
7FF902EFD100
7FF7007FFA00
7FF7000CFF50
000000000000
0000BD800000
00003DF50000
000BFFF30000
0009DA500000
ENDCHAR
STARTCHAR kgreenlandic
ENCODING 312
SWIDTH 600 0
DWIDTH 12 0
BBX 11 10 1 0
BITMAP
7FF7004FFD10
7FF704EFE200
7FF73EFE3000
7FF9EFE40000
7FFFFFD10000
7FFFFFF90000
7FFF7CFF4000
7FF902FFE100
7FF7007FFA00
7FF7000CFF50
ENDCHAR
STARTCHAR Lacute
ENCODING 313
SWIDTH 600 0
DWIDTH 12 0
BBX 9 18 2 0
BITMAP
006A000000
1AFF800000
CFF9100000
5C30000000
0000000000
DFF1000000
DFF1000000
DFF1000000
DFF1000000
DFF1000000
DFF1000000
DFF1000000
DFF1000000
DFF1000000
DFF1000000
DFF1000000
DFFFFFFFD0
DFFFFFFFD0
ENDCHAR
STARTCHAR lacute
ENCODING 314
SWIDTH 600 0
DWIDTH 12 0
BBX 10 19 1 0
BITMAP
00001A5000
0003DFE200
004FFE5000
000A810000
0000000000
FFFFFF1000
FFFFFF1000
000DFF1000
000DFF1000
000DFF1000
000DFF1000
000DFF1000
000DFF1000
000DFF1000
000DFF1000
000CFF1000
0009FF8021
0002FFFFF8
00004CFFD8
ENDCHAR
STARTCHAR uni013B
ENCODING 315
SWIDTH 600 0
DWIDTH 12 0
BBX 9 18 2 -5
BITMAP
DFF1000000
DFF1000000
DFF1000000
DFF1000000
DFF1000000
DFF1000000
DFF1000000
DFF1000000
DFF1000000
DFF1000000
DFF1000000
DFFFFFFFD0
DFFFFFFFD0
0000000000
0007D91000
0002BF8000
008FFF6000
006EB60000
ENDCHAR
STARTCHAR uni013C
ENCODING 316
SWIDTH 600 0
DWIDTH 12 0
BBX 10 19 1 -5
BITMAP
FFFFFF1000
FFFFFF1000
000DFF1000
000DFF1000
000DFF1000
000DFF1000
000DFF1000
000DFF1000
000DFF1000
000DFF1000
000CFF1000
0009FF8021
0002FFFFF8
00004CFFD8
0000000000
00000CC600
000004EF30
0000DFFF20
0000BDA300
ENDCHAR
STARTCHAR Lcaron
ENCODING 317
SWIDTH 600 0
DWIDTH 12 0
BBX 9 15 2 0
BITMAP
00000BFD00
00000BFD00
DFF10AFB00
DFF10AF900
DFF10AF700
DFF1000000
DFF1000000
DFF1000000
DFF1000000
DFF1000000
DFF1000000
DFF1000000
DFF1000000
DFFFFFFFD0
DFFFFFFFD0
ENDCHAR
STARTCHAR lcaron
ENCODING 318
SWIDTH 600 0
DWIDTH 12 0
BBX 10 16 1 0
BITMAP
0000000DFB
0000000CFB
FFFFFF1CF9
FFFFFF1CF7
000DFF1BF5
000DFF1000
000DFF1000
000DFF1000
000DFF1000
000DFF1000
000DFF1000
000DFF1000
000CFF1000
0009FF8021
0002FFFFF8
00004CFFD8
ENDCHAR
STARTCHAR Ldot
ENCODING 319
SWIDTH 600 0
DWIDTH 12 0
BBX 10 13 2 0
BITMAP
DFF1000000
DFF1000000
DFF1000000
DFF1000000
DFF100AEA0
DFF105FFF5
DFF106FFF6
DFF101BEB0
DFF1000000
DFF1000000
DFF1000000
DFFFFFFFD0
DFFFFFFFD0
ENDCHAR
STARTCHAR ldot
ENCODING 320
SWIDTH 600 0
DWIDTH 12 0
BBX 13 14 0 0
BITMAP
FFFFFF10000000
FFFFFF10000000
000DFF10000000
000DFF10000000
000DFF10000000
000DFF1003DE50
000DFF100BFFE0
000DFF100CFFE0
000DFF1004DE60
000DFF10000000
000CFF20000000
0009FF81210000
0002FFFFF80000
00004CFFD80000
ENDCHAR
STARTCHAR Lslash
ENCODING 321
SWIDTH 600 0
DWIDTH 12 0
BBX 11 13 0 0
BITMAP
00DFF1000000
00DFF1000000
00DFF1000000
00DFF1016000
00DFF15DF400
00DFFCFFD400
02EFFFE70000
8EFFF9100000
CFFFF1000000
34DFF1000000
00DFF1000000
00DFFFFFFFD0
00DFFFFFFFD0
ENDCHAR
STARTCHAR lslash
ENCODING 322
SWIDTH 600 0
DWIDTH 12 0
BBX 10 14 1 0
BITMAP
FFFFFF1000
FFFFFF1000
000DFF1000
000DFF1250
000DFF8EF2
000DFFFFC3
04DFFFD500
5FFFFF1000
1D8EFF1000
000DFF1000
000CFF1000
0009FF8021
0002FFFFF8
00004CFFD8
ENDCHAR
STARTCHAR Nacute
ENCODING 323
SWIDTH 600 0
DWIDTH 12 0
BBX 10 18 1 0
BITMAP
000003C200
00006FFC00
0008FFC300
0002C60000
0000000000
AFF8002FFA
AFFE102FFA
AFFF602FFA
AFEFC02FFA
AFCDF42FFA
AFE7FA1FFA
AFF2FF2FFA
AFF1AF7EFA
AFF24FDCFA
AFF20CFEFA
AFF206FFFA
AFF201EFFA
AFF2008FFA
ENDCHAR
STARTCHAR nacute
ENCODING 324
SWIDTH 600 0
DWIDTH 12 0
BBX 10 16 1 0
BITMAP
0000009500
000007FF50
00005FFE30
0001EFC200
00005A1000
0000000000
8FE07DFD60
8FFBFFFFF3
8FFF518FF9
8FF7003FFB
8FF6002FFC
8FF6002FFC
8FF6002FFC
8FF6002FFC
8FF6002FFC
8FF6002FFC
ENDCHAR
STARTCHAR uni0145
ENCODING 325
SWIDTH 600 0
DWIDTH 12 0
BBX 10 18 1 -5
BITMAP
AFF8002FFA
AFFE102FFA
AFFF602FFA
AFEFC02FFA
AFCDF42FFA
AFE7FA1FFA
AFF2FF2FFA
AFF1AF7EFA
AFF24FDCFA
AFF20CFEFA
AFF206FFFA
AFF201EFFA
AFF2008FFA
0000000000
0003EB3000
00018FC000
003FFFB000
001EC81000
ENDCHAR
STARTCHAR uni0146
ENCODING 326
SWIDTH 600 0
DWIDTH 12 0
BBX 10 15 1 -5
BITMAP
8FE07DFD60
8FFBFFFFF3
8FFF518FF9
8FF7003FFB
8FF6002FFC
8FF6002FFC
8FF6002FFC
8FF6002FFC
8FF6002FFC
8FF6002FFC
0000000000
0002EC5000
00016FE000
001FFFD000
000ED92000
ENDCHAR
STARTCHAR Ncaron
ENCODING 327
SWIDTH 600 0
DWIDTH 12 0
BBX 10 17 1 0
BITMAP
01AA105C30
009FC8FE20
000CFFF300
0000000000
AFF8002FFA
AFFE102FFA
AFFF602FFA
AFEFC02FFA
AFCDF42FFA
AFE7FA1FFA
AFF2FF2FFA
AFF1AF7EFA
AFF24FDCFA
AFF20CFEFA
AFF206FFFA
AFF201EFFA
AFF2008FFA
ENDCHAR
STARTCHAR ncaron
ENCODING 328
SWIDTH 600 0
DWIDTH 12 0
BBX 10 15 1 0
BITMAP
00A6001B50
02EF93DFA0
005FFFFD10
0009FFF300
0000000000
8FE07DFD60
8FFBFFFFF3
8FFF518FF9
8FF7003FFB
8FF6002FFC
8FF6002FFC
8FF6002FFC
8FF6002FFC
8FF6002FFC
8FF6002FFC
ENDCHAR
STARTCHAR napostrophe
ENCODING 329
SWIDTH 600 0
DWIDTH 12 0
BBX 14 14 -1 0
BITMAP
4DD50000000000
CFFE1000000000
DFFF4000000000
5EFF5000000000
00CF3AFC19EE90
05FC0AFEDFFFF5
7FF40AFFD26FFB
8D400AFF501FFC
10000AFF401FFD
00000AFF401FFD
00000AFF401FFD
00000AFF401FFD
00000AFF401FFD
00000AFF401FFD
ENDCHAR
STARTCHAR Eng
ENCODING 330
SWIDTH 600 0
DWIDTH 12 0
BBX 11 13 1 0
BITMAP
BFF39EEA2000
BFFDFFFFD100
BFFE41BFF700
BFF5004FFC00
BFF4000FFF00
BFF4000EFF10
BFF4000EFF20
BFF4000EFF10
BFF4000FFF00
BFF4001FFD00
BFF4017FF900
BFF41EFFF200
BFF44EFC4000
ENDCHAR
STARTCHAR eng
ENCODING 331
SWIDTH 600 0
DWIDTH 12 0
BBX 10 14 1 -4
BITMAP
8FE07DFD60
8FFBFFFFF3
8FFF519FF9
8FF7003FFB
8FF6002FFC
8FF6002FFC
8FF6002FFC
8FF6002FFC
8FF6002FFC
8FF6002FFC
0000002FFB
0000016FF9
00000EFFF3
00003EFD50
ENDCHAR
STARTCHAR Omacron
ENCODING 332
SWIDTH 600 0
DWIDTH 12 0
BBX 12 16 0 0
BITMAP
000FFFFFF000
000FFFFFF000
000000000000
0005CEEC5000
009FFFFFF900
05FFC22CFF50
0CFF3004FFC0
1FFE0000EFF1
3FFC0000CFF3
3FFC0000CFF3
3FFC0000CFF3
1FFE0000EFF1
0BFF4004FFB0
05FFC22CFF50
009FFFFFF900
0005CEEC5000
ENDCHAR
STARTCHAR omacron
ENCODING 333
SWIDTH 600 0
DWIDTH 12 0
BBX 10 14 1 0
BITMAP
00EFFFFE00
00EFFFFE00
0000000000
0000000000
005BEEB500
0AFFFFFFA0
6FFB22BFF6
DFF3003FFD
FFF0000FFF
FFF0000FFF
DFF3003FFD
6FFB22BFF6
0AFFFFFFA0
006CEEC600
ENDCHAR
STARTCHAR Obreve
ENCODING 334
SWIDTH 600 0
DWIDTH 12 0
BBX 12 17 0 0
BITMAP
002DA11AD200
000DFFFFD000
0002BEEB2000
000000000000
0005CEEC5000
009FFFFFF900
05FFC22CFF50
0CFF3004FFC0
1FFE0000EFF1
3FFC0000CFF3
3FFC0000CFF3
3FFC0000CFF3
1FFE0000EFF1
0BFF4004FFB0
05FFC22CFF50
009FFFFFF900
0005CEEC5000
ENDCHAR
STARTCHAR obreve
ENCODING 335
SWIDTH 600 0
DWIDTH 12 0
BBX 10 15 1 0
BITMAP
0021001200
04FB11BF40
01DFFFFD10
002BEEB200
0000000000
005BEEB500
0AFFFFFFA0
6FFB22BFF6
DFF3003FFD
FFF0000FFF
FFF0000FFF
DFF3003FFD
6FFB22BFF6
0AFFFFFFA0
006CEEC600
ENDCHAR
STARTCHAR Ohungarumlaut
ENCODING 336
SWIDTH 600 0
DWIDTH 12 0
BBX 12 18 0 0
BITMAP
00002C405B20
0000AFB1DF70
0004FD18FA00
0005C208B100
000000000000
0005CEEC5000
009FFFFFF900
05FFC22CFF50
0CFF3004FFC0
1FFE0000EFF1
3FFC0000CFF3
3FFC0000CFF3
3FFC0000CFF3
1FFE0000EFF1
0BFF4004FFB0
05FFC22CFF50
009FFFFFF900
0005CEEC5000
ENDCHAR
STARTCHAR ohungarumlaut
ENCODING 337
SWIDTH 600 0
DWIDTH 12 0
BBX 10 15 1 0
BITMAP
0002C608A3
000AF92FF3
003FD19F80
004C408C00
0000000000
005BEEB500
0AFFFFFFA0
6FFB22BFF6
DFF3003FFD
FFF0000FFF
FFF0000FFF
DFF3003FFD
6FFB22BFF6
0AFFFFFFA0
006CEEC600
ENDCHAR
STARTCHAR OE
ENCODING 338
SWIDTH 600 0
DWIDTH 12 0
BBX 12 13 0 0
BITMAP
0018CEFFFFFB
01DFFFFFFFFB
0BFF62FF8111
2FFC02FF8000
6FF802FF8000
8FF702FF8000
9FF602FFFFE0
8FF702FFFFE0
6FF802FF8000
2FFC02FF8000
0AFF62FF8111
01DFFFFFFFFE
0018DFFFFFFE
ENDCHAR
STARTCHAR oe
ENCODING 339
SWIDTH 600 0
DWIDTH 12 0
BBX 12 10 0 0
BITMAP
019EE609ED40
0CFFFFAFEFE2
5FF65FFA0BF7
9FF00EF407FB
BFE00CFFFFFC
BFE00CFFFFFC
9FF00EF50000
5FF65FFC1030
0CFFFFBFFFF2
01AEE609EEA3
ENDCHAR
STARTCHAR Racute
ENCODING 340
SWIDTH 600 0
DWIDTH 12 0
BBX 11 18 1 0
BITMAP
000005B10000
00008FFA0000
000BFFA20000
0003C4000000
000000000000
9FFFFEDA3000
9FFFFFFFF400
9FF5017FFC00
9FF5000EFF00
9FF5000EFF00
9FF5019FFB00
9FFFFFFFE300
9FFFFFFE2000
9FF50DFF4000
9FF506FFC000
9FF500DFF500
9FF5006FFD00
9FF5000DFF60
ENDCHAR
STARTCHAR racute
ENCODING 341
SWIDTH 600 0
DWIDTH 12 0
BBX 9 16 2 0
BITMAP
000001B200
00000CFD20
0000AFFB10
0005FF9000
0000970000
0000000000
AFC04BEFB0
AFD6FFFF90
AFFFB30110
AFFB000000
AFF4000000
AFF4000000
AFF4000000
AFF4000000
AFF4000000
AFF4000000
ENDCHAR
STARTCHAR uni0156
ENCODING 342
SWIDTH 600 0
DWIDTH 12 0
BBX 11 18 1 -5
BITMAP
9FFFFEDA3000
9FFFFFFFF400
9FF5017FFC00
9FF5000EFF00
9FF5000EFF00
9FF5019FFB00
9FFFFFFFE300
9FFFFFFE2000
9FF50DFF4000
9FF506FFC000
9FF500DFF500
9FF5006FFD00
9FF5000DFF60
000000000000
0000CC700000
00003EF40000
000CFFF20000
000ADA400000
ENDCHAR
STARTCHAR uni0157
ENCODING 343
SWIDTH 600 0
DWIDTH 12 0
BBX 10 15 1 -5
BITMAP
0AFC04BEFB
0AFD6FFFF9
0AFFFB3011
0AFFB00000
0AFF400000
0AFF400000
0AFF400000
0AFF400000
0AFF400000
0AFF400000
0000000000
04EB300000
019FB00000
4FFFA00000
3EC8100000
ENDCHAR
STARTCHAR Rcaron
ENCODING 344
SWIDTH 600 0
DWIDTH 12 0
BBX 11 17 1 0
BITMAP
02B8007B2000
00CFAAFC1000
001DFFE20000
000000000000
9FFFFEDA3000
9FFFFFFFF400
9FF5017FFC00
9FF5000EFF00
9FF5000EFF00
9FF5019FFB00
9FFFFFFFE300
9FFFFFFE2000
9FF50DFF4000
9FF506FFC000
9FF500DFF500
9FF5006FFD00
9FF5000DFF60
ENDCHAR
STARTCHAR rcaron
ENCODING 345
SWIDTH 600 0
DWIDTH 12 0
BBX 9 15 2 0
BITMAP
02C3003C20
06FE55FF50
00AFFFF900
001DFFC100
0000000000
AFC04BEFB0
AFD6FFFF90
AFFFB30110
AFFB000000
AFF4000000
AFF4000000
AFF4000000
AFF4000000
AFF4000000
AFF4000000
ENDCHAR
STARTCHAR Sacute
ENCODING 346
SWIDTH 600 0
DWIDTH 12 0
BBX 10 18 1 0
BITMAP
000002B300
00004EFE10
0005FFD400
0001B70000
0000000000
004BEFDA40
08FFFFFFF5
3FFC203A90
7FF9000000
5FFF710000
1DFFFE9200
02CFFFFF90
0004AFFFF9
000002BFFE
0200001FFF
2ED5116FFA
AFFFFFFFD2
05ADFFD810
ENDCHAR
STARTCHAR sacute
ENCODING 347
SWIDTH 600 0
DWIDTH 12 0
BBX 10 16 1 0
BITMAP
000000A400
000008FF50
00006FFD30
0002FFC100
00006A0000
0000000000
016CEFDA40
0BFFFFFFF4
4FFB114980
3FFE740000
0AFFFFEA40
005BEFFFF5
0100039FFB
3E94105FFA
AFFFFFFFE3
04ADFFD920
ENDCHAR
STARTCHAR Scircumflex
ENCODING 348
SWIDTH 600 0
DWIDTH 12 0
BBX 10 17 1 0
BITMAP
0009FFF600
007FD7FF30
008B103C50
0000000000
004BEFDA40
08FFFFFFF5
3FFC203A90
7FF9000000
5FFF710000
1DFFFE9200
02CFFFFF90
0004AFFFF9
000002BFFE
0200001FFF
2ED5116FFA
AFFFFFFFD2
05ADFFD810
ENDCHAR
STARTCHAR scircumflex
ENCODING 349
SWIDTH 600 0
DWIDTH 12 0
BBX 10 15 1 0
BITMAP
000AFFE200
006FFFFC10
03FF83DF90
01B5001B40
0000000000
016CEFDA40
0BFFFFFFF4
4FFB114980
3FFE740000
0AFFFFEA40
005BEFFFF5
0100039FFB
3E94105FFA
AFFFFFFFE3
04ADFFD920
ENDCHAR
STARTCHAR uni015E
ENCODING 350
SWIDTH 600 0
DWIDTH 12 0
BBX 10 18 1 -5
BITMAP
004BEFDA40
08FFFFFFF5
3FFC203A90
7FF9000000
5FFF710000
1DFFFE9200
02CFFFFF90
0004AFFFF9
000002BFFE
0200001FFF
2ED5116FFA
AFFFFFFFD2
05ADFFD810
0000DC0000
0006FE6000
00017FE000
00017FC000
001ED81000
ENDCHAR
STARTCHAR uni015F
ENCODING 351
SWIDTH 600 0
DWIDTH 12 0
BBX 10 15 1 -5
BITMAP
016CEFDA40
0BFFFFFFF4
4FFB114980
3FFE740000
0AFFFFEA40
005BEFFFF5
0100039FFB
3E94105FFA
AFFFFFFFE3
04ADFFD920
0000BD0000
0004FF8000
00005FF100
00015FD000
000DD92000
ENDCHAR
STARTCHAR Scaron
ENCODING 352
SWIDTH 600 0
DWIDTH 12 0
BBX 10 17 1 0
BITMAP
008B103C50
007FD7FF30
0009FFF600
0000000000
004BEFDA40
08FFFFFFF5
3FFC203A90
7FF9000000
5FFF710000
1DFFFE9200
02CFFFFF90
0004AFFFF9
000002BFFE
0200001FFF
2ED5116FFA
AFFFFFFFD2
05ADFFD810
ENDCHAR
STARTCHAR scaron
ENCODING 353
SWIDTH 600 0
DWIDTH 12 0
BBX 10 15 1 0
BITMAP
01B5001B40
03FF83DF90
006FFFFC10
000AFFE200
0000000000
016CEFDA40
0BFFFFFFF4
4FFB114980
3FFE740000
0AFFFFEA40
005BEFFFF5
0100039FFB
3E94105FFA
AFFFFFFFE3
04ADFFD920
ENDCHAR
STARTCHAR uni0162
ENCODING 354
SWIDTH 600 0
DWIDTH 12 0
BBX 12 18 0 -5
BITMAP
6FFFFFFFFFF6
6FFFFFFFFFF6
00007FF70000
00007FF70000
00007FF70000
00007FF70000
00007FF70000
00007FF70000
00007FF70000
00007FF70000
00007FF70000
00007FF70000
00007FF70000
00001EA00000
00007FE50000
000018FD0000
000018FA0000
0002EC810000
ENDCHAR
STARTCHAR uni0163
ENCODING 355
SWIDTH 600 0
DWIDTH 12 0
BBX 10 18 1 -5
BITMAP
001FF60000
003FF60000
005FF60000
EEFFFFFFF9
FFFFFFFFF9
008FF60000
008FF60000
008FF60000
008FF60000
006FF80000
003FFD3022
000BFFFFFB
00018DFED9
000007F300
00001EFB10
000003DF50
000003DF30
0000ADA400
ENDCHAR
STARTCHAR Tcaron
ENCODING 356
SWIDTH 600 0
DWIDTH 12 0
BBX 12 17 0 0
BITMAP
002B7007B200
001CFAAFC000
0002EFFE2000
000000000000
6FFFFFFFFFF6
6FFFFFFFFFF6
00007FF70000
00007FF70000
00007FF70000
00007FF70000
00007FF70000
00007FF70000
00007FF70000
00007FF70000
00007FF70000
00007FF70000
00007FF70000
ENDCHAR
STARTCHAR tcaron
ENCODING 357
SWIDTH 600 0
DWIDTH 12 0
BBX 10 16 1 0
BITMAP
0000006FF2
0000006FF2
0000006FF1
001FF65FD0
003FF65FB0
005FF60000
EEFFFFFFF9
FFFFFFFFF9
008FF60000
008FF60000
008FF60000
008FF60000
006FF80000
003FFD3022
000BFFFFFB
00018DFED9
ENDCHAR
STARTCHAR Tbar
ENCODING 358
SWIDTH 600 0
DWIDTH 12 0
BBX 12 13 0 0
BITMAP
6FFFFFFFFFF6
6FFFFFFFFFF6
00007FF70000
00007FF70000
00007FF70000
02DFFFFFFF20
02FFFFFFFF20
00007FF70000
00007FF70000
00007FF70000
00007FF70000
00007FF70000
00007FF70000
ENDCHAR
STARTCHAR tbar
ENCODING 359
SWIDTH 600 0
DWIDTH 12 0
BBX 10 13 1 0
BITMAP
001FF60000
003FF60000
005FF60000
EEFFFFFFF9
FFFFFFFFF9
008FF60000
DEFFFFFFF3
FFFFFFFFF3
007FF70000
006FF90000
003FFE4022
000AFFFFFB
00008DFED9
ENDCHAR
STARTCHAR Utilde
ENCODING 360
SWIDTH 600 0
DWIDTH 12 0
BBX 10 17 1 0
BITMAP
02BEC52CA0
0AFFFFFFA0
0AC25CEB20
0000000000
BFF3002FFB
BFF3002FFB
BFF3002FFB
BFF3002FFB
BFF3002FFB
BFF3002FFB
BFF3002FFB
BFF3002FFB
AFF3002FFA
8FF5004FF8
4FFC21BFF4
0AFFFFFFA0
007CEFC700
ENDCHAR
STARTCHAR utilde
ENCODING 361
SWIDTH 600 0
DWIDTH 12 0
BBX 10 15 1 0
BITMAP
0013100000
03EFE54FA0
0AFDFFFF70
09C13CEA10
0000000000
CFF3007FF8
CFF3007FF8
CFF3007FF8
CFF3007FF8
CFF3007FF8
CFF3007FF8
BFF3008FF8
9FF915FFF8
3FFFFFBFF8
06DFD70FF8
ENDCHAR
STARTCHAR Umacron
ENCODING 362
SWIDTH 600 0
DWIDTH 12 0
BBX 10 16 1 0
BITMAP
00FFFFFF00
00FFFFFF00
0000000000
BFF3002FFB
BFF3002FFB
BFF3002FFB
BFF3002FFB
BFF3002FFB
BFF3002FFB
BFF3002FFB
BFF3002FFB
AFF3002FFA
8FF5004FF8
4FFC21BFF4
0AFFFFFFA0
007CEFC700
ENDCHAR
STARTCHAR umacron
ENCODING 363
SWIDTH 600 0
DWIDTH 12 0
BBX 10 14 1 0
BITMAP
00FFFFFD00
00FFFFFD00
0000000000
0000000000
CFF3007FF8
CFF3007FF8
CFF3007FF8
CFF3007FF8
CFF3007FF8
CFF3007FF8
BFF3008FF8
9FF915FFF8
3FFFFFBFF8
06DFD70FF8
ENDCHAR
STARTCHAR Ubreve
ENCODING 364
SWIDTH 600 0
DWIDTH 12 0
BBX 10 17 1 0
BITMAP
02DA11AD20
00DFFFFD00
002BEEB200
0000000000
BFF3002FFB
BFF3002FFB
BFF3002FFB
BFF3002FFB
BFF3002FFB
BFF3002FFB
BFF3002FFB
BFF3002FFB
AFF3002FFA
8FF5004FF8
4FFC21BFF4
0AFFFFFFA0
007CEFC700
ENDCHAR
STARTCHAR ubreve
ENCODING 365
SWIDTH 600 0
DWIDTH 12 0
BBX 10 15 1 0
BITMAP
0021002200
05FA11BF30
01EFFFFD00
003BEEA200
0000000000
CFF3007FF8
CFF3007FF8
CFF3007FF8
CFF3007FF8
CFF3007FF8
CFF3007FF8
BFF3008FF8
9FF915FFF8
3FFFFFBFF8
06DFD70FF8
ENDCHAR
STARTCHAR Uring
ENCODING 366
SWIDTH 600 0
DWIDTH 12 0
BBX 10 18 1 0
BITMAP
0007EE7000
003F66F300
003F66F300
0007EE7000
0000000000
BFF3002FFB
BFF3002FFB
BFF3002FFB
BFF3002FFB
BFF3002FFB
BFF3002FFB
BFF3002FFB
BFF3002FFB
AFF3002FFA
8FF5004FF8
4FFC21BFF4
0AFFFFFFA0
007CEFC700
ENDCHAR
STARTCHAR uring
ENCODING 367
SWIDTH 600 0
DWIDTH 12 0
BBX 10 15 1 0
BITMAP
001AEE9000
009F46F700
009F46F700
001AEE9000
0000000000
CFF3007FF8
CFF3007FF8
CFF3007FF8
CFF3007FF8
CFF3007FF8
CFF3007FF8
BFF3008FF8
9FF915FFF8
3FFFFFBFF8
06DFD70FF8
ENDCHAR
STARTCHAR Uhungarumlaut
ENCODING 368
SWIDTH 600 0
DWIDTH 12 0
BBX 10 18 1 0
BITMAP
0002C405B2
000AFB1DF7
004FD18FA0
005C208B10
0000000000
BFF3002FFB
BFF3002FFB
BFF3002FFB
BFF3002FFB
BFF3002FFB
BFF3002FFB
BFF3002FFB
BFF3002FFB
AFF3002FFA
8FF5004FF8
4FFC21BFF4
0AFFFFFFA0
007CEFC700
ENDCHAR
STARTCHAR uhungarumlaut
ENCODING 369
SWIDTH 600 0
DWIDTH 12 0
BBX 10 15 1 0
BITMAP
0003C609A3
000BF82FF3
004FD1AF70
005D309B00
0000000000
CFF3007FF8
CFF3007FF8
CFF3007FF8
CFF3007FF8
CFF3007FF8
CFF3007FF8
BFF3008FF8
9FF915FFF8
3FFFFFBFF8
06DFD70FF8
ENDCHAR
STARTCHAR Uogonek
ENCODING 370
SWIDTH 600 0
DWIDTH 12 0
BBX 10 18 1 -5
BITMAP
BFF3002FFB
BFF3002FFB
BFF3002FFB
BFF3002FFB
BFF3002FFB
BFF3002FFB
BFF3002FFB
BFF3002FFB
AFF3002FFA
8FF5004FF8
4FFC21BFF3
0AFFFFFF90
007DFFE600
0001ED2000
0009F60000
000CF72000
000BFFF400
0003CEC300
ENDCHAR
STARTCHAR uogonek
ENCODING 371
SWIDTH 600 0
DWIDTH 12 0
BBX 10 15 1 -5
BITMAP
CFF3007FF8
CFF3007FF8
CFF3007FF8
CFF3007FF8
CFF3007FF8
CFF3007FF8
BFF3008FF8
9FF915FFF8
3FFFFFBFF8
06DFD70EF7
0000007E60
000004F800
000009F911
000007FFFA
000001AED6
ENDCHAR
STARTCHAR Wcircumflex
ENCODING 372
SWIDTH 600 0
DWIDTH 12 0
BBX 12 17 0 0
BITMAP
0002EFFE2000
000CFAAFC000
002B7007B200
000000000000
DFF300000FFD
BFF300000FFB
9FF400001FF9
7FF509B22FF7
5FF61FF53FF5
3FF75FF93FF4
1FF89FEC4FF2
0EF8CDDF5FF0
0CF9FBAF9FD0
0AFCF87FCFB0
08FFF55FFF90
06FFF22FFF70
04FFE00EFF60
ENDCHAR
STARTCHAR wcircumflex
ENCODING 373
SWIDTH 600 0
DWIDTH 12 0
BBX 12 15 0 0
BITMAP
0001DFFD1000
000AFFFF9000
006FE55EF600
002C3003C200
000000000000
DFF000000DFD
AFF21AA20FFA
8FF43FF62FF8
5FF66FF83FF6
3FF89DDB5FF4
1FFACCBE7FF1
0DFBEA9FAFE0
0BFEF87FEFC0
08FFF55FFF90
06FFF32FFF70
ENDCHAR
STARTCHAR Ycircumflex
ENCODING 374
SWIDTH 600 0
DWIDTH 12 0
BBX 12 17 0 0
BITMAP
0002EFFE2000
000CFAAFC000
002B7007B200
000000000000
7FFA00009FF7
1EFF2001EFE1
07FF8007FF70
01EFE00DFE10
007FF54FF700
001EFBAFE100
0008FFFF8000
0001EFFE1000
00009FF90000
00007FF70000
00007FF70000
00007FF70000
00007FF70000
ENDCHAR
STARTCHAR ycircumflex
ENCODING 375
SWIDTH 600 0
DWIDTH 12 0
BBX 12 19 0 -4
BITMAP
0000BFFE2000
0007FFFFC000
003FF74EF800
001B4002B300
000000000000
2FFB00008FF3
0AFF2000DFD0
03FF8003FF70
00CFD008FF10
005FF40DFA00
000DF93FF400
0006FE7FE000
0000EFEF8000
00007FFF2000
00002FFB0000
00007FF50000
0013EFD00000
05FFFF300000
07FEB3000000
ENDCHAR
STARTCHAR Ydieresis
ENCODING 376
SWIDTH 600 0
DWIDTH 12 0
BBX 12 17 0 0
BITMAP
004EB11BE400
00AFF33FFA00
004EB01BE400
000000000000
7FFA00009FF7
1EFF2001EFE1
07FF8007FF70
01EFE00DFE10
007FF54FF700
001EFBAFE100
0008FFFF8000
0001EFFE1000
00009FF90000
00007FF70000
00007FF70000
00007FF70000
00007FF70000
ENDCHAR
STARTCHAR Zacute
ENCODING 377
SWIDTH 600 0
DWIDTH 12 0
BBX 10 18 1 0
BITMAP
000002B300
00004EFE10
0005FFD400
0001B70000
0000000000
4FFFFFFFFD
4FFFFFFFFB
000002EFF2
00000BFF70
00005FFC00
0001EFF300
0009FF9000
004FFE1000
00DFF50000
07FFB00000
2FFE200000
BFFFFFFFFE
DFFFFFFFFE
ENDCHAR
STARTCHAR zacute
ENCODING 378
SWIDTH 600 0
DWIDTH 12 0
BBX 10 16 1 0
BITMAP
0000006900
000004FF90
00002EFF60
0000CFE400
00002C2000
0000000000
0FFFFFFFFA
0FFFFFFFF7
00000CFFA0
00009FFD10
0005FFF300
002EFF6000
01DFF90000
0AFFC00000
6FFFFFFFFC
9FFFFFFFFC
ENDCHAR
STARTCHAR Zdotaccent
ENCODING 379
SWIDTH 600 0
DWIDTH 12 0
BBX 10 17 1 0
BITMAP
0001CEA000
0006FFF200
0001CEA000
0000000000
4FFFFFFFFD
4FFFFFFFFB
000002EFF2
00000BFF70
00005FFC00
0001EFF300
0009FF9000
004FFE1000
00DFF50000
07FFB00000
2FFE200000
BFFFFFFFFE
DFFFFFFFFE
ENDCHAR
STARTCHAR zdotaccent
ENCODING 380
SWIDTH 600 0
DWIDTH 12 0
BBX 10 15 1 0
BITMAP
0000AEB100
0004FFF600
0005FFF600
0000AEB100
0000000000
0FFFFFFFFA
0FFFFFFFF7
00000CFFA0
00009FFD10
0005FFF300
002EFF6000
01DFF90000
0AFFC00000
6FFFFFFFFC
9FFFFFFFFC
ENDCHAR
STARTCHAR Zcaron
ENCODING 381
SWIDTH 600 0
DWIDTH 12 0
BBX 10 17 1 0
BITMAP
008B103C50
007FD7FF30
0009FFF600
0000000000
4FFFFFFFFD
4FFFFFFFFB
000002EFF2
00000BFF70
00005FFC00
0001EFF300
0009FF9000
004FFE1000
00DFF50000
07FFB00000
2FFE200000
BFFFFFFFFE
DFFFFFFFFE
ENDCHAR
STARTCHAR zcaron
ENCODING 382
SWIDTH 600 0
DWIDTH 12 0
BBX 10 15 1 0
BITMAP
0079000890
00CFC2AFD1
002EFFFF30
0005FFF700
0000000000
0FFFFFFFFA
0FFFFFFFF7
00000CFFA0
00009FFD10
0005FFF300
002EFF6000
01DFF90000
0AFFC00000
6FFFFFFFFC
9FFFFFFFFC
ENDCHAR
STARTCHAR longs
ENCODING 383
SWIDTH 600 0
DWIDTH 12 0
BBX 11 14 1 0
BITMAP
000029DFEC60
0001EFFFFF60
0008FFA11310
000AFF400000
5EFFFF300000
5FFFFF300000
000BFF300000
000BFF300000
000BFF300000
000BFF300000
000BFF300000
000BFF300000
000BFF300000
000BFF300000
ENDCHAR
STARTCHAR uni0180
ENCODING 384
SWIDTH 600 0
DWIDTH 12 0
BBX 12 14 0 0
BITMAP
08FF60000000
CFFFFFFF0000
DFFFFFFF0000
08FF50000000
08FF59EEB300
08FFFFFFFE20
08FFD31AFFA0
08FF6002FFE0
08FF6000FFF1
08FF6000FFF0
08FF6003FFD0
08FFD32BFF70
08FFEFFFFC00
08FC2AEE8100
ENDCHAR
STARTCHAR uni018A
ENCODING 394
SWIDTH 600 0
DWIDTH 12 0
BBX 12 13 0 0
BITMAP
017CEFEB6000
2DFFFFFFFC10
9FD7FF76FFB0
DF64FF609FF3
DF54FF604FF7
BFC5FF602FF8
4FE5FF602FF9
0564FF602FF8
0004FF604FF6
0004FF608FF3
0004FF74EFB0
0004FFFFFD20
0004FFFD8100
ENDCHAR
STARTCHAR uni018F
ENCODING 399
SWIDTH 600 0
DWIDTH 12 0
BBX 11 13 1 0
BITMAP
018DFEB50000
07FFFFFF8000
00A513DFF400
0000004FFB00
0000000EFF00
0000000CFF20
FFFFFFFFFF30
EFFFFFFFFF20
DFF0000DFE00
9FF3002FFA00
3FFC21BFF400
07FFFFFF8000
004BEEC50000
ENDCHAR
STARTCHAR uni0192
ENCODING 402
SWIDTH 600 0
DWIDTH 12 0
BBX 10 15 1 -2
BITMAP
000005CEFB
00005FFFFA
0000CFF411
0001FFB000
0003FF9000
04EFFFFFC0
04FFFFFFC0
0009FF3000
000AFF1000
000CFF0000
000EFD0000
002FFA0000
119FF60000
CFFFD00000
DFEA200000
ENDCHAR
STARTCHAR uni0193
ENCODING 403
SWIDTH 600 0
DWIDTH 12 0
BBX 13 16 0 0
BITMAP
000000004CFD10
00000002EFFC00
00000005FF4100
00018CEFFF4000
003DFFFFFF6000
01DFF811870000
08FF9000000000
0DFF3000000000
1FFF1000000000
2FFE009FFFE000
1FFF009FFFE000
0DFF3000BFE000
09FF9000BFE000
02EFF611CFE000
004EFFFFFFC000
00028DFEC60000
ENDCHAR
STARTCHAR Ohorn
ENCODING 416
SWIDTH 600 0
DWIDTH 12 0
BBX 12 16 0 0
BITMAP
0000000005B8
000000000AFD
000000000AFB
0005CEEB9FD3
009FFFFFFD00
05FFC22CFF70
0CFF3004FFD0
1FFE0000EFF1
3FFC0000CFF3
3FFC0000CFF3
3FFC0000CFF2
1FFE0000EFF0
0BFF4004FFB0
05FFC22CFF40
009FFFFFF800
0005CEEC5000
ENDCHAR
STARTCHAR ohorn
ENCODING 417
SWIDTH 600 0
DWIDTH 12 0
BBX 11 14 1 0
BITMAP
000000003A70
00000000BFC0
000000009FC0
00000000DF70
005BEEBCF900
0AFFFFFFC000
6FFB22BFF700
DFF3003FFD00
FFF0000FFF00
FFF0000FFF00
DFF3003FFC00
6FFB22BFF600
0AFFFFFF9000
006CEEB50000
ENDCHAR
STARTCHAR Uhorn
ENCODING 431
SWIDTH 600 0
DWIDTH 12 0
BBX 13 17 1 0
BITMAP
00000000018B00
0000000006FF20
0000000005FF20
0000000019FD00
BFF3002FFFB200
BFF3002FFB0000
BFF3002FFB0000
BFF3002FFB0000
BFF3002FFB0000
BFF3002FFB0000
BFF3002FFB0000
BFF3002FFB0000
AFF3002FFA0000
8FF5004FF80000
4FFC21BFF40000
0AFFFFFFA00000
007CEFC7000000
ENDCHAR
STARTCHAR uhorn
ENCODING 432
SWIDTH 600 0
DWIDTH 12 0
BBX 12 14 1 0
BITMAP
0000000016C2
000000002FF5
000000001FF6
000000018FF2
CFF3007FFE50
CFF3007FF800
CFF3007FF800
CFF3007FF800
CFF3007FF800
CFF3007FF800
BFF3008FF800
9FF915FFF800
3FFFFFBFF800
06DFD70FF800
ENDCHAR
STARTCHAR uni01C2
ENCODING 450
SWIDTH 600 0
DWIDTH 12 0
BBX 10 18 1 -4
BITMAP
0007FF7000
0007FF7000
0007FF7000
0007FF7000
0007FF7000
0007FF7000
9EEFFFFFFA
AFFFFFFFFA
0007FF7000
0007FF7000
9EEFFFFFFA
AFFFFFFFFA
0007FF7000
0007FF7000
0007FF7000
0007FF7000
0007FF7000
0007FF7000
ENDCHAR
STARTCHAR uni01CD
ENCODING 461
SWIDTH 600 0
DWIDTH 12 0
BBX 12 17 0 0
BITMAP
002B7007B200
001CFAAFC000
0002EFFE2000
000000000000
0000EFFE0000
0004FFFF3000
0008FDEF8000
000DF9BFD000
003FF68FF200
007FF24FF700
00CFE01FFC00
02FFA00CFF20
06FFFFFFFF60
0BFFFFFFFFB0
1FFD0000EFF1
5FF90000AFF5
AFF500006FFA
ENDCHAR
STARTCHAR uni01CE
ENCODING 462
SWIDTH 600 0
DWIDTH 12 0
BBX 10 15 1 0
BITMAP
0097000970
01DFA2CFC0
004FFFFE20
0007FFF400
0000000000
039CEFD810
3FFFFFFFC0
088313DFF6
0000005FF9
0059CDFFFA
2DFFFFFFFB
AFFA414FFB
BFF403AFFB
6FFFFFEFFB
07DFD81CFB
ENDCHAR
STARTCHAR uni01CF
ENCODING 463
SWIDTH 600 0
DWIDTH 12 0
BBX 10 17 1 0
BITMAP
02B7007B20
01CFAAFC00
002EFFE200
0000000000
8FFFFFFFF8
8FFFFFFFF8
0007FF7000
0007FF7000
0007FF7000
0007FF7000
0007FF7000
0007FF7000
0007FF7000
0007FF7000
0007FF7000
8FFFFFFFF8
8FFFFFFFF8
ENDCHAR
STARTCHAR uni01D0
ENCODING 464
SWIDTH 600 0
DWIDTH 12 0
BBX 10 15 1 0
BITMAP
003C2004B1
007FE46FF4
000BFFFF80
0001DFFC00
0000000000
6FFFFFF800
6FFFFFF800
00007FF800
00007FF800
00007FF800
00007FF800
00007FF800
00007FF800
00007FF800
00007FF800
ENDCHAR
STARTCHAR uni01D1
ENCODING 465
SWIDTH 600 0
DWIDTH 12 0
BBX 12 17 0 0
BITMAP
002B7007B200
001CFAAFC000
0002EFFE2000
000000000000
0005CEEC5000
009FFFFFF900
05FFC22CFF50
0CFF3004FFC0
1FFE0000EFF1
3FFC0000CFF3
3FFC0000CFF3
3FFC0000CFF3
1FFE0000EFF1
0BFF4004FFB0
05FFC22CFF50
009FFFFFF900
0005CEEC5000
ENDCHAR
STARTCHAR uni01D2
ENCODING 466
SWIDTH 600 0
DWIDTH 12 0
BBX 10 15 1 0
BITMAP
02C3003C20
06FE55EF60
00AFFFF900
001DFFD100
0000000000
005BEEB500
0AFFFFFFA0
6FFB22BFF6
DFF3003FFD
FFF0000FFF
FFF0000FFF
DFF3003FFD
6FFB22BFF6
0AFFFFFFA0
006CEEC600
ENDCHAR
STARTCHAR uni01D3
ENCODING 467
SWIDTH 600 0
DWIDTH 12 0
BBX 10 17 1 0
BITMAP
02B7007B20
01CFAAFC00
002EFFE200
0000000000
BFF3002FFB
BFF3002FFB
BFF3002FFB
BFF3002FFB
BFF3002FFB
BFF3002FFB
BFF3002FFB
BFF3002FFB
AFF3002FFA
8FF5004FF8
4FFC21BFF4
0AFFFFFFA0
007CEFC700
ENDCHAR
STARTCHAR uni01D4
ENCODING 468
SWIDTH 600 0
DWIDTH 12 0
BBX 10 15 1 0
BITMAP
03C2003C20
06FE56FF50
00AFFFF900
001DFFC000
0000000000
CFF3007FF8
CFF3007FF8
CFF3007FF8
CFF3007FF8
CFF3007FF8
CFF3007FF8
BFF3008FF8
9FF915FFF8
3FFFFFBFF8
06DFD70FF8
ENDCHAR
STARTCHAR uni01D5
ENCODING 469
SWIDTH 600 0
DWIDTH 12 0
BBX 10 18 1 0
BITMAP
00FFFFFF00
0000000000
04EB00BE30
03EB00BE30
0000000000
BFF3002FFB
BFF3002FFB
BFF3002FFB
BFF3002FFB
BFF3002FFB
BFF3002FFB
BFF3002FFB
BFF3002FFB
AFF3002FFA
8FF5004FF8
4FFC21BFF4
0AFFFFFFA0
007CEFC700
ENDCHAR
STARTCHAR uni01D6
ENCODING 470
SWIDTH 600 0
DWIDTH 12 0
BBX 10 16 1 0
BITMAP
00FFFFFD00
0000000000
04EB00CE20
04EB00CE30
0000000000
0000000000
CFF3007FF8
CFF3007FF8
CFF3007FF8
CFF3007FF8
CFF3007FF8
CFF3007FF8
BFF3008FF8
9FF915FFF8
3FFFFFBFF8
06DFD70FF8
ENDCHAR
STARTCHAR uni01D7
ENCODING 471
SWIDTH 600 0
DWIDTH 12 0
BBX 10 20 1 0
BITMAP
0000078000
00002FF500
0000BF8000
0000890000
04EB00BE30
03EB00BE30
0000000000
BFF3002FFB
BFF3002FFB
BFF3002FFB
BFF3002FFB
BFF3002FFB
BFF3002FFB
BFF3002FFB
BFF3002FFB
AFF3002FFA
8FF5004FF8
4FFC21BFF4
0AFFFFFFA0
007CEFC700
ENDCHAR
STARTCHAR uni01D8
ENCODING 472
SWIDTH 600 0
DWIDTH 12 0
BBX 10 17 1 0
BITMAP
00000B6000
00007F8000
0000A80000
04EB00CE20
04EB00CE30
0000000000
0000000000
CFF3007FF8
CFF3007FF8
CFF3007FF8
CFF3007FF8
CFF3007FF8
CFF3007FF8
BFF3008FF8
9FF915FFF8
3FFFFFBFF8
06DFD70FF8
ENDCHAR
STARTCHAR uni01D9
ENCODING 473
SWIDTH 600 0
DWIDTH 12 0
BBX 10 20 1 0
BITMAP
009A00A900
008FCCF800
000AFFA000
0000000000
04EB00BE30
03EB00BE30
0000000000
BFF3002FFB
BFF3002FFB
BFF3002FFB
BFF3002FFB
BFF3002FFB
BFF3002FFB
BFF3002FFB
BFF3002FFB
AFF3002FFA
8FF5004FF8
4FFC21BFF4
0AFFFFFFA0
007CEFC700
ENDCHAR
STARTCHAR uni01DA
ENCODING 474
SWIDTH 600 0
DWIDTH 12 0
BBX 10 18 1 0
BITMAP
009801A700
009FCDF700
000AFF8000
0000000000
04EB00CE20
04EB00CE30
0000000000
0000000000
CFF3007FF8
CFF3007FF8
CFF3007FF8
CFF3007FF8
CFF3007FF8
CFF3007FF8
BFF3008FF8
9FF915FFF8
3FFFFFBFF8
06DFD70FF8
ENDCHAR
STARTCHAR uni01DB
ENCODING 475
SWIDTH 600 0
DWIDTH 12 0
BBX 10 20 1 0
BITMAP
0008700000
005FF20000
0008FB0000
0000980000
04EB00BE30
03EB00BE30
0000000000
BFF3002FFB
BFF3002FFB
BFF3002FFB
BFF3002FFB
BFF3002FFB
BFF3002FFB
BFF3002FFB
BFF3002FFB
AFF3002FFA
8FF5004FF8
4FFC21BFF4
0AFFFFFFA0
007CEFC700
ENDCHAR
STARTCHAR uni01DC
ENCODING 476
SWIDTH 600 0
DWIDTH 12 0
BBX 10 17 1 0
BITMAP
0007A00000
000AF50000
0000A80000
04EB00CE20
04EB00CE30
0000000000
0000000000
CFF3007FF8
CFF3007FF8
CFF3007FF8
CFF3007FF8
CFF3007FF8
CFF3007FF8
BFF3008FF8
9FF915FFF8
3FFFFFBFF8
06DFD70FF8
ENDCHAR
STARTCHAR uni01E2
ENCODING 482
SWIDTH 600 0
DWIDTH 12 0
BBX 12 16 0 0
BITMAP
00003FFFFFC0
00003FFFFFC0
000000000000
0000DFFFFFFB
0003FFFFFFFB
0008FFDFC000
000DFCCFC000
003FF8CFC000
008FF4CFC000
00DFE0CFFFF3
03FFA0CFFFF3
08FFFFFFC000
0DFFFFFFC000
3FFB00CFC000
8FF600CFFFFE
DFF200CFFFFE
ENDCHAR
STARTCHAR uni01E3
ENCODING 483
SWIDTH 600 0
DWIDTH 12 0
BBX 12 14 0 0
BITMAP
000BFFFFF200
000BFFFFF200
000000000000
000000000000
17CFD62BFD40
2EFFFFDFFFE2
05416FF90BF7
005AEFF307FB
0AFFFFFFFFFC
6FFA4FFFFFFC
AFF10FF40000
9FF24FFC2250
5FFFFDEFFFF3
07EE913BEEA2
ENDCHAR
STARTCHAR Gcaron
ENCODING 486
SWIDTH 600 0
DWIDTH 12 0
BBX 11 17 0 0
BITMAP
0005C302B700
0004FE7EF600
00006FFF9000
000000000000
00018CEEC600
003DFFFFFF60
01DFF8118800
08FF90000000
0DFF30000000
1FFF10000000
2FFE009FFFE0
1FFF009FFFE0
0DFF3000BFE0
09FF9000BFE0
02EFF611CFE0
004EFFFFFFC0
00028DFEC600
ENDCHAR
STARTCHAR gcaron
ENCODING 487
SWIDTH 600 0
DWIDTH 12 0
BBX 11 19 1 -4
BITMAP
01C4002C3000
04FF64EF7000
008FFFFB0000
000CFFD10000
000000000000
017CEFFFFF50
0BFFFFFFFF50
6FF914FF9000
8FF400DFB000
5FFB36FF9000
0BFFFFFD1000
0AFBCB810000
5FF200000000
4FFFFFFEB500
0BFEFFFFFF30
8F900018FF60
EFC3013CFF30
AFFFFFFFF700
07CEFEC93000
ENDCHAR
STARTCHAR uni01EA
ENCODING 490
SWIDTH 600 0
DWIDTH 12 0
BBX 12 18 0 -5
BITMAP
0005BEEB5000
009FFFFFF800
05FFC22CFF40
0BFF3004FFB0
1FFE0000EFF1
3FFC0000CFF3
3FFC0000CFF3
3FFC0000CFF3
1FFE0000EFF1
0BFF3004FFB0
04FFC22CFF40
008FFFFFF700
0005CFFD4000
00001DC10000
00009F500000
0000DF720000
0000BFFF4000
00003CEC3000
ENDCHAR
STARTCHAR uni01EB
ENCODING 491
SWIDTH 600 0
DWIDTH 12 0
BBX 10 15 1 -5
BITMAP
005CEEB500
0AFFFFFFA0
6FFB22BFF6
DFF3003FFC
FFF0000FFF
FFF0000FFF
DFF3003FFC
6FFB22BFF6
0AFFFFFF90
006CFFD400
0002EB0000
0009F30000
000DF51100
000BFFF600
0003CEC400
ENDCHAR
STARTCHAR uni01F4
ENCODING 500
SWIDTH 600 0
DWIDTH 12 0
BBX 11 18 0 0
BITMAP
0000001A6000
000002DFF400
00003EFE6000
000009910000
000000000000
00018CEEC600
003DFFFFFF60
01DFF8118800
08FF90000000
0DFF30000000
1FFF10000000
2FFE009FFFE0
1FFF009FFFE0
0DFF3000BFE0
09FF9000BFE0
02EFF611CFE0
004EFFFFFFC0
00028DFEC600
ENDCHAR
STARTCHAR uni01F5
ENCODING 501
SWIDTH 600 0
DWIDTH 12 0
BBX 11 20 1 -4
BITMAP
000001B30000
00000AFE3000
00008FFC1000
0004FFA10000
000088000000
000000000000
017CEFFFFF50
0BFFFFFFFF50
6FF914FF9000
8FF400DFB000
5FFB36FF9000
0BFFFFFD1000
0AFBCB810000
5FF200000000
4FFFFFFEB500
0BFEFFFFFF30
8F900018FF60
EFC3013CFF30
AFFFFFFFF700
07CEFEC93000
ENDCHAR
STARTCHAR uni01F8
ENCODING 504
SWIDTH 600 0
DWIDTH 12 0
BBX 10 18 1 0
BITMAP
0009700000
006FFB1000
0018FFD100
00002B6000
0000000000
AFF8002FFA
AFFE102FFA
AFFF602FFA
AFEFC02FFA
AFCDF42FFA
AFE7FA1FFA
AFF2FF2FFA
AFF1AF7EFA
AFF24FDCFA
AFF20CFEFA
AFF206FFFA
AFF201EFFA
AFF2008FFA
ENDCHAR
STARTCHAR uni01F9
ENCODING 505
SWIDTH 600 0
DWIDTH 12 0
BBX 10 16 1 0
BITMAP
000A400000
00BFE20000
008FFD1000
0006FF9000
00004B1000
0000000000
8FE07DFD60
8FFBFFFFF3
8FFF518FF9
8FF7003FFB
8FF6002FFC
8FF6002FFC
8FF6002FFC
8FF6002FFC
8FF6002FFC
8FF6002FFC
ENDCHAR
STARTCHAR Aringacute
ENCODING 506
SWIDTH 600 0
DWIDTH 12 0
BBX 12 21 0 0
BITMAP
000000010000
0000005D1000
000006FE5000
00007FF70000
0002F99F3000
0003F66F3000
00008EE70000
000000000000
0000EFFE0000
0004FFFF3000
0008FCEF8000
000DF9BFD000
003FF57FF200
007FF24FF700
00CFE01FFC00
02FFA00CFF20
06FFFFFFFF60
0BFFFFFFFFB0
1FFD0000EFF1
5FF90000AFF5
AFF500006FFA
ENDCHAR
STARTCHAR aringacute
ENCODING 507
SWIDTH 600 0
DWIDTH 12 0
BBX 10 18 1 0
BITMAP
0000001000
000003D500
00006FE600
0008FFE500
002FB2EE00
002FB1DE00
0006DFC400
0000000000
039CEFD810
3FFFFFFFC0
0883119FF6
0038BDFFF9
0AFFFFFFFA
7FFD524FFB
BFF2004FFB
AFF504DFFB
4FFFFFFFFB
05CFD81CFB
ENDCHAR
STARTCHAR AEacute
ENCODING 508
SWIDTH 600 0
DWIDTH 12 0
BBX 12 18 0 0
BITMAP
000000007900
0000001BFF70
000001DFF810
0000006B2000
000000000000
0000DFFFFFFB
0003FFFFFFFB
0008FFDFC000
000DFCCFC000
003FF8CFC000
008FF4CFC000
00DFE0CFFFF3
03FFA0CFFFF3
08FFFFFFC000
0DFFFFFFC000
3FFB00CFC000
8FF600CFFFFE
DFF200CFFFFE
ENDCHAR
STARTCHAR aeacute
ENCODING 509
SWIDTH 600 0
DWIDTH 12 0
BBX 12 16 0 0
BITMAP
0000000A4000
0000009FF400
000007FFD200
00002FFB1000
000006A00000
000000000000
17CFD62BFD40
2EFFFFDFFFE2
05416FF90BF7
005AEFF307FB
0AFFFFFFFFFC
6FFA4FFFFFFC
AFF10FF40000
9FF24FFC2250
5FFFFDEFFFF3
07EE913BEEA2
ENDCHAR
STARTCHAR Oslashacute
ENCODING 510
SWIDTH 600 0
DWIDTH 12 0
BBX 12 19 0 -1
BITMAP
0000005B1000
000009FF9000
0000BFFA1000
00004C400000
000000000250
0005CEEC5CF5
009FFFFFFFC0
05FFC23EFF60
0CFF301EFFC0
1FFE00BFFFF1
3FFC07FDDFF3
3FFC3FF3CFF3
3FFDDF60CFF3
1FFFFA00EFF1
0BFFD104FFB0
05FFE32CFF50
0CFFFFFFF900
6FC5BEEC5000
052000000000
ENDCHAR
STARTCHAR oslashacute
ENCODING 511
SWIDTH 600 0
DWIDTH 12 0
BBX 10 17 1 -1
BITMAP
000001B200
00000BFD20
0000AFFB10
0005FF9000
0000970000
0000000020
005BEEB6E7
0AFFFFFFF2
6FFC23FFF6
DFF30AFFFD
FFF08F6FFF
FFF6F80FFF
DFFFA03FFD
6FFF32BFF6
2FFFFFFFA0
7E6CEEC600
0200000000
ENDCHAR
STARTCHAR uni0218
ENCODING 536
SWIDTH 600 0
DWIDTH 12 0
BBX 10 18 1 -5
BITMAP
004BEFDA40
08FFFFFFF5
3FFC203A90
7FF9000000
5FFF710000
1DFFFE9200
02CFFFFF90
0004AFFFF9
000002BFFE
0200001FFF
2ED5116FFA
AFFFFFFFD2
05ADFFD810
0000000000
0002EB4000
00017FE000
002FFFC000
000ED92000
ENDCHAR
STARTCHAR uni0219
ENCODING 537
SWIDTH 600 0
DWIDTH 12 0
BBX 10 15 1 -5
BITMAP
016CEFDA40
0BFFFFFFF4
4FFB114980
3FFE740000
0AFFFFEA40
005BEFFFF5
0100039FFB
3E94105FFA
AFFFFFFFE3
04ADFFD920
0000000000
0002EC5000
00016FE000
001FFFD000
000ED92000
ENDCHAR
STARTCHAR uni021A
ENCODING 538
SWIDTH 600 0
DWIDTH 12 0
BBX 12 18 0 -5
BITMAP
6FFFFFFFFFF6
6FFFFFFFFFF6
00007FF70000
00007FF70000
00007FF70000
00007FF70000
00007FF70000
00007FF70000
00007FF70000
00007FF70000
00007FF70000
00007FF70000
00007FF70000
000000000000
00003EB30000
000018FC0000
0003FFFB0000
0001EC810000
ENDCHAR
STARTCHAR uni021B
ENCODING 539
SWIDTH 600 0
DWIDTH 12 0
BBX 10 18 1 -5
BITMAP
001FF60000
003FF60000
005FF60000
EEFFFFFFF9
FFFFFFFFF9
008FF60000
008FF60000
008FF60000
008FF60000
006FF80000
003FFD3022
000BFFFFFB
00018DFED9
0000000000
00000CC700
000004EF30
0000DFFF20
0000BDA400
ENDCHAR
STARTCHAR uni0237
ENCODING 567
SWIDTH 600 0
DWIDTH 12 0
BBX 8 14 1 -4
BITMAP
6FFFFFF8
6FFFFFF8
00007FF8
00007FF8
00007FF8
00007FF8
00007FF8
00007FF8
00007FF8
00007FF7
00008FF5
3302DFF2
BFFFFF90
9DEEC600
ENDCHAR
STARTCHAR uni0243
ENCODING 579
SWIDTH 600 0
DWIDTH 12 0
BBX 12 13 0 0
BITMAP
05FFFFED9200
05FFFFFFFE30
05FF9019FF80
05FF9004FF90
05FF901AFF30
05FFFFFFD400
05FFFFFFFC30
05FF9015FFD0
BFFFFFB0BFF3
CFFFFFB0BFF3
05FF9016FFE1
05FFFFFFFF60
05FFFFFDA300
ENDCHAR
STARTCHAR uni0250
ENCODING 592
SWIDTH 600 0
DWIDTH 12 0
BBX 10 10 1 0
BITMAP
8FE07CFD80
8FFDFFFFF8
8FFF612FFD
8FF7138FFC
8FFFFFFFD3
8FFFECA610
7FF7000000
4FFE4028A0
0BFFFFFFF5
007CFED940
ENDCHAR
STARTCHAR uni0251
ENCODING 593
SWIDTH 600 0
DWIDTH 12 0
BBX 10 10 1 0
BITMAP
019EFB3DF8
1CFFFFEFF8
8FFC22DFF8
DFF3006FF8
FFF0006FF8
FFF0006FF8
EFF2006FF8
9FFA13DFF8
1EFFFFEFF8
02AEEA2EF8
ENDCHAR
STARTCHAR uni0252
ENCODING 594
SWIDTH 600 0
DWIDTH 12 0
BBX 11 10 1 0
BITMAP
8FE19EEB3000
8FFEFFFFE200
8FFD31AFFA00
8FF6002FFE00
8FF6000FFF10
8FF6000FFF00
8FF6003FFD00
8FFD32CFF700
8FFEFFFFC000
8FD2BEE81000
ENDCHAR
STARTCHAR uni0253
ENCODING 595
SWIDTH 600 0
DWIDTH 12 0
BBX 10 14 1 0
BITMAP
018DFEB000
0BFFFFB000
4FFC212000
7FF6000000
8FF69EEB20
8FFFFFFFE2
8FFD31AFF9
8FF6002FFD
8FF6000FFF
8FF6001FFE
8FF6003FFC
8FFD32CFF7
8FFEFFFFC0
8FC2AEE810
ENDCHAR
STARTCHAR uni0254
ENCODING 596
SWIDTH 600 0
DWIDTH 12 0
BBX 10 10 1 0
BITMAP
28CEFD8200
7FFFFFFE40
085129FFE1
000000BFF6
0000007FF9
0000007FF9
000000BFF6
2B4029FFE1
BFFFFFFE40
18CEFD8200
ENDCHAR
STARTCHAR uni0255
ENCODING 597
SWIDTH 600 0
DWIDTH 12 0
BBX 11 12 1 -2
BITMAP
0018CEFD8100
03EFFFFFF800
1EFF72149000
6FF800000000
9FF418DEB200
9FF7DFFFFD00
6FFFFC24FF10
0DFFF616FF10
07FFFFFFF800
0DFDCEEC6000
4FF500000000
05C100000000
ENDCHAR
STARTCHAR uni0256
ENCODING 598
SWIDTH 600 0
DWIDTH 12 0
BBX 12 18 1 -4
BITMAP
0000007FF700
0000007FF700
0000007FF700
0000007FF700
019EEA7FF700
1CFFFFFFF700
8FFB13DFF700
DFF3007FF700
FFF0007FF700
FFF0007FF700
EFF2007FF700
9FFA13DFF700
2EFFFFFFF700
02AEE96FF700
0000005FF700
0000003FFA10
0000000CFFF1
00000002BFE4
ENDCHAR
STARTCHAR uni0257
ENCODING 599
SWIDTH 600 0
DWIDTH 12 0
BBX 12 14 1 0
BITMAP
00000003BEF4
0000001EFFF1
0000005FFA00
0000006FF600
019EEA7FF600
1CFFFFFFF600
8FFB13DFF600
DFF3008FF600
FFF0008FF600
FFF0008FF600
EFF2008FF600
9FFA13EFF600
2EFFFFEFF600
02AEE92FF600
ENDCHAR
STARTCHAR uni0258
ENCODING 600
SWIDTH 600 0
DWIDTH 12 0
BBX 10 10 1 0
BITMAP
007CEEB400
0BFFFFFF80
6FF613DFF4
CFC0004FFA
EFFFFFFFFD
DFFFFFFFFD
0000004FFA
074114DFF4
4FFFFFFF70
16BEFEA300
ENDCHAR
STARTCHAR uni0259
ENCODING 601
SWIDTH 600 0
DWIDTH 12 0
BBX 10 10 1 0
BITMAP
04ADFEB400
1EFFFFFF80
055213CFF4
0000003FFA
DFFFFFFFFD
DFFFFFFFFD
CFD0003FFA
7FF712CFF4
0BFFFFFF80
007DFEB400
ENDCHAR
STARTCHAR uni025A
ENCODING 602
SWIDTH 600 0
DWIDTH 12 0
BBX 13 10 0 0
BITMAP
18DEEA20000000
2FFFFFE2461000
06316FFFFF7000
00017FFFCFA100
018EFFFF3CFF20
9FFFAAFF33DD30
CFB209FF100000
8FD22EFB000000
1EFFFFE3000000
02AEEB30000000
ENDCHAR
STARTCHAR uni025B
ENCODING 603
SWIDTH 600 0
DWIDTH 12 0
BBX 10 10 1 0
BITMAP
007CEFEC71
0BFFFFFFF7
2FFE301490
1EFD300000
03CFFFF100
1AFFFFF100
7FF8100000
8FFA2015B2
2EFFFFFFFA
028CEFEC81
ENDCHAR
STARTCHAR uni025C
ENCODING 604
SWIDTH 600 0
DWIDTH 12 0
BBX 10 10 1 0
BITMAP
17BEFEC810
9FFFFFFFD1
1B5202AFF5
000001AFF3
004FFFFE60
004FFFFFC2
0000005FFA
4C52017FFB
CFFFFFFFF4
17CEFEC820
ENDCHAR
STARTCHAR uni025E
ENCODING 606
SWIDTH 600 0
DWIDTH 12 0
BBX 10 10 1 0
BITMAP
005BEFD920
0AFFFFFFE2
6FFC318FF7
DFF2018FF5
FFE03FFE70
FFD03FFFD3
DFF1004FFC
7FFB204FFD
0BFFFFFFF6
006BEFDA40
ENDCHAR
STARTCHAR uni025F
ENCODING 607
SWIDTH 600 0
DWIDTH 12 0
BBX 11 14 1 -4
BITMAP
6FFFFFF80000
6FFFFFF80000
00007FF80000
00007FF80000
0CEEFFFFFF20
0EFFFFFFFF20
00007FF80000
00007FF80000
00007FF80000
00007FF70000
00008FF50000
3302DFF20000
BFFFFF900000
9DEEC6000000
ENDCHAR
STARTCHAR uni0260
ENCODING 608
SWIDTH 600 0
DWIDTH 12 0
BBX 12 17 1 -4
BITMAP
00000002AEF4
0000000DFFF1
0000004FFA10
018DEA7FF700
0BFFFFFFF700
7FFB13DFF700
CFF3007FF700
FFF0007FF700
FFF0007FF700
DFF3007FF700
7FFC35EFF700
0CFFFFFFF700
018CC87FF700
0000008FF600
066204EFF200
2FFFFFFF8000
16BDFEB50000
ENDCHAR
STARTCHAR uni0261
ENCODING 609
SWIDTH 600 0
DWIDTH 12 0
BBX 10 14 1 -4
BITMAP
018EFB3DF8
0CFFFFEFF8
7FFC23DFF8
DFF3006FF8
FFF0006FF8
FFF0006FF8
DFF2006FF8
8FFB13CFF8
1DFFFFFFF8
02AEEB6FF8
0000005FF7
076203DFF3
2FFFFFFF90
17CEFEB500
ENDCHAR
STARTCHAR uni0262
ENCODING 610
SWIDTH 600 0
DWIDTH 12 0
BBX 10 10 1 0
BITMAP
0018DFEC71
03EFFFFFF5
1EFF711580
7FF9000000
AFF50BFFFA
AFF50BFFFA
8FF9000DFA
2FFF612EFA
06FFFFFFF8
003ADFEB60
ENDCHAR
STARTCHAR uni0263
ENCODING 611
SWIDTH 600 0
DWIDTH 12 0
BBX 12 14 0 -4
BITMAP
2FFB00009FF2
0BFF2001EFB0
04FF8005FF50
00DFD00BFD00
006FF42FF700
001EF97FF100
0008FECFA000
0002FFFF3000
0002FFFF4000
000AFDCFC000
001FF64FF300
001FF75FF300
000BFFFFD000
0001AEEB2000
ENDCHAR
STARTCHAR uni0264
ENCODING 612
SWIDTH 600 0
DWIDTH 12 0
BBX 12 10 0 0
BITMAP
3DFE9119EFD3
0DFFFDDFFFD0
0116FFFF6110
000AFFFFA000
006FFCCFF600
00DFF22FFD00
00FFC00CFF00
00DFE22EFD00
006FFFFFF600
0004BEEB4000
ENDCHAR
STARTCHAR uni0265
ENCODING 613
SWIDTH 600 0
DWIDTH 12 0
BBX 10 14 1 -4
BITMAP
CFF2006FF8
CFF2006FF8
CFF2006FF8
CFF2006FF8
CFF2006FF8
CFF2006FF8
BFF3007FF8
9FF815EFF8
3FFFFFDFF8
06DFD74FF8
0000005FF8
0000006FF8
0000006FF8
0000006FF8
ENDCHAR
STARTCHAR uni0266
ENCODING 614
SWIDTH 600 0
DWIDTH 12 0
BBX 10 14 1 0
BITMAP
018DFEB000
0BFFFFB000
4FFC212000
7FF6000000
8FF46DFD60
8FFCFFFFF3
8FFF519FF9
8FF7003FFB
8FF6002FFC
8FF6002FFC
8FF6002FFC
8FF6002FFC
8FF6002FFC
8FF6002FFC
ENDCHAR
STARTCHAR uni0267
ENCODING 615
SWIDTH 600 0
DWIDTH 12 0
BBX 10 18 1 -4
BITMAP
018DFEB000
0BFFFFB000
4FFC212000
7FF6000000
8FF46DFD60
8FFCFFFFF3
8FFF519FF9
8FF7003FFB
8FF6002FFC
8FF6002FFC
8FF6002FFC
8FF6002FFC
8FF6002FFC
8FF6002FFC
0000003FFB
0000017FF8
00003FFFF2
00006EFC40
ENDCHAR
STARTCHAR uni0268
ENCODING 616
SWIDTH 600 0
DWIDTH 12 0
BBX 11 15 1 0
BITMAP
00005ED30000
0000EFFB0000
0000EFFC0000
00006ED40000
000000000000
6FFFFFF80000
6FFFFFF80000
00007FF80000
00007FF80000
09EEFFFFFF20
0BFFFFFFFF20
00007FF80000
00007FF80000
00007FF80000
00007FF80000
ENDCHAR
STARTCHAR uni026A
ENCODING 618
SWIDTH 600 0
DWIDTH 12 0
BBX 10 10 1 0
BITMAP
6FFFFFFFF6
6FFFFFFFF6
0007FF7000
0007FF7000
0007FF7000
0007FF7000
0007FF7000
0007FF7000
6FFFFFFFF6
6FFFFFFFF6
ENDCHAR
STARTCHAR uni026B
ENCODING 619
SWIDTH 600 0
DWIDTH 12 0
BBX 10 14 1 0
BITMAP
FFFFFF1000
FFFFFF1000
000DFF1000
000DFF1000
000DFF1000
013EFF1000
5FFFFF2DB0
CFDFFFFFD0
7A0EFFFD40
000DFF1000
000CFF1000
0009FF8021
0002FFFFF8
00004CFFD8
ENDCHAR
STARTCHAR uni026C
ENCODING 620
SWIDTH 600 0
DWIDTH 12 0
BBX 11 14 0 0
BITMAP
0FFFFFF10000
0FFFFFF10000
0000DFF10000
05EDEFF10000
1EFFFFF10000
2F92EFF10000
0DFFFFFFFA00
03BEFFFFFA00
0000DFF10000
0000DFF10000
0000CFF20000
00009FF91210
00002FFFFF80
000004CFFD80
ENDCHAR
STARTCHAR uni026D
ENCODING 621
SWIDTH 600 0
DWIDTH 12 0
BBX 10 18 1 -4
BITMAP
FFFFFF1000
FFFFFF1000
000DFF1000
000DFF1000
000DFF1000
000DFF1000
000DFF1000
000DFF1000
000DFF1000
000DFF1000
000DFF1000
000DFF1000
000DFF1000
000DFF1000
000CFF1000
0009FF8021
0002FFFFF8
00004CFFD8
ENDCHAR
STARTCHAR uni026E
ENCODING 622
SWIDTH 600 0
DWIDTH 12 0
BBX 12 18 0 -4
BITMAP
3FFC00000000
3FFC00000000
3FFC00000000
3FFC00000000
3FFFFFFFFFF8
3FFFFFFFFFF7
3FFC0005FFE1
3FFC001EFF40
3FFC00AFF900
3FFC05FFD100
3FFC0DFFFB40
3FFC08FFFFF4
3FFC00118FFC
3FFC00000FFE
000000001FFD
0001C611AFF8
0008FFFFFFD1
00006BEFD810
ENDCHAR
STARTCHAR uni026F
ENCODING 623
SWIDTH 600 0
DWIDTH 12 0
BBX 12 10 0 0
BITMAP
7FF54FF18FF4
7FF54FF18FF4
7FF54FF18FF4
7FF54FF18FF4
7FF54FF18FF4
7FF54FF18FF4
7FF54FF18FF4
6FF7AFF3DFF4
3FFFDFFFDFF4
08ED37EC2FF4
ENDCHAR
STARTCHAR uni0270
ENCODING 624
SWIDTH 600 0
DWIDTH 12 0
BBX 12 14 0 -4
BITMAP
7FF54FF18FF4
7FF54FF18FF4
7FF54FF18FF4
7FF54FF18FF4
7FF54FF18FF4
7FF54FF18FF4
7FF54FF18FF4
6FF79FF3CFF4
3FFFFFFFFFF4
07ED49FD8FF4
000000007FF4
000000007FF4
000000007FF4
000000007FF4
ENDCHAR
STARTCHAR uni0271
ENCODING 625
SWIDTH 600 0
DWIDTH 12 0
BBX 12 14 0 -4
BITMAP
4FF2CE73CE70
4FFDFFFDFFF3
4FFD3FFA6FF6
4FF81FF45FF7
4FF81FF45FF7
4FF81FF45FF7
4FF81FF45FF7
4FF81FF45FF7
4FF81FF45FF7
4FF81FF45FF7
000000005FF7
000000007FF5
0000000AFFE1
0000000DFD40
ENDCHAR
STARTCHAR uni0272
ENCODING 626
SWIDTH 600 0
DWIDTH 12 0
BBX 12 14 -1 -4
BITMAP
005FF25CFD60
005FFBFFFFF3
005FFF718FF9
005FFA003FFB
005FF9002FFC
005FF9002FFC
005FF9002FFC
005FF9002FFC
005FF9002FFC
005FF9002FFC
006FF8000000
018FF6000000
0EFFE1000000
3EFC30000000
ENDCHAR
STARTCHAR uni0273
ENCODING 627
SWIDTH 600 0
DWIDTH 12 0
BBX 12 14 1 -4
BITMAP
8FE07DFC4000
8FFBFFFFE100
8FFF51BFF600
8FF7006FF800
8FF6005FF900
8FF6005FF900
8FF6005FF900
8FF6005FF900
8FF6005FF900
8FF6005FF900
0000004FF900
0000002FFC10
0000000BFFF3
00000001AEE6
ENDCHAR
STARTCHAR uni0274
ENCODING 628
SWIDTH 600 0
DWIDTH 12 0
BBX 10 10 1 0
BITMAP
8FF8004FF8
8FFF204FF8
8FFFB03FF8
8FFEF63FF8
8FF9FE3FF8
8FF3EF9FF8
8FF36FEFF8
8FF30BFFF8
8FF402FFF8
8FF4008FF8
ENDCHAR
STARTCHAR uni0275
ENCODING 629
SWIDTH 600 0
DWIDTH 12 0
BBX 10 10 1 0
BITMAP
006CEEC600
0AFFFFFFA0
7FF9119FF7
DFE0000EFD
FFFFFFFFFF
FFFFFFFFFF
DFD0000DFD
7FF9119FF7
0AFFFFFFA0
006CEEC600
ENDCHAR
STARTCHAR uni0276
ENCODING 630
SWIDTH 600 0
DWIDTH 12 0
BBX 12 10 0 0
BITMAP
005CFFFFFFFA
07FFFFFFFFFA
2FFE33FF8000
7FF902FF8000
9FF702FFFFF1
9FF602FFFFF1
7FF902FF8000
2FFE33FF8000
07FFFFFFFFFD
005CFFFFFFFD
ENDCHAR
STARTCHAR uni0278
ENCODING 632
SWIDTH 600 0
DWIDTH 12 0
BBX 12 18 0 -4
BITMAP
00004FF40000
00004FF40000
00004FF40000
00004FF40000
003BEFFEB300
04FFFFFFFF40
0EFC5FF5CFD0
5FF44FF45FF4
7FF24FF42FF7
7FF24FF42FF7
5FF44FF45FF4
1EFC5FF5CFE0
04FFFFFFFF40
003BEFFEB300
00004FF40000
00004FF40000
00004FF40000
00004FF30000
ENDCHAR
STARTCHAR uni0279
ENCODING 633
SWIDTH 600 0
DWIDTH 12 0
BBX 9 10 1 0
BITMAP
000004FFA0
000004FFA0
000004FFA0
000004FFA0
000004FFA0
000005FFA0
00000CFFA0
1103BEFFA0
9FFFF5DFA0
BFEA30CFA0
ENDCHAR
STARTCHAR uni027A
ENCODING 634
SWIDTH 600 0
DWIDTH 12 0
BBX 9 14 1 0
BITMAP
000004FFA0
000004FFA0
000004FFA0
000004FFA0
000004FFA0
000004FFA0
000004FFA0
000004FFA0
000004FFA0
000005FFA0
00000CFFA0
1103BEFFA0
9FFFF5DFA0
BFEA30CFA0
ENDCHAR
STARTCHAR uni027B
ENCODING 635
SWIDTH 600 0
DWIDTH 12 0
BBX 11 14 1 -4
BITMAP
00004FFB0000
00004FFB0000
00004FFB0000
00004FFB0000
00004FFB0000
00004FFB0000
00009FFB0000
1118FFFB0000
9FFF9EFB0000
BFD70EFB0000
00000DFB0000
00000BFD1100
000006FFFD00
0000007EFD10
ENDCHAR
STARTCHAR uni027D
ENCODING 637
SWIDTH 600 0
DWIDTH 12 0
BBX 9 14 2 -4
BITMAP
AFC03AEFB0
AFD4FFFF90
AFFEC40110
AFFC100000
AFF5000000
AFF4000000
AFF4000000
AFF4000000
AFF4000000
AFF4000000
9FF6000000
6FFC202200
1DFFFFF800
019DFEC700
ENDCHAR
STARTCHAR uni027E
ENCODING 638
SWIDTH 600 0
DWIDTH 12 0
BBX 9 10 2 0
BITMAP
003AEFFEA0
06FFFFFF90
2FFF820220
8FFA000000
AFF5000000
AFF4000000
AFF4000000
AFF4000000
AFF4000000
AFF4000000
ENDCHAR
STARTCHAR uni0280
ENCODING 640
SWIDTH 600 0
DWIDTH 12 0
BBX 11 10 1 0
BITMAP
8FFFFFDA2000
8FFFFFFFE200
8FF601AFF800
8FF6005FF900
8FF601AFF700
8FFFFFFFD100
8FFFFFFD1000
8FF60CFF6000
8FF602EFE300
8FF6005FFD10
ENDCHAR
STARTCHAR uni0281
ENCODING 641
SWIDTH 600 0
DWIDTH 12 0
BBX 11 10 0 0
BITMAP
1DFF5006FF80
03FFE206FF80
006FFC06FF80
001DFFFFFF80
01DFFFFFFF80
07FFA106FF80
09FF5006FF80
08FF9106FF80
02EFFFFFFF80
003ADFFFFF80
ENDCHAR
STARTCHAR uni0282
ENCODING 642
SWIDTH 600 0
DWIDTH 12 0
BBX 10 14 1 -4
BITMAP
016CEFDA40
0BFFFFFFF4
4FFB114980
3FFE740000
0AFFFFEA40
005BEFFFF5
0100039FFB
3E94105FFA
CFFFFFFFE3
EFDDFFD920
DFA0000000
BFE1100000
6FFFA00000
08EFC00000
ENDCHAR
STARTCHAR uni0283
ENCODING 643
SWIDTH 600 0
DWIDTH 12 0
BBX 11 18 1 -4
BITMAP
000018DFEB10
0000BFFFFC00
0003FFC21200
0005FF800000
0007FF800000
0007FF800000
0007FF800000
0007FF800000
0007FF800000
0007FF800000
0007FF800000
0007FF800000
0007FF800000
0007FF700000
0007FF600000
221BFF400000
BFFFFC000000
AEFEA1000000
ENDCHAR
STARTCHAR uni0284
ENCODING 644
SWIDTH 600 0
DWIDTH 12 0
BBX 11 18 1 -4
BITMAP
000019DFEB10
0000BFFFFC00
0003FFC21200
0006FF800000
0007FF800000
0007FF800000
0007FF800000
0007FF800000
5DEFFFFFF800
6FFFFFFFF800
0007FF800000
0007FF800000
0007FF800000
0007FF800000
0007FF700000
221BFF400000
BFFFFD000000
AEFEA2000000
ENDCHAR
STARTCHAR uni0287
ENCODING 647
SWIDTH 600 0
DWIDTH 12 0
BBX 10 13 1 -3
BITMAP
9DEFD81000
BFFFFFB000
2203DFF300
00008FF600
00006FF800
00006FF800
00006FF800
00006FF800
9FFFFFFFFF
9FFFFFFFEE
00006FF500
00006FF300
00006FF100
ENDCHAR
STARTCHAR uni0288
ENCODING 648
SWIDTH 600 0
DWIDTH 12 0
BBX 10 17 1 -4
BITMAP
001FF60000
003FF60000
005FF60000
EEFFFFFFF9
FFFFFFFFF9
008FF60000
008FF60000
008FF60000
008FF60000
008FF60000
008FF60000
008FF60000
007FF60000
006FF80000
003FFD3022
000BFFFFFB
00018DFED9
ENDCHAR
STARTCHAR uni0289
ENCODING 649
SWIDTH 600 0
DWIDTH 12 0
BBX 13 10 -1 0
BITMAP
009FF500AFF400
009FF500AFF400
009FF500AFF400
3EFFFFFFFFFFF0
3FFFFFFFFFFFF0
009FF500AFF400
008FF600AFF400
007FFA15EFF400
002FFFFFDFF400
0005CFD83FF400
ENDCHAR
STARTCHAR uni028A
ENCODING 650
SWIDTH 600 0
DWIDTH 12 0
BBX 12 11 0 0
BITMAP
000000144441
3FFFF33FFFF3
3FFFF23FFFF3
00CFA00CFE51
07FF3004FF70
0DFF0000FFC0
0EFF0000FFE0
0DFF2002FFD0
08FFB22BFF80
00BFFFFFFB00
0006CEEC6000
ENDCHAR
STARTCHAR uni028B
ENCODING 651
SWIDTH 600 0
DWIDTH 12 0
BBX 10 10 1 0
BITMAP
CFF30BFD60
CFF309FFF6
CFF3005FFD
CFF3000FFF
CFF3000FFF
BFF3001FFE
AFF5004FFA
5FFC22CFF4
0BFFFFFF90
007CFEC600
ENDCHAR
STARTCHAR uni028C
ENCODING 652
SWIDTH 600 0
DWIDTH 12 0
BBX 12 10 0 0
BITMAP
0000EFFC0000
0004FFFF3000
000AFCEF9000
001EF8AFE000
006FF36FF500
00BFE01FFA00
02FF900BFF10
07FF4006FF70
0CFE0001FFC0
3FF90000BFF3
ENDCHAR
STARTCHAR uni028D
ENCODING 653
SWIDTH 600 0
DWIDTH 12 0
BBX 12 10 0 0
BITMAP
07FFF23FFF60
0AFFF55FFF80
0CFEF78FEFB0
0EFAF9AEBFD0
1FF7EBCCAFF1
4FF5BDD98FF3
6FF38FF66FF5
8FF16FF34FF8
AFF02AA12FFA
DFD000000FFD
ENDCHAR
STARTCHAR uni028E
ENCODING 654
SWIDTH 600 0
DWIDTH 12 0
BBX 12 14 0 0
BITMAP
0000002ADF80
000002EFFF50
00000BFF4100
00003FF90000
0000AFF30000
0001FFF50000
0007FFFC0000
000CF9EF5000
003FF3AFC000
009FE05FF400
01EF900EFB00
06FF3008FF30
0CFD0002FFA0
3FF80000BFF2
ENDCHAR
STARTCHAR uni028F
ENCODING 655
SWIDTH 600 0
DWIDTH 12 0
BBX 12 10 0 0
BITMAP
2EFE1000DFF2
08FF8006FF80
01EFE10DFE10
006FF65FF600
000CFCBFD000
0004FFFF5000
0000BFFB0000
00007FF80000
00007FF80000
00007FF80000
ENDCHAR
STARTCHAR uni0290
ENCODING 656
SWIDTH 600 0
DWIDTH 12 0
BBX 12 14 1 -4
BITMAP
0FFFFFFFFA00
0FFFFFFFF600
00000CFFA000
00009FFD1000
0005FFE30000
003EFF600000
01DFF9000000
0AFFC0000000
6FFFFFFFFB00
9FFFFFFFFB00
0000003FFB00
0000001FFD10
0000000AFFF5
000000019EF8
ENDCHAR
STARTCHAR uni0291
ENCODING 657
SWIDTH 600 0
DWIDTH 12 0
BBX 11 13 1 -3
BITMAP
0FFFFFFFD000
0FFFFFFF8000
00003FFC0000
0001DFF30000
0009FF700000
005FFC08EC30
01EFE26FFFA0
0BFF60EB3EB0
6FFFFEFFFF60
9FFFFFFFD600
00000E800000
00003F500000
000002100000
ENDCHAR
STARTCHAR uni0292
ENCODING 658
SWIDTH 600 0
DWIDTH 12 0
BBX 10 14 1 -4
BITMAP
4FFFFFFFF3
4FFFFFFFD1
00001CFD20
0001CFE200
001CFE3000
01CFFFD800
00DFFFFFB0
002214EFF5
0000007FFA
0000005FFA
0200008FF7
4F8215EFE2
AFFFFFFF50
05BEFEA300
ENDCHAR
STARTCHAR uni0294
ENCODING 660
SWIDTH 600 0
DWIDTH 12 0
BBX 10 14 1 0
BITMAP
05BEFEA400
AFFFFFFF70
4F8214EFF3
0200008FF7
0000008FF7
000002EFF4
00004DFFB0
0008FFFC10
000EFF9000
000EFF1000
000EFF1000
000EFF1000
000EFF1000
000EFF1000
ENDCHAR
STARTCHAR uni0295
ENCODING 661
SWIDTH 600 0
DWIDTH 12 0
BBX 10 14 1 0
BITMAP
005BEFEA50
09FFFFFFF9
4FFE4129F3
8FF7000020
8FF7000000
5FFD100000
0CFFD30000
01CFFF7000
001AFFD000
0001FFD000
0001FFD000
0001FFD000
0001FFD000
0001FFD000
ENDCHAR
STARTCHAR uni0298
ENCODING 664
SWIDTH 600 0
DWIDTH 12 0
BBX 12 14 0 0
BITMAP
0004BEEB4000
006FFFFFF600
02FFC22CFF20
08FF3003FF80
0CFD0000DFC0
0FFB0660BFF0
1FFA5FF5AFF1
1FFA4FF4AFF1
0FFB0330BFF0
0CFD0000DFC0
08FF3002FF80
02EFC22CFE20
006FFFFFF600
0004BEEB4000
ENDCHAR
STARTCHAR uni0299
ENCODING 665
SWIDTH 600 0
DWIDTH 12 0
BBX 10 10 2 0
BITMAP
CFFFFEC800
CFFFFFFFB0
CFF102EFF0
CFF102EFD0
CFFFFFFC30
CFFFFFFF90
CFF101AFF5
CFF101AFF6
CFFFFFFFE1
CFFFFED920
ENDCHAR
STARTCHAR uni029C
ENCODING 668
SWIDTH 600 0
DWIDTH 12 0
BBX 10 10 1 0
BITMAP
8FF6006FF8
8FF6006FF8
8FF6006FF8
8FF6006FF8
8FFFFFFFF8
8FFFFFFFF8
8FF6006FF8
8FF6006FF8
8FF6006FF8
8FF6006FF8
ENDCHAR
STARTCHAR uni029D
ENCODING 669
SWIDTH 600 0
DWIDTH 12 0
BBX 11 20 0 -5
BITMAP
000005ED3000
00000EFFB000
00000EFFC000
000006ED4000
000000000000
06FFFFFF8000
06FFFFFF8000
000007FF8000
000007FF8000
000007FF8000
000007FF8000
000007FF8000
000007FF8000
000007FF8000
05CEEDFF8000
4FFFFFFF7000
6FD12DFFD100
2EFFFFFFFA00
03BEFD66FF40
00000000C710
ENDCHAR
STARTCHAR uni029E
ENCODING 670
SWIDTH 600 0
DWIDTH 12 0
BBX 11 14 0 -4
BITMAP
2EFD1007FF70
06FF8007FF70
00BFF309FF70
002EFC7FFF70
0006FFFFFF70
0000CFFFFF70
0005FFD8FF70
005FFD27FF70
04FFE307FF70
4EFE3007FF70
00000007FF70
00000007FF70
00000007FF70
00000007FF70
ENDCHAR
STARTCHAR uni029F
ENCODING 671
SWIDTH 600 0
DWIDTH 12 0
BBX 9 10 2 0
BITMAP
9FF5000000
9FF5000000
9FF5000000
9FF5000000
9FF5000000
9FF5000000
9FF5000000
9FF5000000
9FFFFFFFB0
9FFFFFFFB0
ENDCHAR
STARTCHAR uni02A1
ENCODING 673
SWIDTH 600 0
DWIDTH 12 0
BBX 10 14 1 0
BITMAP
05AEFDB500
AFFFFFFFA0
4F9204DFF5
0200007FF8
000000AFF5
000006FFC0
0001AFFB10
CFFFFFFFFC
EFFFFFFFFC
000EFF1000
000EFF1000
000EFF1000
000EFF1000
000EFF1000
ENDCHAR
STARTCHAR uni02A2
ENCODING 674
SWIDTH 600 0
DWIDTH 12 0
BBX 10 14 1 0
BITMAP
006BEFDA40
0BFFFFFFF9
5FFD302AF4
8FF6000020
6FF9000000
0CFF500000
01CFF91000
BFFFFFFFFD
DFFFFFFFFD
0001FFD000
0001FFD000
0001FFD000
0001FFD000
0001FFD000
ENDCHAR
STARTCHAR uni02A4
ENCODING 676
SWIDTH 600 0
DWIDTH 12 0
BBX 14 18 -1 -4
BITMAP
000008FC000000
000008FC000000
000008FC000000
000007FC000000
007ED9FFFFFFE0
04FFFFFFFFFFC0
0BFD2BFC01EF60
0FF808FC07FD00
1FF708FC1EF700
1FF708FC7FE100
0FF808FCCFFB10
0CFD1CFC7FFFC0
05FFFFFC019FF3
007ED4CA004FF5
00000000004FF4
0000000151AFF1
0000000AFFFF80
00000006CEE700
ENDCHAR
STARTCHAR uni02A6
ENCODING 678
SWIDTH 600 0
DWIDTH 12 0
BBX 12 13 0 0
BITMAP
01CC50000000
03FF70000000
05FF70000000
CFFFFFFFFEB3
DFFFFFFFFFF7
08FF73FF9150
08FF70CFE500
08FF702DFF90
08FF7001AFF6
07FF80000DFB
03FFE4114EFB
00AFFFFFFFF5
0006BEFFDA40
ENDCHAR
STARTCHAR uni02A7
ENCODING 679
SWIDTH 600 0
DWIDTH 12 0
BBX 13 18 0 -4
BITMAP
0000000008DFC0
01FF60008FFFA0
03FF6000EFF210
05FF6001FFD000
CFFFFFFFFFD000
DFFFFFFFFFD000
08FF6001FFD000
08FF6001FFD000
08FF6001FFD000
08FF6001FFD000
07FF7001FFD000
05FFB111FFD000
01EFFFA1FFD000
003CFEA1FFD000
00000002FFC000
00000015FF9000
000000EFFF3000
000002EFD40000
ENDCHAR
STARTCHAR h.sups
ENCODING 688
SWIDTH 600 0
DWIDTH 12 0
BBX 7 10 3 7
BITMAP
67100000
DF300000
DF300000
DF6DE700
DFFFFF20
DF71DF50
DF30BF60
DF30BF60
DF30BF60
DF30AF60
ENDCHAR
STARTCHAR j.sups
ENCODING 690
SWIDTH 600 0
DWIDTH 12 0
BBX 6 12 2 5
BITMAP
0007EA
0007FB
000000
0DFFFB
0DFFFB
0005FB
0005FB
0005FB
0005FB
0208FA
1EFFF6
2CFE70
ENDCHAR
STARTCHAR r.sups
ENCODING 691
SWIDTH 600 0
DWIDTH 12 0
BBX 6 7 4 7
BITMAP
BF1AFC
BFBFF9
BFE401
BF7000
BF5000
BF5000
AE5000
ENDCHAR
STARTCHAR w.sups
ENCODING 695
SWIDTH 600 0
DWIDTH 12 0
BBX 11 7 0 7
BITMAP
2FE04FA06F70
0DF28FE09F40
0AF5BCF3DF00
06F7E8F7FC00
03FCF4ECF800
00EFF1BFF500
00BFD08FF200
ENDCHAR
STARTCHAR y.sups
ENCODING 696
SWIDTH 600 0
DWIDTH 12 0
BBX 8 9 2 5
BITMAP
3FC00BF3
0CF21FD0
05F85F80
00DC9F20
007FDC00
001EF700
003FF100
09FF9000
0BEA1000
ENDCHAR
STARTCHAR uni02B9
ENCODING 697
SWIDTH 600 0
DWIDTH 12 0
BBX 4 7 4 7
BITMAP
0FFD
1FFB
2FF8
3FF5
4FF2
5FD0
6FA0
ENDCHAR
STARTCHAR uni02BB
ENCODING 699
SWIDTH 600 0
DWIDTH 12 0
BBX 5 9 3 6
BITMAP
000010
004D90
04EF70
0CF500
2FD000
4FFE50
3FFFD0
1EFFC0
05DE40
ENDCHAR
STARTCHAR uni02BC
ENCODING 700
SWIDTH 600 0
DWIDTH 12 0
BBX 5 9 4 5
BITMAP
4ED400
DFFE00
DFFF30
5EFF40
00DF20
06FC00
8FE300
9D3000
100000
ENDCHAR
STARTCHAR uni02BE
ENCODING 702
SWIDTH 600 0
DWIDTH 12 0
BBX 5 6 4 11
BITMAP
8EB300
8FFE10
02DF50
02DF50
8FFE10
8EB300
ENDCHAR
STARTCHAR uni02BF
ENCODING 703
SWIDTH 600 0
DWIDTH 12 0
BBX 5 6 3 11
BITMAP
03BE80
1EFF80
5FD200
5FD200
1EFF80
03BE80
ENDCHAR
STARTCHAR uni02C1
ENCODING 705
SWIDTH 600 0
DWIDTH 12 0
BBX 7 8 3 9
BITMAP
07DFC300
8FFFFE10
FF515700
FF100000
AFA00000
1CFC2000
00DF4000
00CF4000
ENDCHAR
STARTCHAR circumflex
ENCODING 710
SWIDTH 600 0
DWIDTH 12 0
BBX 8 4 2 11
BITMAP
01DFFD10
0AFFFF90
6FE55EF6
2C3003C2
ENDCHAR
STARTCHAR caron
ENCODING 711
SWIDTH 600 0
DWIDTH 12 0
BBX 8 4 2 11
BITMAP
2C3003C2
6FE55EF6
0AFFFF90
01DFFD10
ENDCHAR
STARTCHAR uni02C8
ENCODING 712
SWIDTH 600 0
DWIDTH 12 0
BBX 4 7 4 8
BITMAP
7FF7
6FF6
5FF4
3FF3
2FF2
1FF1
0EE0
ENDCHAR
STARTCHAR uni02C9
ENCODING 713
SWIDTH 600 0
DWIDTH 12 0
BBX 6 2 3 12
BITMAP
EFFFFE
EFFFFE
ENDCHAR
STARTCHAR uni02CA
ENCODING 714
SWIDTH 600 0
DWIDTH 12 0
BBX 6 5 4 11
BITMAP
001B20
00BFD2
0AFFB1
5FF900
097000
ENDCHAR
STARTCHAR uni02CB
ENCODING 715
SWIDTH 600 0
DWIDTH 12 0
BBX 6 5 2 11
BITMAP
02B100
2EFB00
1BFFA0
009FF5
000790
ENDCHAR
STARTCHAR uni02CC
ENCODING 716
SWIDTH 600 0
DWIDTH 12 0
BBX 4 7 4 -5
BITMAP
0EE0
1FF1
2FF2
3FF3
5FF4
6FF6
7FF7
ENDCHAR
STARTCHAR uni02D0
ENCODING 720
SWIDTH 600 0
DWIDTH 12 0
BBX 6 11 3 0
BITMAP
5AAAA5
1EFFE1
06FF60
00CC00
004400
000000
000000
007700
02EE20
0BFFB0
6FFFF6
ENDCHAR
STARTCHAR uni02D1
ENCODING 721
SWIDTH 600 0
DWIDTH 12 0
BBX 6 4 3 6
BITMAP
6FFFF6
0BFFB0
02EE20
007700
ENDCHAR
STARTCHAR breve
ENCODING 728
SWIDTH 600 0
DWIDTH 12 0
BBX 8 4 2 11
BITMAP
02100120
4FB11BF4
1DFFFFD1
02BEEB20
ENDCHAR
STARTCHAR dotaccent
ENCODING 729
SWIDTH 600 0
DWIDTH 12 0
BBX 4 4 4 11
BITMAP
4DD4
DFFD
DFFD
5EE5
ENDCHAR
STARTCHAR ring
ENCODING 730
SWIDTH 600 0
DWIDTH 12 0
BBX 6 4 3 11
BITMAP
1AEEA1
8F55F8
8F55F8
1AEEA1
ENDCHAR
STARTCHAR ogonek
ENCODING 731
SWIDTH 600 0
DWIDTH 12 0
BBX 5 5 4 -5
BITMAP
2DA000
BF1000
FF2200
EFFF30
5DEB20
ENDCHAR
STARTCHAR tilde
ENCODING 732
SWIDTH 600 0
DWIDTH 12 0
BBX 8 4 2 11
BITMAP
00310000
2DFE63FB
9FEFFFF8
8C23CEA1
ENDCHAR
STARTCHAR hungarumlaut
ENCODING 733
SWIDTH 600 0
DWIDTH 12 0
BBX 8 4 3 11
BITMAP
02C608A3
0AF92FF3
3FD19F80
4C408C00
ENDCHAR
STARTCHAR uni02DE
ENCODING 734
SWIDTH 600 0
DWIDTH 12 0
BBX 8 5 1 4
BITMAP
00168000
19EFD000
3FFFF410
3A45FFE0
00008EC2
ENDCHAR
STARTCHAR uni02E0
ENCODING 736
SWIDTH 600 0
DWIDTH 12 0
BBX 8 10 2 4
BITMAP
3FD00BF3
0DF31FD0
07F75F80
02FCAF20
00BFFC00
006FF700
00ADCC00
00FA9F10
00EFFF10
005EE700
ENDCHAR
STARTCHAR l.sups
ENCODING 737
SWIDTH 600 0
DWIDTH 12 0
BBX 7 10 3 7
BITMAP
6FFF1000
6FFF1000
00FF1000
00FF1000
00FF1000
00FF1000
00FF1000
00EF4100
00BFFF20
003CFD30
ENDCHAR
STARTCHAR s.sups
ENCODING 738
SWIDTH 600 0
DWIDTH 12 0
BBX 7 7 3 7
BITMAP
19EFC400
8FFFFC00
7F914200
05BEA300
4612EE10
DFFFFF10
2AEEC400
ENDCHAR
STARTCHAR x.sups
ENCODING 739
SWIDTH 600 0
DWIDTH 12 0
BBX 8 7 2 7
BITMAP
2EF21EE2
07FA7F70
00CFED10
007FF600
01EEFC00
09F6AF70
3FD02EF3
ENDCHAR
STARTCHAR uni02E4
ENCODING 740
SWIDTH 600 0
DWIDTH 12 0
BBX 7 10 3 7
BITMAP
07DFC400
8FFFFE10
FF515600
FF100000
AFA00000
1CFD2000
00DF4000
00CF4000
00CF4000
009B3000
ENDCHAR
STARTCHAR uni0300
ENCODING 768
SWIDTH 600 0
DWIDTH 12 0
BBX 6 5 2 11
BITMAP
02B100
2EFB00
1BFFA0
009FF5
000790
ENDCHAR
STARTCHAR uni0301
ENCODING 769
SWIDTH 600 0
DWIDTH 12 0
BBX 6 5 4 11
BITMAP
001B20
00BFD2
0AFFB1
5FF900
097000
ENDCHAR
STARTCHAR uni0302
ENCODING 770
SWIDTH 600 0
DWIDTH 12 0
BBX 8 4 2 11
BITMAP
01DFFD10
0AFFFF90
6FE55EF6
2C3003C2
ENDCHAR
STARTCHAR uni0303
ENCODING 771
SWIDTH 600 0
DWIDTH 12 0
BBX 8 4 2 11
BITMAP
00310000
2DFE63FB
9FEFFFF8
8C23CEA1
ENDCHAR
STARTCHAR uni0304
ENCODING 772
SWIDTH 600 0
DWIDTH 12 0
BBX 6 2 3 12
BITMAP
EFFFFE
EFFFFE
ENDCHAR
STARTCHAR uni0305
ENCODING 773
SWIDTH 600 0
DWIDTH 12 0
BBX 6 2 3 12
BITMAP
EFFFFE
EFFFFE
ENDCHAR
STARTCHAR uni0306
ENCODING 774
SWIDTH 600 0
DWIDTH 12 0
BBX 8 4 2 11
BITMAP
02100120
4FB11BF4
1DFFFFD1
02BEEB20
ENDCHAR
STARTCHAR uni0307
ENCODING 775
SWIDTH 600 0
DWIDTH 12 0
BBX 4 4 4 11
BITMAP
4DD4
DFFD
DFFD
5EE5
ENDCHAR
STARTCHAR uni0308
ENCODING 776
SWIDTH 600 0
DWIDTH 12 0
BBX 8 3 2 12
BITMAP
5EC11CE5
CFF55FFB
6EC11CE5
ENDCHAR
STARTCHAR uni0309
ENCODING 777
SWIDTH 600 0
DWIDTH 12 0
BBX 4 5 4 11
BITMAP
AD81
BFF9
18FD
06FB
0DA1
ENDCHAR
STARTCHAR uni030A
ENCODING 778
SWIDTH 600 0
DWIDTH 12 0
BBX 6 4 3 11
BITMAP
1AEEA1
8F55F8
8F55F8
1AEEA1
ENDCHAR
STARTCHAR uni030B
ENCODING 779
SWIDTH 600 0
DWIDTH 12 0
BBX 8 4 3 11
BITMAP
02C608A3
0AF92FF3
3FD19F80
4C408C00
ENDCHAR
STARTCHAR uni030C
ENCODING 780
SWIDTH 600 0
DWIDTH 12 0
BBX 8 4 2 11
BITMAP
2C3003C2
6FE55EF6
0AFFFF90
01DFFD10
ENDCHAR
STARTCHAR uni030F
ENCODING 783
SWIDTH 600 0
DWIDTH 12 0
BBX 8 4 1 11
BITMAP
3A806C20
3FE29FA0
08F91DF3
00C804C4
ENDCHAR
STARTCHAR uni0310
ENCODING 784
SWIDTH 600 0
DWIDTH 12 0
BBX 8 6 2 11
BITMAP
00055000
005FF500
136FF631
8F7777F7
2EFFFFE2
03BEEB30
ENDCHAR
STARTCHAR uni0311
ENCODING 785
SWIDTH 600 0
DWIDTH 12 0
BBX 8 4 2 11
BITMAP
02BEEA20
1DFFFFD1
4FB11BF4
02100120
ENDCHAR
STARTCHAR uni0312
ENCODING 786
SWIDTH 600 0
DWIDTH 12 0
BBX 4 5 4 11
BITMAP
03C2
2E60
6FE3
6FF7
1CE3
ENDCHAR
STARTCHAR uni0313
ENCODING 787
SWIDTH 600 0
DWIDTH 12 0
BBX 4 5 4 11
BITMAP
3EC1
7FF6
3EF6
06E1
2C30
ENDCHAR
STARTCHAR uni0318
ENCODING 792
SWIDTH 600 0
DWIDTH 12 0
BBX 5 6 4 -6
BITMAP
002510
006F40
BFFF40
BFFF40
006F40
002510
ENDCHAR
STARTCHAR uni0319
ENCODING 793
SWIDTH 600 0
DWIDTH 12 0
BBX 5 6 3 -6
BITMAP
152000
4F6000
4FFFB0
4FFFB0
4F6000
152000
ENDCHAR
STARTCHAR uni031A
ENCODING 794
SWIDTH 600 0
DWIDTH 12 0
BBX 4 4 4 10
BITMAP
BFFF
BFFF
009F
0059
ENDCHAR
STARTCHAR uni031B
ENCODING 795
SWIDTH 600 0
DWIDTH 12 0
BBX 5 5 5 9
BITMAP
006C40
00EF80
00EF80
18FE20
1EA200
ENDCHAR
STARTCHAR uni031C
ENCODING 796
SWIDTH 600 0
DWIDTH 12 0
BBX 4 4 4 -5
BITMAP
3CF5
DF40
CF40
3CF5
ENDCHAR
STARTCHAR uni031D
ENCODING 797
SWIDTH 600 0
DWIDTH 12 0
BBX 6 4 3 -5
BITMAP
00DD00
00DD00
8FFFF8
8FFFF8
ENDCHAR
STARTCHAR uni031E
ENCODING 798
SWIDTH 600 0
DWIDTH 12 0
BBX 6 4 3 -5
BITMAP
8FFFF8
8FFFF8
00DD00
00DD00
ENDCHAR
STARTCHAR uni031F
ENCODING 799
SWIDTH 600 0
DWIDTH 12 0
BBX 6 6 3 -6
BITMAP
004400
00DD00
8FFFF8
8FFFF8
00DD00
004400
ENDCHAR
STARTCHAR uni0320
ENCODING 800
SWIDTH 600 0
DWIDTH 12 0
BBX 6 2 3 -3
BITMAP
8FFFF8
8FFFF8
ENDCHAR
STARTCHAR uni0323
ENCODING 803
SWIDTH 600 0
DWIDTH 12 0
BBX 4 4 4 -5
BITMAP
4DD4
DFFD
DFFD
5EE5
ENDCHAR
STARTCHAR uni0324
ENCODING 804
SWIDTH 600 0
DWIDTH 12 0
BBX 8 3 2 -4
BITMAP
5EC11CE5
CFF55FFB
6EC11CE5
ENDCHAR
STARTCHAR uni0325
ENCODING 805
SWIDTH 600 0
DWIDTH 12 0
BBX 6 4 3 -5
BITMAP
1AEEA1
8F55F8
8F55F8
1AEEA1
ENDCHAR
STARTCHAR uni0326
ENCODING 806
SWIDTH 600 0
DWIDTH 12 0
BBX 5 4 3 -5
BITMAP
03EB30
018FC0
3FFFB0
1EC810
ENDCHAR
STARTCHAR uni0327
ENCODING 807
SWIDTH 600 0
DWIDTH 12 0
BBX 5 5 3 -5
BITMAP
01EA00
07FE50
018FD0
018FA0
2EC810
ENDCHAR
STARTCHAR uni0328
ENCODING 808
SWIDTH 600 0
DWIDTH 12 0
BBX 5 5 4 -5
BITMAP
2DA000
BF1000
FF2200
EFFF30
5DEB20
ENDCHAR
STARTCHAR uni0329
ENCODING 809
SWIDTH 600 0
DWIDTH 12 0
BBX 4 4 4 -5
BITMAP
1FF1
2FF2
2FF2
3FF3
ENDCHAR
STARTCHAR uni032A
ENCODING 810
SWIDTH 600 0
DWIDTH 12 0
BBX 6 4 3 -5
BITMAP
9FFFF9
9FFFF9
9E00E9
460064
ENDCHAR
STARTCHAR uni032C
ENCODING 812
SWIDTH 600 0
DWIDTH 12 0
BBX 8 4 2 -5
BITMAP
2C3003C2
6FE55EF6
0AFFFF90
01DFFD10
ENDCHAR
STARTCHAR uni032E
ENCODING 814
SWIDTH 600 0
DWIDTH 12 0
BBX 8 4 2 -5
BITMAP
02100120
4FB11BF4
1DFFFFD1
02BEEB20
ENDCHAR
STARTCHAR uni032F
ENCODING 815
SWIDTH 600 0
DWIDTH 12 0
BBX 8 4 2 -5
BITMAP
02BEEA20
1DFFFFD1
4FB11BF4
02100120
ENDCHAR
STARTCHAR uni0330
ENCODING 816
SWIDTH 600 0
DWIDTH 12 0
BBX 8 4 2 -5
BITMAP
00310000
2DFE63FB
9FEFFFF8
8C23CEA1
ENDCHAR
STARTCHAR uni0331
ENCODING 817
SWIDTH 600 0
DWIDTH 12 0
BBX 6 2 3 -4
BITMAP
EFFFFE
EFFFFE
ENDCHAR
STARTCHAR uni0334
ENCODING 820
SWIDTH 600 0
DWIDTH 12 0
BBX 10 4 1 3
BITMAP
0032000000
1DFFD728D5
6FEDFFFFF4
39504ADE90
ENDCHAR
STARTCHAR uni0339
ENCODING 825
SWIDTH 600 0
DWIDTH 12 0
BBX 4 4 4 -5
BITMAP
5FC3
04FD
04FC
5FC3
ENDCHAR
STARTCHAR uni033A
ENCODING 826
SWIDTH 600 0
DWIDTH 12 0
BBX 6 4 3 -4
BITMAP
460064
9E00E9
9FFFF9
9FFFF9
ENDCHAR
STARTCHAR uni033B
ENCODING 827
SWIDTH 600 0
DWIDTH 12 0
BBX 6 4 3 -5
BITMAP
9FFFF9
9E00E9
9E00E9
9FFFF9
ENDCHAR
STARTCHAR uni033C
ENCODING 828
SWIDTH 600 0
DWIDTH 12 0
BBX 8 4 2 -5
BITMAP
1BE55EB1
7FFCCFF8
BE2DD2EB
AC0BB0CA
ENDCHAR
STARTCHAR uni033D
ENCODING 829
SWIDTH 600 0
DWIDTH 12 0
BBX 6 4 3 11
BITMAP
1D66D1
07FF70
0AFFA0
1A44A1
ENDCHAR
STARTCHAR uni0342
ENCODING 834
SWIDTH 600 0
DWIDTH 12 0
BBX 8 4 2 11
BITMAP
00310000
2DFE63FB
9FEFFFF8
8C23CEA1
ENDCHAR
STARTCHAR uni0345
ENCODING 837
SWIDTH 600 0
DWIDTH 12 0
BBX 5 3 4 -4
BITMAP
2FF100
1FFF10
06EE30
ENDCHAR
STARTCHAR uni035F
ENCODING 863
SWIDTH 600 0
DWIDTH 12 0
BBX 22 2 -5 -4
BITMAP
2FFFFFFFFFFFFFFFFFFFF2
2FFFFFFFFFFFFFFFFFFFF2
ENDCHAR
STARTCHAR uni0361
ENCODING 865
SWIDTH 600 0
DWIDTH 12 0
BBX 18 4 -3 12
BITMAP
000269CDFFDC962000
04BFFFFFFFFFFFFB40
BFFC8531001358CFFB
992000000000000299
ENDCHAR
STARTCHAR uni0374
ENCODING 884
SWIDTH 600 0
DWIDTH 12 0
BBX 4 6 4 8
BITMAP
0FFD
1FFA
2FF8
3FF4
4FE0
5FA0
ENDCHAR
STARTCHAR uni0375
ENCODING 885
SWIDTH 600 0
DWIDTH 12 0
BBX 4 6 4 0
BITMAP
0BF5
0EF4
4FF3
8FF2
AFF1
DFF0
ENDCHAR
STARTCHAR uni037A
ENCODING 890
SWIDTH 600 0
DWIDTH 12 0
BBX 5 3 4 -4
BITMAP
2FF100
1FFF10
06EE30
ENDCHAR
STARTCHAR uni037E
ENCODING 894
SWIDTH 600 0
DWIDTH 12 0
BBX 6 16 3 -5
BITMAP
06DD50
2FFFF1
4FFFF4
2FFFF2
06EE60
000000
000000
06DE70
1FFFF3
1FFFF7
06EFF8
000DF7
005FF2
19FF80
1FF800
052000
ENDCHAR
STARTCHAR tonos
ENCODING 900
SWIDTH 600 0
DWIDTH 12 0
BBX 4 5 5 11
BITMAP
7DB4
9FF2
CFB0
EF60
CE10
ENDCHAR
STARTCHAR dieresistonos
ENCODING 901
SWIDTH 600 0
DWIDTH 12 0
BBX 8 5 2 11
BITMAP
0005D800
0008F600
AE4AF5EA
AE4DB4EA
000D6000
ENDCHAR
STARTCHAR Alphatonos
ENCODING 902
SWIDTH 600 0
DWIDTH 12 0
BBX 12 14 0 0
BITMAP
2EC400000000
4FF36FFF6000
6FE0AFFFA000
8FB0EFEFE000
AF83FF8FF300
CF48FF3FF700
AE1CFC0EFC00
001FFA0BFF10
005FF708FF50
009FFFFFFF90
00DFFFFFFFD0
02FFB000DFF2
07FF80009FF6
0BFF40006FFA
ENDCHAR
STARTCHAR anoteleia
ENCODING 903
SWIDTH 600 0
DWIDTH 12 0
BBX 6 5 3 6
BITMAP
06DD50
2FFFF1
4FFFF4
2FFFF2
06EE60
ENDCHAR
STARTCHAR Epsilontonos
ENCODING 904
SWIDTH 600 0
DWIDTH 12 0
BBX 11 14 0 0
BITMAP
3EC300000000
5FF2CFFFFF70
7FE0CFFFFF70
9FA0CFC00000
BF70CFC00000
DF30CFC00000
BD00CFC00000
0000CFFFF900
0000CFFFF900
0000CFC00000
0000CFC00000
0000CFC00000
0000CFFFFFA0
0000CFFFFFA0
ENDCHAR
STARTCHAR Etatonos
ENCODING 905
SWIDTH 600 0
DWIDTH 12 0
BBX 12 14 0 0
BITMAP
3EC300000000
5FF3FF808FF1
7FE1FF808FF1
9FA1FF808FF1
BF71FF808FF1
DF31FF808FF1
BD01FF808FF1
0001FFFFFFF1
0001FFFFFFF1
0001FF808FF1
0001FF808FF1
0001FF808FF1
0001FF808FF1
0001FF808FF1
ENDCHAR
STARTCHAR Iotatonos
ENCODING 906
SWIDTH 600 0
DWIDTH 12 0
BBX 11 14 0 0
BITMAP
3EC300000000
5FF2FFFFFF80
7FE0FFFFFF80
9FA003FFB000
BF7003FFB000
DF3003FFB000
BD0003FFB000
000003FFB000
000003FFB000
000003FFB000
000003FFB000
000003FFB000
0000FFFFFF80
0000FFFFFF80
ENDCHAR
STARTCHAR Omicrontonos
ENCODING 908
SWIDTH 600 0
DWIDTH 12 0
BBX 12 14 0 0
BITMAP
3EC300000000
5FF219EEA200
7FE0CFFFFD10
9FA6FF63FF80
BF7BFE00CFD0
DF3EFC009FF1
BD1FFB009FF3
001FFB008FF3
000FFB009FF3
000EFC00AFF1
000AFE00CFD0
0005FF63FF80
0000BFFFFD10
000019EEA200
ENDCHAR
STARTCHAR Upsilontonos
ENCODING 910
SWIDTH 600 0
DWIDTH 12 0
BBX 13 14 0 0
BITMAP
0DC60000000000
1FF6CFD003FF50
3FF27FF107FE00
5FE02FF50BFA00
7FA00CF91FF400
9F7007FD4FE000
8D3002FF9F9000
000000BFFF4000
0000006FFE0000
0000002FF90000
0000001FF80000
0000001FF80000
0000001FF80000
0000001FF80000
ENDCHAR
STARTCHAR Omegatonos
ENCODING 911
SWIDTH 600 0
DWIDTH 12 0
BBX 12 14 0 0
BITMAP
3EC300000000
5FF219EEA200
7FE0CFFFFD10
9FA6FF64FF80
BF7CFE00CFD0
DF3EFC00AFF1
BD1FFB009FF3
000FFB009FF2
000EFB009FF1
000BFD00BFC0
0004FF10EF60
0000CF53FE10
004FFF96FFF6
004FFF97FFF6
ENDCHAR
STARTCHAR iotadieresistonos
ENCODING 912
SWIDTH 600 0
DWIDTH 12 0
BBX 10 16 1 0
BITMAP
0000BC3000
0000EE1000
2EC2FAAE40
2EC4F5AE40
0005E10000
0000000000
CFFFFF1000
CFFFFF0000
000DFF0000
000DFE0000
000DFE0000
000DFD0000
000CFE0000
000AFF5021
0004FFFFF7
00005CFFD7
ENDCHAR
STARTCHAR Alpha
ENCODING 913
SWIDTH 600 0
DWIDTH 12 0
BBX 12 13 0 0
BITMAP
0000EFFE0000
0004FFFF3000
0008FDEF8000
000DF9BFD000
003FF68FF200
007FF24FF700
00CFE01FFC00
02FFA00CFF20
06FFFFFFFF60
0BFFFFFFFFB0
1FFD0000EFF1
5FF90000AFF5
AFF500006FFA
ENDCHAR
STARTCHAR Beta
ENCODING 914
SWIDTH 600 0
DWIDTH 12 0
BBX 11 13 1 0
BITMAP
8FFFFED93000
8FFFFFFFF300
8FF6019FF800
8FF6004FF900
8FF602BFF300
8FFFFFFC4000
8FFFFFFFB200
8FF6015FFD00
8FF6000BFF20
8FF6000BFF30
8FF6016FFE00
8FFFFFFFF500
8FFFFFD93000
ENDCHAR
STARTCHAR Gamma
ENCODING 915
SWIDTH 600 0
DWIDTH 12 0
BBX 9 13 2 0
BITMAP
DFFFFFFFB0
DFFFFFFFB0
DFF2000000
DFF2000000
DFF2000000
DFF2000000
DFF2000000
DFF2000000
DFF2000000
DFF2000000
DFF2000000
DFF2000000
DFF2000000
ENDCHAR
STARTCHAR uni0394
ENCODING 916
SWIDTH 600 0
DWIDTH 12 0
BBX 12 13 0 0
BITMAP
0000EFFE0000
0004FFFF4000
0009FDEF9000
000DF9BFD000
003FF68FF300
008FF24FF800
00DFE01FFD00
03FFA00CFF30
08FF6008FF70
0CFF2004FFC0
2FFE0000EFF2
6FFFFFFFFFF5
6FFFFFFFFFF6
ENDCHAR
STARTCHAR Epsilon
ENCODING 917
SWIDTH 600 0
DWIDTH 12 0
BBX 10 13 1 0
BITMAP
2FFFFFFFF7
2FFFFFFFF7
2FFC000000
2FFC000000
2FFC000000
2FFC000000
2FFFFFFF90
2FFFFFFF90
2FFC000000
2FFC000000
2FFC000000
2FFFFFFFFA
2FFFFFFFFA
ENDCHAR
STARTCHAR Zeta
ENCODING 918
SWIDTH 600 0
DWIDTH 12 0
BBX 10 13 1 0
BITMAP
4FFFFFFFFD
4FFFFFFFFB
000002EFF2
00000BFF70
00005FFC00
0001EFF300
0009FF9000
004FFE1000
00DFF50000
07FFB00000
2FFE200000
BFFFFFFFFE
DFFFFFFFFE
ENDCHAR
STARTCHAR Eta
ENCODING 919
SWIDTH 600 0
DWIDTH 12 0
BBX 10 13 1 0
BITMAP
BFF3003FFB
BFF3003FFB
BFF3003FFB
BFF3003FFB
BFF3003FFB
BFF3003FFB
BFFFFFFFFB
BFFFFFFFFB
BFF3003FFB
BFF3003FFB
BFF3003FFB
BFF3003FFB
BFF3003FFB
ENDCHAR
STARTCHAR Theta
ENCODING 920
SWIDTH 600 0
DWIDTH 12 0
BBX 12 13 0 0
BITMAP
0005CEEB5000
009FFFFFF900
05FFC22CFF50
0CFF4004FFB0
1FFE0000EFF1
3FFD0000DFF3
3FFC5FF5CFF3
2FFD5FF5DFF2
0FFE0000FFF0
0BFF4005FFB0
04FFC22DFF40
008FFFFFF800
0005BEEB5000
ENDCHAR
STARTCHAR Iota
ENCODING 921
SWIDTH 600 0
DWIDTH 12 0
BBX 10 13 1 0
BITMAP
8FFFFFFFF8
8FFFFFFFF8
0007FF7000
0007FF7000
0007FF7000
0007FF7000
0007FF7000
0007FF7000
0007FF7000
0007FF7000
0007FF7000
8FFFFFFFF8
8FFFFFFFF8
ENDCHAR
STARTCHAR Kappa
ENCODING 922
SWIDTH 600 0
DWIDTH 12 0
BBX 11 13 1 0
BITMAP
AFF5002EFE30
AFF500CFF600
AFF508FF9000
AFF54FFC1000
AFF6EFE20000
AFFEFFC00000
AFFFFFF50000
AFFFDFFD0000
AFFE2AFF6000
AFF602FFE100
AFF500AFF800
AFF5002FFE10
AFF50009FF90
ENDCHAR
STARTCHAR Lambda
ENCODING 923
SWIDTH 600 0
DWIDTH 12 0
BBX 12 13 0 0
BITMAP
0000EFFE0000
0004FFFF3000
0008FFFF8000
000DFBDFC000
002FF79FF200
007FF35FF600
00BFE01FFB00
01FFA00DFF10
05FF7009FF50
0AFF3005FFA0
0EFE0001FFE0
4FFA0000CFF4
8FF600008FF8
ENDCHAR
STARTCHAR Mu
ENCODING 924
SWIDTH 600 0
DWIDTH 12 0
BBX 10 13 1 0
BITMAP
DFF6006FFD
DFFA00AFFD
DFFE00EFFD
DFDF33FDFD
DFAF77F9FD
DF7FBBE7FD
DF7BEEA8FD
DF86FF59FD
DF92FF1AFD
DF90760AFD
DF90000AFD
DF90000AFD
DF90000AFD
ENDCHAR
STARTCHAR Nu
ENCODING 925
SWIDTH 600 0
DWIDTH 12 0
BBX 10 13 1 0
BITMAP
AFF8002FFA
AFFE102FFA
AFFF602FFA
AFEFC02FFA
AFCDF42FFA
AFE7FA1FFA
AFF2FF2FFA
AFF1AF7EFA
AFF24FDCFA
AFF20CFEFA
AFF206FFFA
AFF201EFFA
AFF2008FFA
ENDCHAR
STARTCHAR Xi
ENCODING 926
SWIDTH 600 0
DWIDTH 12 0
BBX 10 13 1 0
BITMAP
7FFFFFFFF7
7FFFFFFFF7
0000000000
0000000000
0000000000
0000000000
05FFFFFF50
05FFFFFF50
0000000000
0000000000
0000000000
AFFFFFFFFA
AFFFFFFFFA
ENDCHAR
STARTCHAR Omicron
ENCODING 927
SWIDTH 600 0
DWIDTH 12 0
BBX 12 13 0 0
BITMAP
0005CEEC5000
009FFFFFF900
05FFC22CFF50
0CFF3004FFC0
1FFE0000EFF1
3FFC0000CFF3
3FFC0000CFF3
3FFC0000CFF3
1FFE0000EFF1
0BFF4004FFB0
05FFC22CFF50
009FFFFFF900
0005CEEC5000
ENDCHAR
STARTCHAR Pi
ENCODING 928
SWIDTH 600 0
DWIDTH 12 0
BBX 10 13 1 0
BITMAP
BFFFFFFFFB
BFFFFFFFFB
BFF3003FFB
BFF3003FFB
BFF3003FFB
BFF3003FFB
BFF3003FFB
BFF3003FFB
BFF3003FFB
BFF3003FFB
BFF3003FFB
BFF3003FFB
BFF3003FFB
ENDCHAR
STARTCHAR Rho
ENCODING 929
SWIDTH 600 0
DWIDTH 12 0
BBX 11 13 1 0
BITMAP
8FFFFEDA3000
8FFFFFFFF400
8FF7017FFD00
8FF7000CFF20
8FF7000AFF30
8FF7000DFF10
8FF7018FFB00
8FFFFFFFE200
8FFFFFD81000
8FF700000000
8FF700000000
8FF700000000
8FF700000000
ENDCHAR
STARTCHAR Sigma
ENCODING 931
SWIDTH 600 0
DWIDTH 12 0
BBX 10 13 1 0
BITMAP
AFFFFFFFF4
7FFFFFFFF4
0BFF600000
01DFE20000
003FFC1000
0006FF9000
0000DFF100
0008FF7000
004FFB0000
02EFE10000
0CFF400000
8FFFFFFFFC
BFFFFFFFFC
ENDCHAR
STARTCHAR Tau
ENCODING 932
SWIDTH 600 0
DWIDTH 12 0
BBX 12 13 0 0
BITMAP
6FFFFFFFFFF6
6FFFFFFFFFF6
00007FF70000
00007FF70000
00007FF70000
00007FF70000
00007FF70000
00007FF70000
00007FF70000
00007FF70000
00007FF70000
00007FF70000
00007FF70000
ENDCHAR
STARTCHAR Upsilon
ENCODING 933
SWIDTH 600 0
DWIDTH 12 0
BBX 12 13 0 0
BITMAP
7FFA00009FF7
1EFF2001EFE1
07FF8007FF70
01EFE00DFE10
007FF54FF700
001EFBAFE100
0008FFFF8000
0001EFFE1000
00009FF90000
00007FF70000
00007FF70000
00007FF70000
00007FF70000
ENDCHAR
STARTCHAR Phi
ENCODING 934
SWIDTH 600 0
DWIDTH 12 0
BBX 12 13 0 0
BITMAP
00002FF20000
00015FF51000
019FFFFFF910
0CFFDFFDFFC0
5FF92FF29FF5
9FF12FF21FF9
AFE02FF20EFA
9FF12FF21FF9
5FF92FF29FF5
0BFFDFFDFFB0
019FFFFFF910
00015FF51000
00002FF20000
ENDCHAR
STARTCHAR Chi
ENCODING 935
SWIDTH 600 0
DWIDTH 12 0
BBX 12 13 0 0
BITMAP
2FFF2001EFF2
09FFA007FF90
01EFF20EFE10
007FF96FF700
000DFFDFD100
0005FFFF6000
0001EFFE0000
0008FFFF7000
002EFBEFE100
00AFF47FF900
03FFC01EFF30
0CFF4007FFB0
5FFB0000DFF5
ENDCHAR
STARTCHAR Psi
ENCODING 936
SWIDTH 600 0
DWIDTH 12 0
BBX 12 13 0 0
BITMAP
9FF24FF42FF9
9FF24FF42FF9
9FF24FF42FF9
9FF24FF42FF9
8FF44FF44FF8
4FFB5FF5BFF4
0AFFFFFFFFA0
005BEFFEB500
00004FF40000
00004FF40000
00004FF40000
00004FF40000
00004FF40000
ENDCHAR
STARTCHAR uni03A9
ENCODING 937
SWIDTH 600 0
DWIDTH 12 0
BBX 12 13 0 0
BITMAP
0005BEEB5000
008FFFFFF800
05FFD22DFF50
0CFF4004FFC0
1FFE0000EFF1
3FFD0000DFF3
3FFC0000CFF3
1FFD0000DFF1
0CFF1001FFC0
06FF5005FF50
00BFB00BFB00
6FFFF22FFFF6
6FFFF22FFFF6
ENDCHAR
STARTCHAR Iotadieresis
ENCODING 938
SWIDTH 600 0
DWIDTH 12 0
BBX 10 17 1 0
BITMAP
04EB11BE40
0AFF33FFA0
04EB01BE40
0000000000
8FFFFFFFF8
8FFFFFFFF8
0007FF7000
0007FF7000
0007FF7000
0007FF7000
0007FF7000
0007FF7000
0007FF7000
0007FF7000
0007FF7000
8FFFFFFFF8
8FFFFFFFF8
ENDCHAR
STARTCHAR Upsilondieresis
ENCODING 939
SWIDTH 600 0
DWIDTH 12 0
BBX 12 17 0 0
BITMAP
004EB11BE400
00AFF33FFA00
004EB01BE400
000000000000
7FFA00009FF7
1EFF2001EFE1
07FF8007FF70
01EFE00DFE10
007FF54FF700
001EFBAFE100
0008FFFF8000
0001EFFE1000
00009FF90000
00007FF70000
00007FF70000
00007FF70000
00007FF70000
ENDCHAR
STARTCHAR alphatonos
ENCODING 940
SWIDTH 600 0
DWIDTH 12 0
BBX 12 16 0 0
BITMAP
000000DC9000
000001FFA000
000003FF5000
000005FE0000
000005D90000
000000000000
002AEE91DFF0
01DFFFF9FFC0
09FFA17FFF90
0EFF100DFF50
2FFE000BFF20
2FFD000BFF00
0FFF100DFD00
0BFF817FFE10
03FFFFFBFFF8
004CFD61AEF9
ENDCHAR
STARTCHAR epsilontonos
ENCODING 941
SWIDTH 600 0
DWIDTH 12 0
BBX 10 16 1 0
BITMAP
00000CCA00
00000FFB00
00002FF600
00004FF100
00005DA000
0000000000
006BDFEC71
0BFFFFFFF6
2FFE301490
1EFD200000
03CFFFF100
09FFFFF100
7FF8101000
8FFA2014B2
2EFFFFFFFA
028CEFEC82
ENDCHAR
STARTCHAR etatonos
ENCODING 942
SWIDTH 600 0
DWIDTH 12 0
BBX 10 20 1 -4
BITMAP
00001EC800
00003FF800
00005FF300
00007FD000
00007D7000
0000000000
AFE05CFD40
8FF8FFFFF2
8FFF718FF7
7FFA003FF8
7FF7002FF9
7FF7002FF9
7FF7003FF9
7FF7003FF9
7FF7003FF9
7FF7004FF9
0000004FF9
0000004FF9
0000005FF9
0000005FF9
ENDCHAR
STARTCHAR iotatonos
ENCODING 943
SWIDTH 600 0
DWIDTH 12 0
BBX 10 16 1 0
BITMAP
0000DCA000
0001FFA000
0003FF5000
0005FE0000
0005D90000
0000000000
CFFFFF1000
CFFFFF0000
000DFF0000
000DFE0000
000DFE0000
000DFD0000
000CFE0000
000AFF5021
0004FFFFF7
00005CFFD7
ENDCHAR
STARTCHAR upsilondieresistonos
ENCODING 944
SWIDTH 600 0
DWIDTH 12 0
BBX 10 16 1 0
BITMAP
00007D6000
0000AF4000
0CE2CE6E80
0CE3F96E80
0001D40000
0000000000
BFF2006AD2
9FF400AFF5
8FF4007FF8
9FF4005FFA
9FF3003FFB
9FF2004FFA
8FF3006FF8
4FFA13DFF2
0BFFFFFF80
007DFEC500
ENDCHAR
STARTCHAR alpha
ENCODING 945
SWIDTH 600 0
DWIDTH 12 0
BBX 12 10 0 0
BITMAP
002AEE91DFF0
01DFFFF9FFC0
09FFA17FFF90
0EFF100DFF50
2FFE000BFF20
2FFD000BFF00
0FFF100DFD00
0BFF817FFE10
03FFFFFBFFF8
004CFD61AEF9
ENDCHAR
STARTCHAR beta
ENCODING 946
SWIDTH 600 0
DWIDTH 12 0
BBX 11 18 1 -4
BITMAP
006CFEB40000
08FFFFFF5000
2FFD23EFE000
6FF700BFF100
8FF500DFE000
8FF417FF7000
8FF47FFC1000
8FF35FFFE300
8FF3015FFC00
8FF3000CFF10
8FF3000CFF20
8FFC316FFD00
8FFEFFFFF500
8FF59EEC4000
8FF400000000
8FF500000000
8FF500000000
8FF600000000
ENDCHAR
STARTCHAR gamma
ENCODING 947
SWIDTH 600 0
DWIDTH 12 0
BBX 12 15 0 -4
BITMAP
037600000000
4FFF2000CFF1
0AFF8000DFD0
02FFE002FF80
00AFF505FF20
004FFA0BFB00
000DFE2FF300
0008FFCF9000
0003FFFD1000
0000DFF40000
0000AFF30000
00008FF40000
00008FF50000
00008FF60000
00009FF60000
ENDCHAR
STARTCHAR delta
ENCODING 948
SWIDTH 600 0
DWIDTH 12 0
BBX 10 14 1 0
BITMAP
018DEEDB72
0AFFFFFFF5
0EFE1137B1
0BFF900000
02EFFD4000
003EFFF910
04EFFFFFB1
3FFC32DFF7
BFF2003FFC
DFD0000EFE
CFF0001FFC
7FFA11AFF7
1CFFFFFFB0
007CFEC700
ENDCHAR
STARTCHAR epsilon
ENCODING 949
SWIDTH 600 0
DWIDTH 12 0
BBX 10 10 1 0
BITMAP
006BDFEC71
0BFFFFFFF6
2FFE301490
1EFD200000
03CFFFF100
09FFFFF100
7FF8101000
8FFA2014B2
2EFFFFFFFA
028CEFEC82
ENDCHAR
STARTCHAR zeta
ENCODING 950
SWIDTH 600 0
DWIDTH 12 0
BBX 10 18 1 -4
BITMAP
0AFFFFFFF8
0AFFFFFFF8
022117FFB2
0001BFF600
001CFF4000
00BFF60000
07FFB00000
0EFF300000
3FFD000000
4FFB000000
2FFE100000
0DFFB40000
03EFFFFB50
0029EFFFF5
0000038FFA
0000000FF8
0000006FF4
0000004AB0
ENDCHAR
STARTCHAR eta
ENCODING 951
SWIDTH 600 0
DWIDTH 12 0
BBX 10 14 1 -4
BITMAP
AFE05CFD40
8FF8FFFFF2
8FFF718FF7
7FFA003FF8
7FF7002FF9
7FF7002FF9
7FF7003FF9
7FF7003FF9
7FF7003FF9
7FF7004FF9
0000004FF9
0000004FF9
0000005FF9
0000005FF9
ENDCHAR
STARTCHAR theta
ENCODING 952
SWIDTH 600 0
DWIDTH 12 0
BBX 10 14 1 0
BITMAP
004BEEB400
05FFFFFF50
1EFC22CFE1
6FF5005FF6
AFF2002FFA
CFF0000FFC
DFFFFFFFFD
DFFFFFFFFD
CFF0000FFC
AFF2002FFA
6FF5005FF6
1EFC22DFE1
05FFFFFF50
004BEEB400
ENDCHAR
STARTCHAR iota
ENCODING 953
SWIDTH 600 0
DWIDTH 12 0
BBX 10 10 1 0
BITMAP
CFFFFF1000
CFFFFF0000
000DFF0000
000DFE0000
000DFE0000
000DFD0000
000CFE0000
000AFF5021
0004FFFFF7
00005CFFD7
ENDCHAR
STARTCHAR kappa
ENCODING 954
SWIDTH 600 0
DWIDTH 12 0
BBX 11 11 1 -1
BITMAP
7FF70005C800
6FF801BFFA00
5FF81CFF8100
4FF9BFF40000
4FFEFFD00000
4FFFFFF70000
4FFF5EFE2000
4FFB07FFB000
4FF800CFF700
4FF7003EFF50
000000022100
ENDCHAR
STARTCHAR lambda
ENCODING 955
SWIDTH 600 0
DWIDTH 12 0
BBX 12 15 0 -1
BITMAP
0AEFD7000000
09FFFFA00000
0212BFF40000
00003FFA0000
00002FFF1000
00009FFF6000
0001EFFFC000
0007FFDFF200
000DFD5FF800
005FF81FFD00
00CFF30BFF40
03FFC006FF90
0AFF7002FFE0
2FFF2000CFF5
012300000000
ENDCHAR
STARTCHAR uni03BC
ENCODING 956
SWIDTH 600 0
DWIDTH 12 0
BBX 11 14 1 -4
BITMAP
BFF3007FF700
BFF3007FF600
BFF3007FF600
BFF3007FF500
BFF3007FF500
BFF3007FF500
BFF400AFF400
BFF915FFF500
BFFFFFAFFF60
BFFCEA16FF90
BFF100000100
BFF100000000
BFF200000000
BFF300000000
ENDCHAR
STARTCHAR nu
ENCODING 957
SWIDTH 600 0
DWIDTH 12 0
BBX 12 11 0 0
BITMAP
036600000000
3FFF2000CFF1
0AFF8000EFD0
02FFE102FF90
009FF506FF40
002FFA0BFE00
000CFE2FF800
0006FFBFF200
0002FFFF9000
0000DFFE2000
0000AFF70000
ENDCHAR
STARTCHAR xi
ENCODING 958
SWIDTH 600 0
DWIDTH 12 0
BBX 10 18 1 -4
BITMAP
CFFFFFFFF8
CFFFFFFFF8
22CFF51000
05FFA00000
05FFA00000
01DFF61010
002CFFFF70
009FFFFF70
0AFF920110
2FFD000000
4FFC000000
2FFFA41000
06FFFFFC70
003AEFFFF7
0000038FFA
0000000EF9
0000006FF4
0000004AB0
ENDCHAR
STARTCHAR omicron
ENCODING 959
SWIDTH 600 0
DWIDTH 12 0
BBX 10 10 1 0
BITMAP
005BEEB500
09FFFFFF90
5FFC22CFF5
CFF4004FFB
EFF1001FFE
EFF1001FFE
CFF4004FFB
5FFC22CFF5
09FFFFFF90
005CEEC500
ENDCHAR
STARTCHAR pi
ENCODING 960
SWIDTH 600 0
DWIDTH 12 0
BBX 12 11 0 -1
BITMAP
BFFFFFFFFFFC
CFFFFFFFFFFC
00DFD00AFF20
00DFD00AFF10
00EFD00BFF10
00EFC00BFF00
00FFC00BFF00
02FFB00AFF30
03FFA005FFF7
04FFA0008EF9
001220000000
ENDCHAR
STARTCHAR rho
ENCODING 961
SWIDTH 600 0
DWIDTH 12 0
BBX 10 14 1 -4
BITMAP
003AEFD910
04FFFFFFD1
0EFE31AFF9
4FF7002FFE
7FF4000FFF
8FF3000FFF
8FF3003FFD
8FFB21BFF7
8FFFFFFFC0
8FF7BEE910
8FF4000000
8FF5000000
8FF5000000
8FF6000000
ENDCHAR
STARTCHAR uni03C2
ENCODING 962
SWIDTH 600 0
DWIDTH 12 0
BBX 10 14 1 -4
BITMAP
0007CEFD92
02DFFFFFF7
0CFFA21480
4FFC000000
7FF8000000
8FF8000000
5FFC000000
0DFFB40000
03DFFFEA30
0017CFFFF2
0000029FF6
0000003FF5
0000009FE1
0000006B70
ENDCHAR
STARTCHAR sigma
ENCODING 963
SWIDTH 600 0
DWIDTH 12 0
BBX 11 10 1 0
BITMAP
007CFFFFFF80
0BFFFFFEDE80
7FFA16FF5000
DFF200CFE000
FFF0009FF300
FFF0009FF400
DFF200BFF200
8FFA15FFC000
1CFFFFFE3000
017DFEA20000
ENDCHAR
STARTCHAR tau
ENCODING 964
SWIDTH 600 0
DWIDTH 12 0
BBX 10 10 1 0
BITMAP
EFFFFFFFFF
FFFFFFFFFF
0007FF6000
0007FF5000
0007FF5000
0007FF5000
0007FF5000
0005FF8020
0001EFFFE0
00003CFEC1
ENDCHAR
STARTCHAR upsilon
ENCODING 965
SWIDTH 600 0
DWIDTH 12 0
BBX 10 10 1 0
BITMAP
BFF2006AD2
9FF400AFF5
8FF4007FF8
9FF4005FFA
9FF3003FFB
9FF2004FFA
8FF3006FF8
4FFA13DFF2
0BFFFFFF80
007DFEC500
ENDCHAR
STARTCHAR phi
ENCODING 966
SWIDTH 600 0
DWIDTH 12 0
BBX 12 17 0 -4
BITMAP
00004FF40000
00004FF40000
00004FF40000
003BEFFEB300
04FFFFFFFF40
0EFC5FF5CFD0
5FF44FF45FF4
7FF24FF42FF7
7FF24FF42FF7
5FF44FF45FF4
1EFC5FF5CFE0
04FFFFFFFF40
003BEFFEB300
00004FF40000
00004FF40000
00004FF40000
00004FF40000
ENDCHAR
STARTCHAR chi
ENCODING 967
SWIDTH 600 0
DWIDTH 12 0
BBX 11 16 1 -5
BITMAP
122000000000
DFF3004FFC00
5FFC00BFF400
0BFF64FFB000
03FFECFF3000
009FFFFB0000
001EFFF30000
0007FFB00000
000BFFE10000
004FFFF90000
00CFFFFF2000
05FFC7FFA000
0CFF40DFF300
6FFB005FFC00
DFF4000BFF50
123000013100
ENDCHAR
STARTCHAR psi
ENCODING 968
SWIDTH 600 0
DWIDTH 12 0
BBX 12 17 0 -4
BITMAP
00003FF40000
00003FF40000
00003FF40000
9FF23FF45AD0
7FF33FF48FF4
6FF43FF45FF7
6FF43FF43FF8
6FF33FF42FF9
6FF33FF42FF9
4FF43FF44FF6
1FFB4FF5BFF2
08FFFFFFFF80
006CFFFFC600
00003FF40000
00003FF40000
00003FF40000
00003FF40000
ENDCHAR
STARTCHAR omega
ENCODING 969
SWIDTH 600 0
DWIDTH 12 0
BBX 12 10 0 0
BITMAP
04C610016C50
0BFF5004FFC0
2FFD0000CFF3
6FF727717FF7
8FF32FF15FF8
8FF21FF04FF8
6FF31FF06FF6
3FF75FF3AFF3
0BFFFDEFFFB0
01AED44DEA10
ENDCHAR
STARTCHAR iotadieresis
ENCODING 970
SWIDTH 600 0
DWIDTH 12 0
BBX 10 15 1 0
BITMAP
0BE705EC10
3FFE0BFF50
0BE705EC10
0000000000
0000000000
CFFFFF1000
CFFFFF0000
000DFF0000
000DFE0000
000DFE0000
000DFD0000
000CFE0000
000AFF5021
0004FFFFF7
00005CFFD7
ENDCHAR
STARTCHAR upsilondieresis
ENCODING 971
SWIDTH 600 0
DWIDTH 12 0
BBX 10 15 1 0
BITMAP
07EB02DE40
0EFF37FF90
07EB02DE40
0000000000
0000000000
BFF2006AD2
9FF400AFF5
8FF4007FF8
9FF4005FFA
9FF3003FFB
9FF2004FFA
8FF3006FF8
4FFA13DFF2
0BFFFFFF80
007DFEC500
ENDCHAR
STARTCHAR omicrontonos
ENCODING 972
SWIDTH 600 0
DWIDTH 12 0
BBX 10 16 1 0
BITMAP
00007DB400
00009FF200
0000CFB000
0000EF6000
0000CE1000
0000000000
005BEEB500
09FFFFFF90
5FFC22CFF5
CFF4004FFB
EFF1001FFE
EFF1001FFE
CFF4004FFB
5FFC22CFF5
09FFFFFF90
005CEEC500
ENDCHAR
STARTCHAR upsilontonos
ENCODING 973
SWIDTH 600 0
DWIDTH 12 0
BBX 10 16 1 0
BITMAP
00009DB200
0000CFE000
0000EF9000
0001FF4000
0002CD0000
0000000000
BFF2006AD2
9FF400AFF5
8FF4007FF8
9FF4005FFA
9FF3003FFB
9FF2004FFA
8FF3006FF8
4FFA13DFF2
0BFFFFFF80
007DFEC500
ENDCHAR
STARTCHAR omegatonos
ENCODING 974
SWIDTH 600 0
DWIDTH 12 0
BBX 12 16 0 0
BITMAP
000007DB4000
000009FF2000
00000CFB0000
00000EF60000
00000CE10000
000000000000
04C610016C50
0BFF5004FFC0
2FFD0000CFF3
6FF727717FF7
8FF32FF15FF8
8FF21FF04FF8
6FF31FF06FF6
3FF75FF3AFF3
0BFFFDEFFFB0
01AED44DEA10
ENDCHAR
STARTCHAR uni03D0
ENCODING 976
SWIDTH 600 0
DWIDTH 12 0
BBX 11 14 1 0
BITMAP
006CEEB40000
09FFFFFF6000
3FFD23EFE000
7FF700BFF100
8FF500DFE000
8FF408FF7000
8FFBEFFB1000
8FFFFFFFE300
8FF8315FFC00
8FF4000CFF10
6FF7000CFF10
1EFE416FFD00
05FFFFFFF400
003ADFDA2000
ENDCHAR
STARTCHAR uni03D1
ENCODING 977
SWIDTH 600 0
DWIDTH 12 0
BBX 10 14 1 0
BITMAP
018DFD9200
1DFFFFFE30
8FF614EFD0
CFD0007FF5
CFE0003FFA
8FF9100FFC
1CFFFEEFFD
017DFFFFFD
3551010FFC
6FF5001FFA
5FF7004FF7
3FFC21BFE1
0BFFFFFF60
018DFEC500
ENDCHAR
STARTCHAR uni03D5
ENCODING 981
SWIDTH 600 0
DWIDTH 12 0
BBX 12 17 0 -4
BITMAP
00004FF40000
00004FF40000
00004FF40000
003BEFFEB300
04FFFFFFFF40
0EFC5FF5CFD0
5FF44FF45FF4
7FF24FF42FF7
7FF24FF42FF7
5FF44FF45FF4
1EFC5FF5CFE0
04FFFFFFFF40
003BEFFEB300
00004FF40000
00004FF40000
00004FF40000
00004FF40000
ENDCHAR
STARTCHAR uni03D7
ENCODING 983
SWIDTH 600 0
DWIDTH 12 0
BBX 11 14 1 -4
BITMAP
7FF70005C800
6FF801BFFA00
5FF81CFF8100
4FF9BFF40000
4FFEFFD00000
4FFFFFF70000
4FFF5EFF2000
4FFB06FFC000
4FF800BFF900
4FF7002EFF60
0000001DFF50
0000009FFB00
000005FFF200
00001CDE7000
ENDCHAR
STARTCHAR uni03D9
ENCODING 985
SWIDTH 600 0
DWIDTH 12 0
BBX 10 14 1 -4
BITMAP
005CEEB500
0AFFFFFF90
6FFB22BFF6
CFF3003FFC
FFF0000FFF
FFF0000FFF
DFF3003FFD
7FFB22BFF6
0BFFFFFFB0
008EFFE800
0005FF7000
0005FF8000
0005FF8000
0005FF9000
ENDCHAR
STARTCHAR uni03DB
ENCODING 987
SWIDTH 600 0
DWIDTH 12 0
BBX 10 14 1 -4
BITMAP
0018CEFFF9
03EFFFFFF9
0DFF920000
4FFC000000
7FF9000000
7FF8000000
5FFD000000
0CFFC40000
02DFFFEA30
0007CFFFF2
000002AFF6
0000003FF5
0000009FE1
0000006B70
ENDCHAR
STARTCHAR uni03DD
ENCODING 989
SWIDTH 600 0
DWIDTH 12 0
BBX 9 14 2 -4
BITMAP
AFFFFFFF80
AFFFFFFF80
AFF1000000
AFF1000000
AFF1000000
AFF8888800
AFFFFFFF10
AFF9888810
AFF2000000
AFF2000000
AFF2000000
AFF3000000
AFF3000000
AFF4000000
ENDCHAR
STARTCHAR uni03E1
ENCODING 993
SWIDTH 600 0
DWIDTH 12 0
BBX 11 18 1 -4
BITMAP
005A10000000
04FFC1000000
06FFFD100000
004EFFB00000
0003FFF70000
00007FFE2000
004BFFFF8000
6CFFFFFFE100
DFFF92AFF500
6F92007FF900
02004BFFFC00
006CFFFFFE00
02FFFF9EFF00
009F910CFF10
0022000DFF00
0000000EFF00
0000001FFD00
000000157600
ENDCHAR
STARTCHAR uni0400
ENCODING 1024
SWIDTH 600 0
DWIDTH 12 0
BBX 10 18 1 0
BITMAP
0005A10000
003FFD3000
0006EFF300
000019A000
0000000000
2FFFFFFFF7
2FFFFFFFF7
2FFC000000
2FFC000000
2FFC000000
2FFC000000
2FFFFFFF90
2FFFFFFF90
2FFC000000
2FFC000000
2FFC000000
2FFFFFFFFA
2FFFFFFFFA
ENDCHAR
STARTCHAR uni0401
ENCODING 1025
SWIDTH 600 0
DWIDTH 12 0
BBX 10 17 1 0
BITMAP
00BE506EA0
03FFA0CFF1
00BE506EA0
0000000000
2FFFFFFFF7
2FFFFFFFF7
2FFC000000
2FFC000000
2FFC000000
2FFC000000
2FFFFFFF90
2FFFFFFF90
2FFC000000
2FFC000000
2FFC000000
2FFFFFFFFA
2FFFFFFFFA
ENDCHAR
STARTCHAR uni0402
ENCODING 1026
SWIDTH 600 0
DWIDTH 12 0
BBX 12 13 0 0
BITMAP
8FFFFFFFF500
8FFFFFFFF500
000DFF100000
000DFF100000
000DFF100000
000DFFEFD800
000DFFFFFFA0
000DFF22DFF2
000DFF107FF5
000DFF106FF6
000DFF109FF4
000DFF1CFFD0
000DFF2EEC30
ENDCHAR
STARTCHAR uni0403
ENCODING 1027
SWIDTH 600 0
DWIDTH 12 0
BBX 9 18 2 0
BITMAP
00005B1000
0009FF9000
00BFFA1000
004C400000
0000000000
DFFFFFFFB0
DFFFFFFFB0
DFF2000000
DFF2000000
DFF2000000
DFF2000000
DFF2000000
DFF2000000
DFF2000000
DFF2000000
DFF2000000
DFF2000000
DFF2000000
ENDCHAR
STARTCHAR uni0404
ENCODING 1028
SWIDTH 600 0
DWIDTH 12 0
BBX 11 13 1 0
BITMAP
0006BEFD9200
01CFFFFFFD00
0BFF9204C300
5FFB00000000
AFF400000000
CFFFFFF90000
DFFFFFF90000
DFF200000000
AFF500000000
6FFB00001000
0DFF9214D700
02DFFFFFFE20
0017CEFD9200
ENDCHAR
STARTCHAR uni0405
ENCODING 1029
SWIDTH 600 0
DWIDTH 12 0
BBX 10 13 1 0
BITMAP
004BEFDA40
08FFFFFFF5
3FFC203A90
7FF9000000
5FFF710000
1DFFFE9200
02CFFFFF90
0004AFFFF9
000002BFFE
0200001FFF
2ED5116FFA
AFFFFFFFD2
05ADFFD810
ENDCHAR
STARTCHAR uni0406
ENCODING 1030
SWIDTH 600 0
DWIDTH 12 0
BBX 10 13 1 0
BITMAP
8FFFFFFFF8
8FFFFFFFF8
0007FF7000
0007FF7000
0007FF7000
0007FF7000
0007FF7000
0007FF7000
0007FF7000
0007FF7000
0007FF7000
8FFFFFFFF8
8FFFFFFFF8
ENDCHAR
STARTCHAR uni0407
ENCODING 1031
SWIDTH 600 0
DWIDTH 12 0
BBX 10 17 1 0
BITMAP
04EB11BE40
0AFF33FFA0
04EB01BE40
0000000000
8FFFFFFFF8
8FFFFFFFF8
0007FF7000
0007FF7000
0007FF7000
0007FF7000
0007FF7000
0007FF7000
0007FF7000
0007FF7000
0007FF7000
8FFFFFFFF8
8FFFFFFFF8
ENDCHAR
STARTCHAR uni0408
ENCODING 1032
SWIDTH 600 0
DWIDTH 12 0
BBX 10 13 1 0
BITMAP
0BFFFFFFF5
0BFFFFFFF5
0000009FF5
0000009FF5
0000009FF5
0000009FF5
0000009FF5
0000009FF5
000000AFF4
021000BFF2
2DC315FFE0
7FFFFFFF50
04AEFEA300
ENDCHAR
STARTCHAR uni0409
ENCODING 1033
SWIDTH 600 0
DWIDTH 12 0
BBX 13 13 -1 0
BITMAP
002FFFFF900000
003FFFFF900000
003FF2DF900000
004FF1DF900000
005FF0DF900000
006FE0DFFEB300
007FD0DFFFFE10
009FC0DF93FF70
00AFA0DF90CF90
00CF80DF90CF90
01FF50DF94FF60
0EFE10DFFFFD10
3FD500DFFDA200
ENDCHAR
STARTCHAR uni040A
ENCODING 1034
SWIDTH 600 0
DWIDTH 12 0
BBX 12 13 0 0
BITMAP
6FF31FF80000
6FF31FF80000
6FF31FF80000
6FF31FF80000
6FF31FF80000
6FFFFFFFEB30
6FFFFFFFFFE1
6FF31FF84FF7
6FF31FF80EF9
6FF31FF80EF9
6FF31FF85FF6
6FF31FFFFFD1
6FF31FFFEA20
ENDCHAR
STARTCHAR uni040B
ENCODING 1035
SWIDTH 600 0
DWIDTH 12 0
BBX 12 13 0 0
BITMAP
9FFFFFFFF500
9FFFFFFFF500
000DFF100000
000DFF100000
000DFF100000
000DFFEFD810
000DFFFFFFC0
000DFF21CFF3
000DFF108FF5
000DFF108FF5
000DFF108FF5
000DFF108FF5
000DFF108FF5
ENDCHAR
STARTCHAR uni040C
ENCODING 1036
SWIDTH 600 0
DWIDTH 12 0
BBX 11 18 1 0
BITMAP
000001A50000
00003DFF3000
0004FFE50000
0000A9100000
000000000000
9FF50006DF50
9FF5005FFF20
9FF500DF9100
9FF506FF1000
9FF50CFA0000
9FF54FF40000
9FFFFFE00000
9FFFFFF40000
9FF53FFD1000
9FF508FF9000
9FF500DFF400
9FF5004FFD10
9FF50009FF80
ENDCHAR
STARTCHAR uni040D
ENCODING 1037
SWIDTH 600 0
DWIDTH 12 0
BBX 10 18 1 0
BITMAP
000A600000
008FF91000
0019FFC000
00003C5000
0000000000
BFE0008FFB
BFE001EFFB
BFE007FFFB
BFE00DFFFB
BFE06FFBFB
BFD0CFABFB
BFC4FF4CFB
BFBAFC0DFB
BFBFF50EFB
BFEFD00EFB
BFFF700EFB
BFFE100EFB
BFF8000EFB
ENDCHAR
STARTCHAR uni040E
ENCODING 1038
SWIDTH 600 0
DWIDTH 12 0
BBX 12 17 0 0
BITMAP
000110011000
004FF51EF800
0006CFFD9100
000000000000
5FFC00008FF7
0DFF3000DFE1
06FF9004FF90
00DFE109FF30
007FF60EFC00
001EFB5FF600
0008FFBFE100
0001EFFF9000
00009FFF3000
00003FFC0000
00119FF40000
00BFFFA00000
00DFD7000000
ENDCHAR
STARTCHAR uni040F
ENCODING 1039
SWIDTH 600 0
DWIDTH 12 0
BBX 10 17 1 -4
BITMAP
BFF3003FFB
BFF3003FFB
BFF3003FFB
BFF3003FFB
BFF3003FFB
BFF3003FFB
BFF3003FFB
BFF3003FFB
BFF3003FFB
BFF3003FFB
BFF3003FFB
BFFFFFFFFB
BFFFFFFFFB
0003FF6000
0003FF6000
0003FF5000
0003FF4000
ENDCHAR
STARTCHAR uni0410
ENCODING 1040
SWIDTH 600 0
DWIDTH 12 0
BBX 12 13 0 0
BITMAP
0000EFFE0000
0004FFFF3000
0008FDEF8000
000DF9BFD000
003FF68FF200
007FF24FF700
00CFE01FFC00
02FFA00CFF20
06FFFFFFFF60
0BFFFFFFFFB0
1FFD0000EFF1
5FF90000AFF5
AFF500006FFA
ENDCHAR
STARTCHAR uni0411
ENCODING 1041
SWIDTH 600 0
DWIDTH 12 0
BBX 11 13 1 0
BITMAP
8FFFFFFFF600
8FFFFFFFF600
8FF600000000
8FF600000000
8FF600000000
8FFFFFDA4000
8FFFFFFFF600
8FF6015FFE10
8FF6000BFF30
8FF6000BFF30
8FF6016FFE00
8FFFFFFFF500
8FFFFFDA3000
ENDCHAR
STARTCHAR uni0412
ENCODING 1042
SWIDTH 600 0
DWIDTH 12 0
BBX 11 13 1 0
BITMAP
8FFFFED93000
8FFFFFFFF300
8FF6019FF800
8FF6004FF900
8FF602BFF300
8FFFFFFC4000
8FFFFFFFB200
8FF6015FFD00
8FF6000BFF20
8FF6000BFF30
8FF6016FFE00
8FFFFFFFF500
8FFFFFD93000
ENDCHAR
STARTCHAR uni0413
ENCODING 1043
SWIDTH 600 0
DWIDTH 12 0
BBX 9 13 2 0
BITMAP
DFFFFFFFB0
DFFFFFFFB0
DFF2000000
DFF2000000
DFF2000000
DFF2000000
DFF2000000
DFF2000000
DFF2000000
DFF2000000
DFF2000000
DFF2000000
DFF2000000
ENDCHAR
STARTCHAR uni0414
ENCODING 1044
SWIDTH 600 0
DWIDTH 12 0
BBX 12 17 0 -4
BITMAP
000CFFFFFF30
000EFFFFFF30
001FF70CFF30
003FF50CFF30
006FF30CFF30
008FF10CFF30
00AFE00CFF30
00DFB00CFF30
01FF800CFF30
05FF400CFF30
0BFE000CFF30
CFFFFFFFFFFC
BFFFFFFFFFFB
BFF200002FFB
AFF200002FFA
9FF200002FF9
8FF200002FF8
ENDCHAR
STARTCHAR uni0415
ENCODING 1045
SWIDTH 600 0
DWIDTH 12 0
BBX 10 13 1 0
BITMAP
2FFFFFFFF7
2FFFFFFFF7
2FFC000000
2FFC000000
2FFC000000
2FFC000000
2FFFFFFF90
2FFFFFFF90
2FFC000000
2FFC000000
2FFC000000
2FFFFFFFFA
2FFFFFFFFA
ENDCHAR
STARTCHAR uni0416
ENCODING 1046
SWIDTH 600 0
DWIDTH 12 0
BBX 12 13 0 0
BITMAP
CE603FF307EC
AFF33FF33FFA
08F83FF38F80
03FC3FF3CF30
01FE3FF3FF10
00EF6FF6FE00
00CFFFFFFC00
00EFFFFFFE00
05FE3FF3EF50
0BFA3FF3AFB0
1FF63FF36FF1
7FF23FF32FF7
CFD03FF30DFC
ENDCHAR
STARTCHAR uni0417
ENCODING 1047
SWIDTH 600 0
DWIDTH 12 0
BBX 11 13 1 0
BITMAP
05ADFEC81000
6FFFFFFFD100
0AA302CFF600
0000006FF700
000002CFF300
000FFFFF5000
000FFFFFC200
0000017FFC00
0000000DFF10
0200000DFF10
4F93029FFC00
CFFFFFFFE300
06BDFEC81000
ENDCHAR
STARTCHAR uni0418
ENCODING 1048
SWIDTH 600 0
DWIDTH 12 0
BBX 10 13 1 0
BITMAP
BFE0008FFB
BFE001EFFB
BFE007FFFB
BFE00DFFFB
BFE06FFBFB
BFD0CFABFB
BFC4FF4CFB
BFBAFC0DFB
BFBFF50EFB
BFEFD00EFB
BFFF700EFB
BFFE100EFB
BFF8000EFB
ENDCHAR
STARTCHAR uni0419
ENCODING 1049
SWIDTH 600 0
DWIDTH 12 0
BBX 10 17 1 0
BITMAP
0011001100
05FF42FF70
007DFFD800
0000000000
BFE0008FFB
BFE001EFFB
BFE007FFFB
BFE00DFFFB
BFE06FFBFB
BFD0CFABFB
BFC4FF4CFB
BFBAFC0DFB
BFBFF50EFB
BFEFD00EFB
BFFF700EFB
BFFE100EFB
BFF8000EFB
ENDCHAR
STARTCHAR uni041A
ENCODING 1050
SWIDTH 600 0
DWIDTH 12 0
BBX 11 13 1 0
BITMAP
9FF50006DF50
9FF5005FFF20
9FF500DF9100
9FF506FF1000
9FF50CFA0000
9FF54FF40000
9FFFFFE00000
9FFFFFF40000
9FF53FFD1000
9FF508FF9000
9FF500DFF400
9FF5004FFD10
9FF50009FF80
ENDCHAR
STARTCHAR uni041B
ENCODING 1051
SWIDTH 600 0
DWIDTH 12 0
BBX 11 13 0 0
BITMAP
0005FFFFFFB0
0007FFFFFFB0
000AFE03FFB0
000CFC03FFB0
000EFA03FFB0
002FF703FFB0
005FF503FFB0
008FF203FFB0
00BFE003FFB0
00EFA003FFB0
06FF5003FFB0
BFFD0003FFB0
EFC30003FFB0
ENDCHAR
STARTCHAR uni041C
ENCODING 1052
SWIDTH 600 0
DWIDTH 12 0
BBX 10 13 1 0
BITMAP
DFF6006FFD
DFFA00AFFD
DFFE00EFFD
DFDF33FDFD
DFAF77F9FD
DF7FBBE7FD
DF7BEEA8FD
DF86FF59FD
DF92FF1AFD
DF90760AFD
DF90000AFD
DF90000AFD
DF90000AFD
ENDCHAR
STARTCHAR uni041D
ENCODING 1053
SWIDTH 600 0
DWIDTH 12 0
BBX 10 13 1 0
BITMAP
BFF3003FFB
BFF3003FFB
BFF3003FFB
BFF3003FFB
BFF3003FFB
BFF3003FFB
BFFFFFFFFB
BFFFFFFFFB
BFF3003FFB
BFF3003FFB
BFF3003FFB
BFF3003FFB
BFF3003FFB
ENDCHAR
STARTCHAR uni041E
ENCODING 1054
SWIDTH 600 0
DWIDTH 12 0
BBX 12 13 0 0
BITMAP
0005CEEC5000
009FFFFFF900
05FFC22CFF50
0CFF3004FFC0
1FFE0000EFF1
3FFC0000CFF3
3FFC0000CFF3
3FFC0000CFF3
1FFE0000EFF1
0BFF4004FFB0
05FFC22CFF50
009FFFFFF900
0005CEEC5000
ENDCHAR
STARTCHAR uni041F
ENCODING 1055
SWIDTH 600 0
DWIDTH 12 0
BBX 10 13 1 0
BITMAP
BFFFFFFFFB
BFFFFFFFFB
BFF3003FFB
BFF3003FFB
BFF3003FFB
BFF3003FFB
BFF3003FFB
BFF3003FFB
BFF3003FFB
BFF3003FFB
BFF3003FFB
BFF3003FFB
BFF3003FFB
ENDCHAR
STARTCHAR uni0420
ENCODING 1056
SWIDTH 600 0
DWIDTH 12 0
BBX 11 13 1 0
BITMAP
8FFFFEDA3000
8FFFFFFFF400
8FF7017FFD00
8FF7000CFF20
8FF7000AFF30
8FF7000DFF10
8FF7018FFB00
8FFFFFFFE200
8FFFFFD81000
8FF700000000
8FF700000000
8FF700000000
8FF700000000
ENDCHAR
STARTCHAR uni0421
ENCODING 1057
SWIDTH 600 0
DWIDTH 12 0
BBX 11 13 1 0
BITMAP
0005BEFD9200
01BFFFFFFD00
0BFFA204B200
4FFC00000000
AFF600000000
DFF300000000
EFF200000000
DFF300000000
AFF600000000
5FFD00000000
0CFFB204D600
02CFFFFFFF20
0006CEFD9200
ENDCHAR
STARTCHAR uni0422
ENCODING 1058
SWIDTH 600 0
DWIDTH 12 0
BBX 12 13 0 0
BITMAP
6FFFFFFFFFF6
6FFFFFFFFFF6
00007FF70000
00007FF70000
00007FF70000
00007FF70000
00007FF70000
00007FF70000
00007FF70000
00007FF70000
00007FF70000
00007FF70000
00007FF70000
ENDCHAR
STARTCHAR uni0423
ENCODING 1059
SWIDTH 600 0
DWIDTH 12 0
BBX 12 13 0 0
BITMAP
5FFC00008FF7
0DFF3000DFE1
06FF9004FF90
00DFE109FF30
007FF60EFC00
001EFB5FF600
0008FFBFE100
0001EFFF9000
00009FFF3000
00003FFC0000
00119FF40000
00BFFFA00000
00DFD7000000
ENDCHAR
STARTCHAR uni0424
ENCODING 1060
SWIDTH 600 0
DWIDTH 12 0
BBX 12 13 0 0
BITMAP
00002FF20000
00002FF20000
005BEFFEB500
0AFFFFFFFFA0
5FFA4FF4AFF5
9FF12FF21FF9
AFE02FF20EFA
9FF12FF22FF9
4FFB4FF4BFF4
09FFFFFFFF90
005BEFFEB500
00002FF20000
00002FF20000
ENDCHAR
STARTCHAR uni0425
ENCODING 1061
SWIDTH 600 0
DWIDTH 12 0
BBX 12 13 0 0
BITMAP
2FFF2001EFF2
09FFA007FF90
01EFF20EFE10
007FF96FF700
000DFFDFD100
0005FFFF6000
0001EFFE0000
0008FFFF7000
002EFBEFE100
00AFF47FF900
03FFC01EFF30
0CFF4007FFB0
5FFB0000DFF5
ENDCHAR
STARTCHAR uni0426
ENCODING 1062
SWIDTH 600 0
DWIDTH 12 0
BBX 12 17 1 -4
BITMAP
BFF3005FF900
BFF3005FF900
BFF3005FF900
BFF3005FF900
BFF3005FF900
BFF3005FF900
BFF3005FF900
BFF3005FF900
BFF3005FF900
BFF3005FF900
BFF3005FF900
BFFFFFFFFFF2
BFFFFFFFFFF2
000000009FF1
000000009FF0
000000009FE0
000000009FD0
ENDCHAR
STARTCHAR uni0427
ENCODING 1063
SWIDTH 600 0
DWIDTH 12 0
BBX 11 13 0 0
BITMAP
1FFC0002FFC0
1FFC0002FFC0
1FFC0002FFC0
1FFC0002FFC0
0EFE0002FFC0
0BFF8104FFC0
03EFFFFFFFC0
002ADEFEFFC0
00000002FFC0
00000002FFC0
00000002FFC0
00000002FFC0
00000002FFC0
ENDCHAR
STARTCHAR uni0428
ENCODING 1064
SWIDTH 600 0
DWIDTH 12 0
BBX 12 13 0 0
BITMAP
6FF33FF33FF6
6FF33FF33FF6
6FF33FF33FF6
6FF33FF33FF6
6FF33FF33FF6
6FF33FF33FF6
6FF33FF33FF6
6FF33FF33FF6
6FF33FF33FF6
6FF33FF33FF6
6FF33FF33FF6
6FFFFFFFFFF6
6FFFFFFFFFF6
ENDCHAR
STARTCHAR uni0429
ENCODING 1065
SWIDTH 600 0
DWIDTH 12 0
BBX 13 17 0 -4
BITMAP
6FF16FE09FE000
6FF16FE09FE000
6FF16FE09FE000
6FF16FE09FE000
6FF16FE09FE000
6FF16FE09FE000
6FF16FE09FE000
6FF16FE09FE000
6FF16FE09FE000
6FF16FE09FE000
6FF16FE09FE000
6FFFFFFFFFFF20
6FFFFFFFFFFF20
0000000006FF10
0000000006FF00
0000000006FE00
0000000006FE00
ENDCHAR
STARTCHAR uni042A
ENCODING 1066
SWIDTH 600 0
DWIDTH 12 0
BBX 12 13 0 0
BITMAP
7FFFFF400000
7FFFFF400000
000AFF400000
000AFF400000
000AFF400000
000AFFFEB600
000AFFFFFF80
000AFF43DFF2
000AFF407FF5
000AFF407FF5
000AFF42DFF2
000AFFFFFF90
000AFFFEC700
ENDCHAR
STARTCHAR uni042B
ENCODING 1067
SWIDTH 600 0
DWIDTH 12 0
BBX 12 13 0 0
BITMAP
5FF400004FF5
5FF400004FF5
5FF400004FF5
5FF400004FF5
5FF400004FF5
5FFFDA204FF5
5FFFFFE14FF5
5FF55FF74FF5
5FF40DF94FF5
5FF40DF94FF5
5FF55FF64FF5
5FFFFFD14FF5
5FFFDA204FF5
ENDCHAR
STARTCHAR uni042C
ENCODING 1068
SWIDTH 600 0
DWIDTH 12 0
BBX 11 13 1 0
BITMAP
8FF600000000
8FF600000000
8FF600000000
8FF600000000
8FF600000000
8FFFFEDA4000
8FFFFFFFF600
8FF6016FFE10
8FF6000BFF30
8FF6000BFF30
8FF6016FFE00
8FFFFFFFF500
8FFFFEDA3000
ENDCHAR
STARTCHAR uni042D
ENCODING 1069
SWIDTH 600 0
DWIDTH 12 0
BBX 11 13 0 0
BITMAP
028CEEC81000
0DFFFFFFD200
03C5128FFC00
00000009FF50
00000004FFA0
0009FFFFFFC0
0009FFFFFFD0
00000002FFD0
00000005FFA0
0010000BFF60
07E5129FFD00
2EFFFFFFD200
028DEEC81000
ENDCHAR
STARTCHAR uni042E
ENCODING 1070
SWIDTH 600 0
DWIDTH 12 0
BBX 12 13 0 0
BITMAP
6FF401AED700
6FF409FFFF80
6FF42FF3AFE1
6FF46FC06FF5
6FF48FB04FF7
6FF4AFB04FF8
6FFFFFA04FF9
6FFFFFB04FF8
6FF4AFB05FF7
6FF48FD06FF4
6FF44FF3BFE1
6FF40CFFFF70
6FF402BFD700
ENDCHAR
STARTCHAR uni042F
ENCODING 1071
SWIDTH 600 0
DWIDTH 12 0
BBX 11 13 0 0
BITMAP
003ADEFFFF90
05FFFFFFFF90
0DFF7105FF90
1FFD0005FF90
0FFD0005FF90
0CFF8105FF90
03EFFFFFFF90
002DFFFFFF90
002FFD15FF90
00BFF605FF90
06FFC005FF90
1EFF4005FF90
9FFB0005FF90
ENDCHAR
STARTCHAR uni0430
ENCODING 1072
SWIDTH 600 0
DWIDTH 12 0
BBX 10 10 1 0
BITMAP
039CEFD810
3FFFFFFFC0
088313DFF6
0000005FF9
0059CDFFFA
2DFFFFFFFB
AFFA414FFB
BFF403AFFB
6FFFFFEFFB
07DFD81CFB
ENDCHAR
STARTCHAR uni0431
ENCODING 1073
SWIDTH 600 0
DWIDTH 12 0
BBX 10 14 1 0
BITMAP
00000379D1
002AFFFFF5
03EFFFDB71
0DFE710000
5FF7000000
9FF6BEEA20
BFFFFFFFE1
CFF921BFF8
CFF0004FFC
AFF1003FFC
7FF4005FFA
1EFC21CFF5
06FFFFFFA0
004BEFC600
ENDCHAR
STARTCHAR uni0432
ENCODING 1074
SWIDTH 600 0
DWIDTH 12 0
BBX 10 10 1 0
BITMAP
5FFFFFEA40
5FFFFFFFF3
5FF8008FF8
5FF8008FF6
5FFFFFFF80
5FFFFFFFD3
5FF8004FFC
5FF8003FFD
5FFFFFFFF8
5FFFFFEB60
ENDCHAR
STARTCHAR uni0433
ENCODING 1075
SWIDTH 600 0
DWIDTH 12 0
BBX 9 10 2 0
BITMAP
AFFFFFFF80
AFFFFFFF80
AFF4000000
AFF4000000
AFF4000000
AFF4000000
AFF4000000
AFF4000000
AFF4000000
AFF4000000
ENDCHAR
STARTCHAR uni0434
ENCODING 1076
SWIDTH 600 0
DWIDTH 12 0
BBX 12 14 0 -4
BITMAP
007FFFFFFF10
009FFFFFFF10
00AFD00DFF10
00CFC00DFF10
00EFA00DFF10
01FF800DFF10
04FF500DFF10
09FE100DFF10
AFFFFFFFFFFA
AFFFFFFFFFFA
9FF200002FF9
8FF200002FF8
7FF200002FF7
6FF200002FF6
ENDCHAR
STARTCHAR uni0435
ENCODING 1077
SWIDTH 600 0
DWIDTH 12 0
BBX 10 10 1 0
BITMAP
004AEFD810
07FFFFFFC1
4FFD316FF7
AFF4000CFC
DFFFFFFFFE
DFFFFFFFFD
AFF4000000
4FFD411470
07FFFFFFF4
004AEFEB61
ENDCHAR
STARTCHAR uni0436
ENCODING 1078
SWIDTH 600 0
DWIDTH 12 0
BBX 12 10 0 0
BITMAP
BE802FF208EB
8FF52FF25FF8
06FB2FF2BF60
01FF4FF4FF10
00CFFFFFFC00
01EFFFFFFE10
07FD2FF2DF70
0DF82FF28FD0
5FF32FF23FF5
BFD02FF20DFB
ENDCHAR
STARTCHAR uni0437
ENCODING 1079
SWIDTH 600 0
DWIDTH 12 0
BBX 10 10 1 0
BITMAP
17BEFEC810
9FFFFFFFD1
1B5202AFF5
000001AFF3
004FFFFE60
004FFFFFC2
0000005FFA
4C52017FFB
CFFFFFFFF4
17CEFEC820
ENDCHAR
STARTCHAR uni0438
ENCODING 1080
SWIDTH 600 0
DWIDTH 12 0
BBX 10 10 1 0
BITMAP
8FF4007FF8
8FF402EFF8
8FF40AFFF8
8FF44FEFF8
8FF3DF8FF8
8FF8FD4FF8
8FFEF44FF8
8FFFA04FF8
8FFE204FF8
8FF7004FF8
ENDCHAR
STARTCHAR uni0439
ENCODING 1081
SWIDTH 600 0
DWIDTH 12 0
BBX 10 16 1 0
BITMAP
0001001100
00FF408FB0
00DF81DF80
007FFFFF20
0008EFD500
0000000000
8FF4007FF8
8FF402EFF8
8FF40AFFF8
8FF44FEFF8
8FF3DF8FF8
8FF8FD4FF8
8FFEF44FF8
8FFFA04FF8
8FFE204FF8
8FF7004FF8
ENDCHAR
STARTCHAR uni043A
ENCODING 1082
SWIDTH 600 0
DWIDTH 12 0
BBX 11 10 1 0
BITMAP
7FF7001AEE00
7FF700AFFB00
7FF703FF4000
7FF70BFB0000
7FFFFFF60000
7FFFFFF90000
7FF70AFF4000
7FF702EFD100
7FF7007FF900
7FF7000DFF50
ENDCHAR
STARTCHAR uni043B
ENCODING 1083
SWIDTH 600 0
DWIDTH 12 0
BBX 11 10 0 0
BITMAP
000FFFFFFF80
002FFFFFFF80
003FF407FF80
005FF207FF80
007FF107FF80
008FE007FF80
00AFC007FF80
02EF8007FF80
6FFE2007FF80
9FC40007FF80
ENDCHAR
STARTCHAR uni043C
ENCODING 1084
SWIDTH 600 0
DWIDTH 12 0
BBX 12 10 0 0
BITMAP
4FFF4004FFF4
4FFFA009FFF4
4FFFE00DFFF4
4FFDF53FDFF4
4FF9F98F9FF4
4FF5FEDF5FF4
4FF4BFFB5FF4
4FF56FF65FF4
4FF51FF15FF4
4FF502205FF4
ENDCHAR
STARTCHAR uni043D
ENCODING 1085
SWIDTH 600 0
DWIDTH 12 0
BBX 10 10 1 0
BITMAP
8FF6006FF8
8FF6006FF8
8FF6006FF8
8FF6006FF8
8FFFFFFFF8
8FFFFFFFF8
8FF6006FF8
8FF6006FF8
8FF6006FF8
8FF6006FF8
ENDCHAR
STARTCHAR uni043E
ENCODING 1086
SWIDTH 600 0
DWIDTH 12 0
BBX 10 10 1 0
BITMAP
005BEEB500
0AFFFFFFA0
6FFB22BFF6
DFF3003FFD
FFF0000FFF
FFF0000FFF
DFF3003FFD
6FFB22BFF6
0AFFFFFFA0
006CEEC600
ENDCHAR
STARTCHAR uni043F
ENCODING 1087
SWIDTH 600 0
DWIDTH 12 0
BBX 10 10 1 0
BITMAP
8FFFFFFFF8
8FFFFFFFF8
8FF6006FF8
8FF6006FF8
8FF6006FF8
8FF6006FF8
8FF6006FF8
8FF6006FF8
8FF6006FF8
8FF6006FF8
ENDCHAR
STARTCHAR uni0440
ENCODING 1088
SWIDTH 600 0
DWIDTH 12 0
BBX 11 14 1 -4
BITMAP
8FE19EEB3000
8FFEFFFFE200
8FFD31AFF900
8FF6002FFE00
8FF6000FFF10
8FF6000FFF00
8FF6003FFD00
8FFC32BFF700
8FFFFFFFC000
8FF7BFE81000
8FF500000000
8FF600000000
8FF600000000
8FF600000000
ENDCHAR
STARTCHAR uni0441
ENCODING 1089
SWIDTH 600 0
DWIDTH 12 0
BBX 10 10 1 0
BITMAP
0017CEFD82
03EFFFFFF7
1DFF921580
6FFB000000
9FF7000000
9FF7000000
6FFB000000
1EFF8214B2
04EFFFFFFA
0029DFEC81
ENDCHAR
STARTCHAR uni0442
ENCODING 1090
SWIDTH 600 0
DWIDTH 12 0
BBX 10 10 1 0
BITMAP
FFFFFFFFFF
FFFFFFFFFF
0007FF7000
0007FF7000
0007FF7000
0007FF7000
0007FF7000
0007FF7000
0007FF7000
0007FF7000
ENDCHAR
STARTCHAR uni0443
ENCODING 1091
SWIDTH 600 0
DWIDTH 12 0
BBX 12 14 0 -4
BITMAP
2FFB00008FF3
0AFF2000DFD0
03FF8003FF70
00CFD008FF10
005FF40DFA00
000DF93FF400
0006FE7FE000
0000EFEF8000
00007FFF2000
00002FFB0000
00007FF50000
0013EFD00000
05FFFF300000
07FEB3000000
ENDCHAR
STARTCHAR uni0444
ENCODING 1092
SWIDTH 600 0
DWIDTH 12 0
BBX 12 18 0 -4
BITMAP
00004FF40000
00004FF40000
00004FF40000
00003FF30000
01BECFFBED30
0BFFFFFFFFD0
3FF84FF47FF4
6FF22FF22FF7
8FF02FF20FF8
8FF02FF21FF8
7FF22FF22FF6
4FF83FF28FF2
0DFFFFFFFFB0
02CFEFFFFB10
00003FF30000
00003FF30000
00004FF40000
00004FF40000
ENDCHAR
STARTCHAR uni0445
ENCODING 1093
SWIDTH 600 0
DWIDTH 12 0
BBX 12 10 0 0
BITMAP
0BFF7005FFB0
02EFE20DFE20
005FFA5FF700
000AFFEFC000
0001EFFF3000
0004FFFE2000
001DFDFFB000
009FF49FF700
04FFA01DFF30
1DFF2004FFD1
ENDCHAR
STARTCHAR uni0446
ENCODING 1094
SWIDTH 600 0
DWIDTH 12 0
BBX 11 14 1 -4
BITMAP
8FF600CFF200
8FF600CFF200
8FF600CFF200
8FF600CFF200
8FF600CFF200
8FF600CFF200
8FF600CFF200
8FF600CFF200
8FFFFFFFFFB0
8FFFFFFFFFB0
00000001FFA0
00000001FF90
00000001FF80
00000001FF70
ENDCHAR
STARTCHAR uni0447
ENCODING 1095
SWIDTH 600 0
DWIDTH 12 0
BBX 10 10 1 0
BITMAP
BFF3008FF6
BFF3008FF6
BFF3008FF6
AFF4008FF6
7FFB119FF6
1EFFFFFFF6
02ADFFEFF6
0000008FF6
0000008FF6
0000008FF6
ENDCHAR
STARTCHAR uni0448
ENCODING 1096
SWIDTH 600 0
DWIDTH 12 0
BBX 12 10 0 0
BITMAP
4FF53FF35FF4
4FF53FF35FF4
4FF53FF35FF4
4FF53FF35FF4
4FF53FF35FF4
4FF53FF35FF4
4FF53FF35FF4
4FF53FF35FF4
4FFFFFFFFFF4
4FFFFFFFFFF4
ENDCHAR
STARTCHAR uni0449
ENCODING 1097
SWIDTH 600 0
DWIDTH 12 0
BBX 13 14 0 -4
BITMAP
4FF45FF09FE000
4FF45FF09FE000
4FF45FF09FE000
4FF45FF09FE000
4FF45FF09FE000
4FF45FF09FE000
4FF45FF09FE000
4FF45FF09FE000
4FFFFFFFFFFF20
4FFFFFFFFFFF20
0000000006FF20
0000000006FF10
0000000006FF00
0000000006FD00
ENDCHAR
STARTCHAR uni044A
ENCODING 1098
SWIDTH 600 0
DWIDTH 12 0
BBX 12 10 0 0
BITMAP
6FFFFF400000
6FFFFF400000
000AFF400000
000AFFFEC700
000AFFFFFFA0
000AFF42DFF2
000AFF409FF4
000AFF42DFF2
000AFFFFFF90
000AFFFEC700
ENDCHAR
STARTCHAR uni044B
ENCODING 1099
SWIDTH 600 0
DWIDTH 12 0
BBX 12 10 0 0
BITMAP
4FF600006FF4
4FF600006FF4
4FF600006FF4
4FFFEC406FF4
4FFFFFF46FF4
4FF62EF96FF4
4FF60CFA6FF4
4FF62EF96FF4
4FFFFFF36FF4
4FFFEC406FF4
ENDCHAR
STARTCHAR uni044C
ENCODING 1100
SWIDTH 600 0
DWIDTH 12 0
BBX 11 10 1 0
BITMAP
6FF800000000
6FF800000000
6FF800000000
6FFFFFEB5000
6FFFFFFFF800
6FF8003EFE00
6FF8000CFF10
6FF8003EFE00
6FFFFFFFF700
6FFFFFEB5000
ENDCHAR
STARTCHAR uni044D
ENCODING 1101
SWIDTH 600 0
DWIDTH 12 0
BBX 10 10 1 0
BITMAP
28DEFD9200
7FFFFFFE40
084115EFE1
0000006FF7
004FFFFFF9
004FFFFFF9
0000006FF7
193115EFE1
AFFFFFFE40
29CEFD9200
ENDCHAR
STARTCHAR uni044E
ENCODING 1102
SWIDTH 600 0
DWIDTH 12 0
BBX 12 10 0 0
BITMAP
6FF6019EE910
6FF609FFFFB0
6FF62FE2AFF3
6FF66FB05FF7
6FFFFFA04FF9
6FFFFFA04FF9
6FF66FB05FF7
6FF63FE2AFF3
6FF60AFFFFB0
6FF6019EE910
ENDCHAR
STARTCHAR uni044F
ENCODING 1103
SWIDTH 600 0
DWIDTH 12 0
BBX 11 10 0 0
BITMAP
003ADFFFFF80
02EFFFFFFF80
08FFA106FF80
09FF5006FF80
07FFA106FF80
01DFFFFFFF80
001DFFFFFF80
006FFC06FF80
03FFE206FF80
1DFF5006FF80
ENDCHAR
STARTCHAR uni0450
ENCODING 1104
SWIDTH 600 0
DWIDTH 12 0
BBX 10 16 1 0
BITMAP
001A300000
01CFE20000
009FFC1000
0006FF8000
00004B1000
0000000000
004AEFD810
07FFFFFFC1
4FFD316FF7
AFF4000CFC
DFFFFFFFFE
DFFFFFFFFD
AFF4000000
4FFD411470
07FFFFFFF4
004AEFEB61
ENDCHAR
STARTCHAR uni0451
ENCODING 1105
SWIDTH 600 0
DWIDTH 12 0
BBX 10 15 1 0
BITMAP
03DD30AE80
08FF81FFF0
03DD30AE90
0000000000
0000000000
004AEFD810
07FFFFFFC1
4FFD316FF7
AFF4000CFC
DFFFFFFFFE
DFFFFFFFFD
AFF4000000
4FFD411470
07FFFFFFF4
004AEFEB61
ENDCHAR
STARTCHAR uni0452
ENCODING 1106
SWIDTH 600 0
DWIDTH 12 0
BBX 11 18 0 -4
BITMAP
08FF60000000
CFFFFFFF0000
DFFFFFFF0000
08FF60000000
08FF57DEB200
08FFDFFFFD00
08FFD32CFF60
08FF6005FFA0
08FF6002FFD0
08FF6001FFE0
08FF6000FFF0
08FF6001FFE0
08FF6002FFD0
08FF6003FFB0
00000007FF80
0000013DFF20
00000DFFF900
00001EFD7000
ENDCHAR
STARTCHAR uni0453
ENCODING 1107
SWIDTH 600 0
DWIDTH 12 0
BBX 9 16 2 0
BITMAP
000004A000
00002EFB00
0001DFF800
0009FF6000
0001B40000
0000000000
AFFFFFFF80
AFFFFFFF80
AFF4000000
AFF4000000
AFF4000000
AFF4000000
AFF4000000
AFF4000000
AFF4000000
AFF4000000
ENDCHAR
STARTCHAR uni0454
ENCODING 1108
SWIDTH 600 0
DWIDTH 12 0
BBX 10 10 1 0
BITMAP
0017CEFD92
03EFFFFFF7
1EFE611480
6FF7000000
9FFFFFF400
9FFFFFF400
7FF6000000
1EFE5113A2
05EFFFFFFA
0029DFEC92
ENDCHAR
STARTCHAR uni0455
ENCODING 1109
SWIDTH 600 0
DWIDTH 12 0
BBX 10 10 1 0
BITMAP
016CEFDA40
0BFFFFFFF4
4FFB114980
3FFE740000
0AFFFFEA40
005BEFFFF5
0100039FFB
3E94105FFA
AFFFFFFFE3
04ADFFD920
ENDCHAR
STARTCHAR uni0456
ENCODING 1110
SWIDTH 600 0
DWIDTH 12 0
BBX 8 15 1 0
BITMAP
00005ED3
0000EFFB
0000EFFC
00006ED4
00000000
6FFFFFF8
6FFFFFF8
00007FF8
00007FF8
00007FF8
00007FF8
00007FF8
00007FF8
00007FF8
00007FF8
ENDCHAR
STARTCHAR uni0457
ENCODING 1111
SWIDTH 600 0
DWIDTH 12 0
BBX 10 15 1 0
BITMAP
007EB02DE4
00DFF36FFA
007EB12DE4
0000000000
0000000000
6FFFFFF800
6FFFFFF800
00007FF800
00007FF800
00007FF800
00007FF800
00007FF800
00007FF800
00007FF800
00007FF800
ENDCHAR
STARTCHAR uni0458
ENCODING 1112
SWIDTH 600 0
DWIDTH 12 0
BBX 8 19 1 -4
BITMAP
00005ED3
0000EFFB
0000EFFC
00006ED4
00000000
6FFFFFF8
6FFFFFF8
00007FF8
00007FF8
00007FF8
00007FF8
00007FF8
00007FF8
00007FF8
00007FF7
00008FF5
3302DFF2
BFFFFF90
9DEEC600
ENDCHAR
STARTCHAR uni0459
ENCODING 1113
SWIDTH 600 0
DWIDTH 12 0
BBX 13 10 -1 0
BITMAP
001FFFFF900000
002FFFFF900000
003FF1DF900000
004FF0DFFEA300
006FE0DFFFFE10
007FC0DF93FF60
009FB0DF90DF70
01DF80DF93FF60
0EFF30DFFFFD10
2ED600DFFEB300
ENDCHAR
STARTCHAR uni045A
ENCODING 1114
SWIDTH 600 0
DWIDTH 12 0
BBX 12 10 0 0
BITMAP
4FF51FF80000
4FF51FF80000
4FF51FF80000
4FFB9FFFEA30
4FFFFFFFFFE1
4FFDCFF85FF6
4FF51FF80FF7
4FF51FF85FF6
4FF51FFFFFD1
4FF51FFFEB30
ENDCHAR
STARTCHAR uni045B
ENCODING 1115
SWIDTH 600 0
DWIDTH 12 0
BBX 11 14 0 0
BITMAP
08FF60000000
CFFFFFFF0000
DFFFFFFF0000
08FF60000000
08FF46DFD600
08FFCFFFFF30
08FFD419FF90
08FF6003FFB0
08FF6002FFC0
08FF6002FFC0
08FF6002FFC0
08FF6002FFC0
08FF6002FFC0
08FF6002FFC0
ENDCHAR
STARTCHAR uni045C
ENCODING 1116
SWIDTH 600 0
DWIDTH 12 0
BBX 11 16 1 0
BITMAP
000000860000
000006FF7000
00004FFE4000
0000DFD30000
00004B100000
000000000000
7FF7001AEE00
7FF700AFFB00
7FF703FF4000
7FF70BFB0000
7FFFFFF60000
7FFFFFF90000
7FF70AFF4000
7FF702EFD100
7FF7007FF900
7FF7000DFF50
ENDCHAR
STARTCHAR uni045D
ENCODING 1117
SWIDTH 600 0
DWIDTH 12 0
BBX 10 16 1 0
BITMAP
000A400000
00AFE30000
007FFD1000
0005FFA000
00003C2000
0000000000
8FF4007FF8
8FF402EFF8
8FF40AFFF8
8FF44FEFF8
8FF3DF8FF8
8FF8FD4FF8
8FFEF44FF8
8FFFA04FF8
8FFE204FF8
8FF7004FF8
ENDCHAR
STARTCHAR uni045E
ENCODING 1118
SWIDTH 600 0
DWIDTH 12 0
BBX 12 20 0 -4
BITMAP
000110011000
003FF10BF800
001FF62EF500
000AFFFFE100
0001AEFC3000
000000000000
2FFB00008FF3
0AFF2000DFD0
03FF8003FF70
00CFD008FF10
005FF40DFA00
000DF93FF400
0006FE7FE000
0000EFEF8000
00007FFF2000
00002FFB0000
00007FF50000
0013EFD00000
05FFFF300000
07FEB3000000
ENDCHAR
STARTCHAR uni045F
ENCODING 1119
SWIDTH 600 0
DWIDTH 12 0
BBX 10 14 1 -4
BITMAP
8FF7007FF8
8FF7007FF8
8FF7007FF8
8FF7007FF8
8FF7007FF8
8FF7007FF8
8FF7007FF8
8FF7007FF8
8FFFFFFFF8
8FFFFFFFF8
0006FFA663
0006FF6000
0006FF5000
0005FF3000
ENDCHAR
STARTCHAR uni0462
ENCODING 1122
SWIDTH 600 0
DWIDTH 12 0
BBX 12 14 0 0
BITMAP
005FF9000000
005FF9000000
BFFFFFFFFD00
BFFFFFFFFD00
005FF9000000
005FF9000000
005FFFFDB500
005FFFFFFFA0
005FF913DFF3
005FF9008FF6
005FF9008FF5
005FF904EFF2
005FFFFFFF80
005FFFFDB500
ENDCHAR
STARTCHAR uni0463
ENCODING 1123
SWIDTH 600 0
DWIDTH 12 0
BBX 12 12 0 0
BITMAP
000BFF300000
000BFF300000
5FFFFFFFF500
5FFFFFFFF500
000BFF300000
000BFF300000
000BFFFED810
000BFFFFFFC0
000BFF31CFF3
000BFF31CFF3
000BFFFFFFB0
000BFFFED810
ENDCHAR
STARTCHAR uni0472
ENCODING 1138
SWIDTH 600 0
DWIDTH 12 0
BBX 12 13 0 0
BITMAP
0005CEEC5000
009FFFFFF900
05FFB22BFF50
0CFF2002FFC0
1FFD0000DFF1
3FFFFFFFFFF3
3FFFFFFFFFF3
3FFC0000CFF2
1FFE0000EFF1
0BFF4004FFB0
05FFD22CFF50
009FFFFFF900
0005CEEC5000
ENDCHAR
STARTCHAR uni0473
ENCODING 1139
SWIDTH 600 0
DWIDTH 12 0
BBX 10 10 1 0
BITMAP
006CEEC600
0AFFFFFFA0
7FF9119FF7
DFE0000EFD
FFFFFFFFFF
FFFFFFFFFF
DFD0000DFD
7FF9119FF7
0AFFFFFFA0
006CEEC600
ENDCHAR
STARTCHAR uni0474
ENCODING 1140
SWIDTH 600 0
DWIDTH 12 0
BBX 13 13 0 0
BITMAP
BFF5000019EF50
6FF90000AFFF10
2FFD0002FF9100
0CFF2007FF2000
08FF600BFD0000
03FFA00EFA0000
00EFE03FF60000
009FF27FF20000
005FF6AFD00000
001EFADFA00000
000AFEFF600000
0006FFFF200000
0001FFFD000000
ENDCHAR
STARTCHAR uni0475
ENCODING 1141
SWIDTH 600 0
DWIDTH 12 0
BBX 12 10 0 0
BITMAP
1FFD00004DF9
0BFF2002EFF6
06FF7007FE20
01FFC00CFA00
00AFF22FF500
005FF66FF100
000EF9AFC000
0009FDDF8000
0004FFFF4000
0000DFFE0000
ENDCHAR
STARTCHAR uni0490
ENCODING 1168
SWIDTH 600 0
DWIDTH 12 0
BBX 9 16 2 0
BITMAP
000000CFC0
000000EFB0
000001FFA0
DFFFFFFFA0
DFFFFFFF90
DFF2000000
DFF2000000
DFF2000000
DFF2000000
DFF2000000
DFF2000000
DFF2000000
DFF2000000
DFF2000000
DFF2000000
DFF2000000
ENDCHAR
STARTCHAR uni0491
ENCODING 1169
SWIDTH 600 0
DWIDTH 12 0
BBX 9 13 2 0
BITMAP
000000DF80
000000FF80
000002FF70
9FFFFFFF60
9FFFFFFF60
9FF5000000
9FF5000000
9FF5000000
9FF5000000
9FF5000000
9FF5000000
9FF5000000
9FF5000000
ENDCHAR
STARTCHAR uni0492
ENCODING 1170
SWIDTH 600 0
DWIDTH 12 0
BBX 10 13 1 0
BITMAP
07FFFFFFFB
07FFFFFFFB
07FF700000
07FF700000
07FF700000
EFFFFFF500
FFFFFFF500
07FF700000
07FF700000
07FF700000
07FF700000
07FF700000
07FF700000
ENDCHAR
STARTCHAR uni0493
ENCODING 1171
SWIDTH 600 0
DWIDTH 12 0
BBX 11 10 0 0
BITMAP
006FFFFFFF80
006FFFFFFF80
006FF8000000
006FF8000000
006FF8000000
1DFFFFFF9000
1FFFFFFF9000
006FF8000000
006FF8000000
006FF8000000
ENDCHAR
STARTCHAR uni0496
ENCODING 1174
SWIDTH 600 0
DWIDTH 12 0
BBX 13 17 0 -4
BITMAP
CE603FF307EC00
AFF33FF33FFA00
08F83FF38F8000
03FC3FF3CF3000
01FE3FF3FF1000
00EF6FF6FE0000
00CFFFFFFC0000
00EFFFFFFE0000
05FE3FF3EF5000
0BFA3FF3AFA000
1FF63FF36FE100
7FF23FF32FFF40
CFD03FF30DFF40
0000000000EF30
0000000000EF20
0000000000EF10
0000000000EF00
ENDCHAR
STARTCHAR uni0497
ENCODING 1175
SWIDTH 600 0
DWIDTH 12 0
BBX 13 14 0 -4
BITMAP
BE802FF208EB00
8FF52FF25FF800
06FB2FF2BF6000
01FF4FF4FF1000
00CFFFFFFC0000
01EFFFFFFE1000
07FD2FF2DF6000
0DF82FF28FC000
5FF32FF23FFF30
BFD02FF20DFF30
0000000000FF30
0000000000FF20
0000000000FF10
0000000000FF00
ENDCHAR
STARTCHAR uni0498
ENCODING 1176
SWIDTH 600 0
DWIDTH 12 0
BBX 11 17 1 -4
BITMAP
05ADFEC81000
6FFFFFFFD100
0AA302CFF600
0000006FF700
000002CFF300
000FFFFF5000
000FFFFFC200
0000017FFB00
0000000DFF10
0200000DFF10
4F93029FFC00
CFFFFFFFE300
16BEFFE92000
0005FF700000
0005FF600000
0005FF600000
0005FF500000
ENDCHAR
STARTCHAR uni0499
ENCODING 1177
SWIDTH 600 0
DWIDTH 12 0
BBX 10 14 1 -4
BITMAP
17BEFEC810
9FFFFFFFD1
1B5202AFF5
000001AFF3
004FFFFE60
004FFFFFC2
0000005FFA
4C52017FFB
CFFFFFFFF4
18CFFFEA30
0009FF3000
0009FF2000
0009FF1000
0008FF0000
ENDCHAR
STARTCHAR uni049A
ENCODING 1178
SWIDTH 600 0
DWIDTH 12 0
BBX 12 17 1 -4
BITMAP
9FF50006DF50
9FF5005FFF20
9FF500DF9100
9FF506FF1000
9FF50CFA0000
9FF54FF40000
9FFFFFE00000
9FFFFFF40000
9FF53FFD0000
9FF508FF8000
9FF500DFF200
9FF5004FFFF1
9FF50009FFF1
000000007FF1
000000007FF0
000000007FE0
000000007FD0
ENDCHAR
STARTCHAR uni049B
ENCODING 1179
SWIDTH 600 0
DWIDTH 12 0
BBX 11 14 1 -4
BITMAP
7FF7001AEE00
7FF700AFFB00
7FF703FF4000
7FF70BFB0000
7FFFFFF60000
7FFFFFF90000
7FF70AFF3000
7FF702EFC000
7FF7007FFFD0
7FF7000DFFD0
000000008FD0
000000008FC0
000000008FB0
000000008F90
ENDCHAR
STARTCHAR uni04A0
ENCODING 1184
SWIDTH 600 0
DWIDTH 12 0
BBX 12 13 0 0
BITMAP
7FFFFF1009E9
7FFFFF107FF6
0008FF10DF60
0008FF12FE00
0008FF17FB00
0008FF1CF600
0008FFFFF300
0008FFFFF700
0008FF1BFE00
0008FF14FF60
0008FF10CFD0
0008FF105FF5
0008FF100DFC
ENDCHAR
STARTCHAR uni04A1
ENCODING 1185
SWIDTH 600 0
DWIDTH 12 0
BBX 12 10 0 0
BITMAP
6FFFFF104CF3
6FFFFF11EFF0
0008FF16FD10
0008FF1BF800
0008FFFFF400
0008FFFFF500
0008FF1AFD00
0008FF12FF70
0008FF109FE1
0008FF102FF9
ENDCHAR
STARTCHAR uni04A2
ENCODING 1186
SWIDTH 600 0
DWIDTH 12 0
BBX 12 17 1 -4
BITMAP
BFF3005FF900
BFF3005FF900
BFF3005FF900
BFF3005FF900
BFF3005FF900
BFF3005FF900
BFFFFFFFF900
BFFFFFFFF900
BFF3005FF900
BFF3005FF900
BFF3005FF900
BFF3005FFFF2
BFF3005FFFF2
000000006FF1
000000006FF0
000000006FE0
000000006FD0
ENDCHAR
STARTCHAR uni04A3
ENCODING 1187
SWIDTH 600 0
DWIDTH 12 0
BBX 11 14 1 -4
BITMAP
8FF600CFF200
8FF600CFF200
8FF600CFF200
8FF600CFF200
8FFFFFFFF200
8FFFFFFFF200
8FF600CFF200
8FF600CFF200
8FF600CFFFB0
8FF600CFFFB0
00000001FFA0
00000001FF90
00000001FF80
00000001FF70
ENDCHAR
STARTCHAR uni04AA
ENCODING 1194
SWIDTH 600 0
DWIDTH 12 0
BBX 11 17 1 -4
BITMAP
0005BEFD9200
01BFFFFFFD00
0AFFA204B200
4FFC00000000
9FF600000000
CFF300000000
EFF200000000
DFF300000000
BFF600000000
6FFD00000000
0DFFB204D600
02EFFFFFFF20
0019EFFEA300
00003FF90000
00003FF80000
00003FF70000
00003FF60000
ENDCHAR
STARTCHAR uni04AB
ENCODING 1195
SWIDTH 600 0
DWIDTH 12 0
BBX 10 14 1 -4
BITMAP
0017CEFD82
03DFFFFFF7
1DFF921580
6FFB000000
9FF7000000
9FF7000000
7FFB000000
1EFF8214B2
05FFFFFFFA
003AFFFE92
00009FF400
00008FF300
00008FF200
00007FF100
ENDCHAR
STARTCHAR uni04AE
ENCODING 1198
SWIDTH 600 0
DWIDTH 12 0
BBX 12 13 0 0
BITMAP
7FFA00009FF7
1EFF2001EFE1
07FF8007FF70
01EFE00DFE10
007FF54FF700
001EFBAFE100
0008FFFF8000
0001EFFE1000
00009FF90000
00007FF70000
00007FF70000
00007FF70000
00007FF70000
ENDCHAR
STARTCHAR uni04AF
ENCODING 1199
SWIDTH 600 0
DWIDTH 12 0
BBX 12 14 0 -4
BITMAP
3FFB00009FF3
0CFF1000EFC0
06FF7004FF70
01FFC00AFF10
00AFF20EFB00
004FF64FF500
000DFB9FE100
0008FEDF9000
0002FFFF4000
0000BFFD0000
00007FF90000
00006FF80000
00006FF80000
00006FF80000
ENDCHAR
STARTCHAR uni04B0
ENCODING 1200
SWIDTH 600 0
DWIDTH 12 0
BBX 12 13 0 0
BITMAP
6FFA00009FF6
0DFF2001EFD0
06FF8007FF60
00DFE00DFD00
006FF54FF600
000DFBAFD000
0005FFFF5000
05EFFFFFFF60
06FFFFFFFF60
00007FF70000
00007FF70000
00007FF70000
00007FF70000
ENDCHAR
STARTCHAR uni04B1
ENCODING 1201
SWIDTH 600 0
DWIDTH 12 0
BBX 12 14 0 -4
BITMAP
2FFB00009FF2
0BFF1000EFB0
05FF7004FF50
00DFC00AFE00
007FF20EF800
001FF64FF200
0009FB9FB000
0003FEDF5000
04EFFFFFFF50
05FFFFFFFF50
00006FF80000
00006FF80000
00006FF80000
00006FF80000
ENDCHAR
STARTCHAR uni04B2
ENCODING 1202
SWIDTH 600 0
DWIDTH 12 0
BBX 12 17 0 -4
BITMAP
2FFF2001EFF2
09FFA007FF90
01EFF20EFE10
007FF96FF700
000DFFDFD100
0005FFFF6000
0001EFFE0000
0008FFFF6000
002FFBEFD000
00AFF47FF600
03FFC01EFE10
0CFF4007FFFE
5FFB0000DFFE
0000000008FD
0000000008FD
0000000008FC
0000000008FB
ENDCHAR
STARTCHAR uni04B3
ENCODING 1203
SWIDTH 600 0
DWIDTH 12 0
BBX 12 14 0 -4
BITMAP
0BFF7005FFB0
02EFE20DFE20
005FFA5FF700
000AFFEFC000
0001EFFF3000
0004FFFE1000
001DFDFFA000
009FF49FF400
04FFA01DFFF8
1DFF2004FFF8
000000003FF8
000000003FF7
000000003FF6
000000003FF5
ENDCHAR
STARTCHAR uni04B6
ENCODING 1206
SWIDTH 600 0
DWIDTH 12 0
BBX 13 17 0 -4
BITMAP
2FFC0005FF9000
2FFC0005FF9000
2FFC0005FF9000
2FFC0005FF9000
0FFE0005FF9000
0BFF8106FF9000
03FFFFFFFF9000
003ADFFEFF9000
00000005FF9000
00000005FF9000
00000005FF9000
00000005FFFF10
00000005FFFF10
000000000AFF00
000000000AFF00
000000000AFE00
000000000AFD00
ENDCHAR
STARTCHAR uni04B7
ENCODING 1207
SWIDTH 600 0
DWIDTH 12 0
BBX 11 14 1 -4
BITMAP
BFF300CFF200
BFF300CFF200
BFF300CFF200
AFF400CFF200
8FFA11CFF200
2EFFFFFFF200
02ADFEFFF200
000000CFF200
000000CFFFB0
000000CFFFB0
00000001FFA0
00000001FF90
00000001FF80
00000001FF70
ENDCHAR
STARTCHAR uni04BA
ENCODING 1210
SWIDTH 600 0
DWIDTH 12 0
BBX 11 13 1 0
BITMAP
CFF300000000
CFF300000000
CFF300000000
CFF300000000
CFF300000000
CFFEFEDA3000
CFFFFFFFF300
CFF4018FFB00
CFF3000EFF00
CFF3000CFF10
CFF3000CFF10
CFF3000CFF10
CFF3000CFF10
ENDCHAR
STARTCHAR uni04BB
ENCODING 1211
SWIDTH 600 0
DWIDTH 12 0
BBX 10 14 1 0
BITMAP
8FF6000000
8FF6000000
8FF6000000
8FF5000000
8FF46DFD60
8FFDFFFFF3
8FFE518FF9
8FF7003FFB
8FF6002FFC
8FF6002FFC
8FF6002FFC
8FF6002FFC
8FF6002FFC
8FF6002FFC
ENDCHAR
STARTCHAR uni04C0
ENCODING 1216
SWIDTH 600 0
DWIDTH 12 0
BBX 10 13 1 0
BITMAP
8FFFFFFFF8
8FFFFFFFF8
0007FF7000
0007FF7000
0007FF7000
0007FF7000
0007FF7000
0007FF7000
0007FF7000
0007FF7000
0007FF7000
8FFFFFFFF8
8FFFFFFFF8
ENDCHAR
STARTCHAR uni04C1
ENCODING 1217
SWIDTH 600 0
DWIDTH 12 0
BBX 12 17 0 0
BITMAP
000110011000
006FF33FF600
0008DFFD7000
000000000000
CE603FF307EC
AFF33FF33FFA
08F83FF38F80
03FC3FF3CF30
01FE3FF3FF10
00EF6FF6FE00
00CFFFFFFC00
00EFFFFFFE00
05FE3FF3EF50
0BFA3FF3AFB0
1FF63FF36FF1
7FF23FF32FF7
CFD03FF30DFC
ENDCHAR
STARTCHAR uni04C2
ENCODING 1218
SWIDTH 600 0
DWIDTH 12 0
BBX 12 16 0 0
BITMAP
000110011000
006FE00EF600
003FF44FF300
000CFFFFC000
0002BEEB2000
000000000000
BE802FF208EB
8FF52FF25FF8
06FB2FF2BF60
01FF4FF4FF10
00CFFFFFFC00
01EFFFFFFE10
07FD2FF2DF70
0DF82FF28FD0
5FF32FF23FF5
BFD02FF20DFB
ENDCHAR
STARTCHAR uni04CF
ENCODING 1231
SWIDTH 600 0
DWIDTH 12 0
BBX 10 14 1 0
BITMAP
FFFFFF1000
FFFFFF1000
000DFF1000
000DFF1000
000DFF1000
000DFF1000
000DFF1000
000DFF1000
000DFF1000
000DFF1000
000CFF1000
0009FF8021
0002FFFFF8
00004CFFD8
ENDCHAR
STARTCHAR uni04D0
ENCODING 1232
SWIDTH 600 0
DWIDTH 12 0
BBX 12 17 0 0
BITMAP
000110011000
006FF33FF600
0008DFFD7000
000000000000
0000EFFE0000
0004FFFF3000
0008FDEF8000
000DF9BFD000
003FF68FF200
007FF24FF700
00CFE01FFC00
02FFA00CFF20
06FFFFFFFF60
0BFFFFFFFFB0
1FFD0000EFF1
5FF90000AFF5
AFF500006FFA
ENDCHAR
STARTCHAR uni04D1
ENCODING 1233
SWIDTH 600 0
DWIDTH 12 0
BBX 10 16 1 0
BITMAP
0001001100
00EF508FC0
00CF91CF90
006FFFFF30
0008DFD500
0000000000
039CEFD810
3FFFFFFFC0
088313DFF6
0000005FF9
0059CDFFFA
2DFFFFFFFB
AFFA414FFB
BFF403AFFB
6FFFFFEFFB
07DFD81CFB
ENDCHAR
STARTCHAR uni04D4
ENCODING 1236
SWIDTH 600 0
DWIDTH 12 0
BBX 12 13 0 0
BITMAP
0000DFFFFFFB
0003FFFFFFFB
0008FFDFC000
000DFCCFC000
003FF8CFC000
008FF4CFC000
00DFE0CFFFF3
03FFA0CFFFF3
08FFFFFFC000
0DFFFFFFC000
3FFB00CFC000
8FF600CFFFFE
DFF200CFFFFE
ENDCHAR
STARTCHAR uni04D5
ENCODING 1237
SWIDTH 600 0
DWIDTH 12 0
BBX 12 10 0 0
BITMAP
17CFD62BFD40
2EFFFFDFFFE2
05416FF90BF7
005AEFF307FB
0AFFFFFFFFFC
6FFA4FFFFFFC
AFF10FF40000
9FF24FFC2250
5FFFFDEFFFF3
07EE913BEEA2
ENDCHAR
STARTCHAR uni04D6
ENCODING 1238
SWIDTH 600 0
DWIDTH 12 0
BBX 10 17 1 0
BITMAP
0001101100
00EF91BFD0
004BEFEA30
0000000000
2FFFFFFFF7
2FFFFFFFF7
2FFC000000
2FFC000000
2FFC000000
2FFC000000
2FFFFFFF90
2FFFFFFF90
2FFC000000
2FFC000000
2FFC000000
2FFFFFFFFA
2FFFFFFFFA
ENDCHAR
STARTCHAR uni04D7
ENCODING 1239
SWIDTH 600 0
DWIDTH 12 0
BBX 10 16 1 0
BITMAP
0011001100
02FF20AF90
00FF72EF70
009FFFFE10
0019EFC400
0000000000
004AEFD810
07FFFFFFC1
4FFD316FF7
AFF4000CFC
DFFFFFFFFE
DFFFFFFFFD
AFF4000000
4FFD411470
07FFFFFFF4
004AEFEB61
ENDCHAR
STARTCHAR uni04D8
ENCODING 1240
SWIDTH 600 0
DWIDTH 12 0
BBX 11 13 1 0
BITMAP
018DFEB50000
07FFFFFF8000
00A513DFF400
0000004FFB00
0000000EFF00
0000000CFF20
FFFFFFFFFF30
EFFFFFFFFF20
DFF0000DFE00
9FF3002FFA00
3FFC21BFF400
07FFFFFF8000
004BEEC50000
ENDCHAR
STARTCHAR uni04D9
ENCODING 1241
SWIDTH 600 0
DWIDTH 12 0
BBX 10 10 1 0
BITMAP
04ADFEB400
1EFFFFFF80
055213CFF4
0000003FFA
DFFFFFFFFD
DFFFFFFFFD
CFD0003FFA
7FF712CFF4
0BFFFFFF80
007DFEB400
ENDCHAR
STARTCHAR uni04E2
ENCODING 1250
SWIDTH 600 0
DWIDTH 12 0
BBX 10 16 1 0
BITMAP
00EFFFFF10
00EFFFFF10
0000000000
BFE0008FFB
BFE001EFFB
BFE007FFFB
BFE00DFFFB
BFE06FFBFB
BFD0CFABFB
BFC4FF4CFB
BFBAFC0DFB
BFBFF50EFB
BFEFD00EFB
BFFF700EFB
BFFE100EFB
BFF8000EFB
ENDCHAR
STARTCHAR uni04E3
ENCODING 1251
SWIDTH 600 0
DWIDTH 12 0
BBX 10 14 1 0
BITMAP
009FFFFF40
009FFFFF40
0000000000
0000000000
8FF4007FF8
8FF402EFF8
8FF40AFFF8
8FF44FEFF8
8FF3DF8FF8
8FF8FD4FF8
8FFEF44FF8
8FFFA04FF8
8FFE204FF8
8FF7004FF8
ENDCHAR
STARTCHAR uni04E6
ENCODING 1254
SWIDTH 600 0
DWIDTH 12 0
BBX 12 17 0 0
BITMAP
004EB11BE400
00AFF33FFA00
004EB01BE400
000000000000
0005CEEC5000
009FFFFFF900
05FFC22CFF50
0CFF3004FFC0
1FFE0000EFF1
3FFC0000CFF3
3FFC0000CFF3
3FFC0000CFF3
1FFE0000EFF1
0BFF4004FFB0
05FFC22CFF50
009FFFFFF900
0005CEEC5000
ENDCHAR
STARTCHAR uni04E7
ENCODING 1255
SWIDTH 600 0
DWIDTH 12 0
BBX 10 15 1 0
BITMAP
05EC11CE50
0CFF55FFB0
06EC11CE50
0000000000
0000000000
005BEEB500
0AFFFFFFA0
6FFB22BFF6
DFF3003FFD
FFF0000FFF
FFF0000FFF
DFF3003FFD
6FFB22BFF6
0AFFFFFFA0
006CEEC600
ENDCHAR
STARTCHAR uni04E8
ENCODING 1256
SWIDTH 600 0
DWIDTH 12 0
BBX 12 13 0 0
BITMAP
0005CEEC5000
009FFFFFF900
05FFB22BFF50
0CFF2002FFC0
1FFD0000DFF1
3FFFFFFFFFF3
3FFFFFFFFFF3
3FFC0000CFF2
1FFE0000EFF1
0BFF4004FFB0
05FFD22CFF50
009FFFFFF900
0005CEEC5000
ENDCHAR
STARTCHAR uni04E9
ENCODING 1257
SWIDTH 600 0
DWIDTH 12 0
BBX 10 10 1 0
BITMAP
006CEEC600
0AFFFFFFA0
7FF9119FF7
DFE0000EFD
FFFFFFFFFF
FFFFFFFFFF
DFD0000DFD
7FF9119FF7
0AFFFFFFA0
006CEEC600
ENDCHAR
STARTCHAR uni04EE
ENCODING 1262
SWIDTH 600 0
DWIDTH 12 0
BBX 12 16 0 0
BITMAP
000DFFFFF300
000DFFFFF300
000000000000
5FFC00008FF7
0DFF3000DFE1
06FF9004FF90
00DFE109FF30
007FF60EFC00
001EFB5FF600
0008FFBFE100
0001EFFF9000
00009FFF3000
00003FFC0000
00119FF40000
00BFFFA00000
00DFD7000000
ENDCHAR
STARTCHAR uni04EF
ENCODING 1263
SWIDTH 600 0
DWIDTH 12 0
BBX 12 18 0 -4
BITMAP
000CFFFFF200
000CFFFFF200
000000000000
000000000000
2FFB00008FF3
0AFF2000DFD0
03FF8003FF70
00CFD008FF10
005FF40DFA00
000DF93FF400
0006FE7FE000
0000EFEF8000
00007FFF2000
00002FFB0000
00007FF50000
0013EFD00000
05FFFF300000
07FEB3000000
ENDCHAR
STARTCHAR uni04F2
ENCODING 1266
SWIDTH 600 0
DWIDTH 12 0
BBX 12 18 0 0
BITMAP
00001C603C30
00008FD1CFA0
0002FE26FC00
0004C406C100
000000000000
5FFC00008FF7
0DFF3000DFE1
06FF9004FF90
00DFE109FF30
007FF60EFC00
001EFB5FF600
0008FFBFE100
0001EFFF9000
00009FFF3000
00003FFC0000
00119FF40000
00BFFFA00000
00DFD7000000
ENDCHAR
STARTCHAR uni04F3
ENCODING 1267
SWIDTH 600 0
DWIDTH 12 0
BBX 12 19 0 -4
BITMAP
00001C716B40
00007FC1DF60
0001EE27FA00
0003B607C100
000000000000
2FFB00008FF3
0AFF2000DFD0
03FF8003FF70
00CFD008FF10
005FF40DFA00
000DF93FF400
0006FE7FE000
0000EFEF8000
00007FFF2000
00002FFB0000
00007FF50000
0013EFD00000
05FFFF300000
07FEB3000000
ENDCHAR
STARTCHAR a.sups
ENCODING 7491
SWIDTH 600 0
DWIDTH 12 0
BBX 7 7 3 7
BITMAP
29EEB300
AFFFFD00
2513FF20
18CEFF30
DFFFFF30
FFFFFF30
6EE88F30
ENDCHAR
STARTCHAR b.sups
ENCODING 7495
SWIDTH 600 0
DWIDTH 12 0
BBX 7 10 3 7
BITMAP
67100000
EF200000
EF200000
EF8ED500
EFFFFF20
EF51CF70
EF209F80
EF41DF60
EFFFFE10
EC8EC300
ENDCHAR
STARTCHAR d.sups
ENCODING 7496
SWIDTH 600 0
DWIDTH 12 0
BBX 8 10 2 7
BITMAP
00000770
00000FF1
00000FF1
02BE9FF1
0DFFFFF1
4FE22FF1
6FB00FF1
5FE23FF1
1EFFFFF1
04CE8BF1
ENDCHAR
STARTCHAR e.sups
ENCODING 7497
SWIDTH 600 0
DWIDTH 12 0
BBX 8 7 2 7
BITMAP
008EE910
09FFFFA0
2FE31BF1
4FFFFFF3
2FFFFFF4
0AFFFFB0
018DEC50
ENDCHAR
STARTCHAR g.sups
ENCODING 7501
SWIDTH 600 0
DWIDTH 12 0
BBX 8 10 2 4
BITMAP
02BEFFF9
0CFFFFF9
0FE27F70
0AFFFF60
09FEE900
0DFFFEB1
09FFFFF9
3F8018F9
3FFFFFF4
06DFEA30
ENDCHAR
STARTCHAR k.sups
ENCODING 7503
SWIDTH 600 0
DWIDTH 12 0
BBX 7 10 3 7
BITMAP
9C300000
CF400000
CF400000
CF41CF60
CF5BF700
CFDFA000
CFFFD100
CFB9F900
CF41DF40
79203970
ENDCHAR
STARTCHAR m.sups
ENCODING 7504
SWIDTH 600 0
DWIDTH 12 0
BBX 11 7 0 7
BITMAP
1FB6ED37EC20
1FFFFFEFFFA0
1FF44FF45FD0
1FF11FF02FE0
1FF11FF02FE0
1FF11FF02FE0
1FF11FF02FE0
ENDCHAR
STARTCHAR o.sups
ENCODING 7506
SWIDTH 600 0
DWIDTH 12 0
BBX 8 7 2 7
BITMAP
019EE910
0BFFFFA0
3FE22EF3
5FC00CF5
3FE22EF3
0BFFFFB0
019EE910
ENDCHAR
STARTCHAR p.sups
ENCODING 7510
SWIDTH 600 0
DWIDTH 12 0
BBX 7 9 3 5
BITMAP
ED7ED500
EFFFFF20
EF51CF70
EF209F80
EF41DF60
EFFFFE10
EF8EC300
EF200000
EF200000
ENDCHAR
STARTCHAR t.sups
ENCODING 7511
SWIDTH 600 0
DWIDTH 12 0
BBX 7 9 3 7
BITMAP
05E70000
07F70000
FFFFFF10
FFFFFF10
09F70000
09F70000
09FA1200
05FFFF20
008DFC30
ENDCHAR
STARTCHAR u.sups
ENCODING 7512
SWIDTH 600 0
DWIDTH 12 0
BBX 8 7 2 7
BITMAP
2FE00EF2
2FE00EF2
2FE00EF2
2FE00EF2
1FF24FF2
0EFFFEF2
05EE6AF2
ENDCHAR
STARTCHAR v.sups
ENCODING 7515
SWIDTH 600 0
DWIDTH 12 0
BBX 8 7 2 7
BITMAP
8F800AF5
3FD00EE0
0CF34FA0
07F89F50
02FCDE00
00CFFA00
007FF500
ENDCHAR
STARTCHAR c.sups
ENCODING 7580
SWIDTH 600 0
DWIDTH 12 0
BBX 7 7 3 7
BITMAP
019DE900
1DFFFC00
7FD21200
9F800000
7FD21300
1EFFFE10
02AED910
ENDCHAR
STARTCHAR f.sups
ENCODING 7584
SWIDTH 600 0
DWIDTH 12 0
BBX 8 10 3 7
BITMAP
0019EEB1
009FFFE0
00CF6020
5FFFFF60
5FFFFF60
00DF3000
00DF3000
00DF3000
00DF3000
00DF3000
ENDCHAR
STARTCHAR z.sups
ENCODING 7611
SWIDTH 600 0
DWIDTH 12 0
BBX 7 7 3 7
BITMAP
9FFFFF40
9FFFFD10
002EE200
01DF3000
0BF50000
AFFFFF50
FFFFFF50
ENDCHAR
STARTCHAR uni1E06
ENCODING 7686
SWIDTH 600 0
DWIDTH 12 0
BBX 11 17 1 -4
BITMAP
8FFFFED93000
8FFFFFFFF300
8FF6019FF800
8FF6004FF900
8FF602BFF300
8FFFFFFC4000
8FFFFFFFB200
8FF6015FFD00
8FF6000BFF20
8FF6000BFF30
8FF6016FFE00
8FFFFFFFF500
8FFFFFD93000
000000000000
000000000000
00CFFFFF2000
00CFFFFF2000
ENDCHAR
STARTCHAR uni1E07
ENCODING 7687
SWIDTH 600 0
DWIDTH 12 0
BBX 11 18 1 -4
BITMAP
8FF600000000
8FF600000000
8FF600000000
8FF600000000
8FF69EEB3000
8FFFFFFFE200
8FFD31AFFA00
8FF6002FFE00
8FF6000FFF10
8FF6000FFF00
8FF6003FFD00
8FFD32BFF700
8FFEFFFFC000
8FD2BEE81000
000000000000
000000000000
00BFFFFF2000
00BFFFFF2000
ENDCHAR
STARTCHAR uni1E0C
ENCODING 7692
SWIDTH 600 0
DWIDTH 12 0
BBX 11 18 1 -5
BITMAP
9FFFFD930000
9FFFFFFF7000
9FF526EFF400
9FF5005FFC00
9FF5000EFF10
9FF5000CFF30
9FF5000BFF40
9FF5000CFF30
9FF5000EFF10
9FF5006FFB00
9FF526EFF400
9FFFFFFF7000
9FFFFDA30000
000000000000
0005ED400000
000DFFD00000
000DFFD00000
0005EE500000
ENDCHAR
STARTCHAR uni1E0D
ENCODING 7693
SWIDTH 600 0
DWIDTH 12 0
BBX 10 19 1 -5
BITMAP
0000006FF8
0000006FF8
0000006FF8
0000005FF8
019EFB7FF8
1CFFFFFFF8
8FFC22CFF8
DFF3006FF8
FFF0006FF8
FFF0006FF8
EFF2006FF8
9FFA13DFF8
1EFFFFEFF8
02AEEA2EF8
0000000000
0003DE6000
000AFFF000
000BFFF100
0003DE7000
ENDCHAR
STARTCHAR uni1E0E
ENCODING 7694
SWIDTH 600 0
DWIDTH 12 0
BBX 11 17 1 -4
BITMAP
9FFFFD930000
9FFFFFFF7000
9FF526EFF400
9FF5005FFC00
9FF5000EFF10
9FF5000CFF30
9FF5000BFF40
9FF5000CFF30
9FF5000EFF10
9FF5006FFB00
9FF526EFF400
9FFFFFFF7000
9FFFFDA30000
000000000000
000000000000
00FFFFFE0000
00FFFFFE0000
ENDCHAR
STARTCHAR uni1E0F
ENCODING 7695
SWIDTH 600 0
DWIDTH 12 0
BBX 10 18 1 -4
BITMAP
0000006FF8
0000006FF8
0000006FF8
0000005FF8
019EFB7FF8
1CFFFFFFF8
8FFC22CFF8
DFF3006FF8
FFF0006FF8
FFF0006FF8
EFF2006FF8
9FFA13DFF8
1EFFFFEFF8
02AEEA2EF8
0000000000
0000000000
00CFFFFF20
00CFFFFF20
ENDCHAR
STARTCHAR uni1E10
ENCODING 7696
SWIDTH 600 0
DWIDTH 12 0
BBX 11 18 1 -5
BITMAP
9FFFFD930000
9FFFFFFF7000
9FF526EFF400
9FF5005FFC00
9FF5000EFF10
9FF5000CFF30
9FF5000BFF40
9FF5000CFF30
9FF5000EFF10
9FF5006FFB00
9FF526EFF400
9FFFFFFF7000
9FFFFDA30000
0005F5000000
000CFC200000
0002CF800000
0002CF500000
007EB5000000
ENDCHAR
STARTCHAR uni1E11
ENCODING 7697
SWIDTH 600 0
DWIDTH 12 0
BBX 10 19 1 -5
BITMAP
0000006FF8
0000006FF8
0000006FF8
0000005FF8
019EFB7FF8
1CFFFFFFF8
8FFC22CFF8
DFF3006FF8
FFF0006FF8
FFF0006FF8
EFF2006FF8
9FFA13DFF8
1EFFFFEFF8
02AEEA2EF8
0006F40000
000DFB1000
0003DF6000
0003DF4000
009DB50000
ENDCHAR
STARTCHAR uni1E16
ENCODING 7702
SWIDTH 600 0
DWIDTH 12 0
BBX 10 20 1 0
BITMAP
000002B600
00008FFB00
00009A3000
0000000000
008FFFFF70
008FFFFF70
0000000000
2FFFFFFFF7
2FFFFFFFF7
2FFC000000
2FFC000000
2FFC000000
2FFC000000
2FFFFFFF90
2FFFFFFF90
2FFC000000
2FFC000000
2FFC000000
2FFFFFFFFA
2FFFFFFFFA
ENDCHAR
STARTCHAR uni1E17
ENCODING 7703
SWIDTH 600 0
DWIDTH 12 0
BBX 10 18 1 0
BITMAP
000004C200
00019FE600
0000B81000
0000000000
00BFFFFF30
00BFFFFF30
0000000000
0000000000
004AEFD810
07FFFFFFC1
4FFD316FF7
AFF4000CFC
DFFFFFFFFE
DFFFFFFFFD
AFF4000000
4FFD411470
07FFFFFFF4
004AEFEB61
ENDCHAR
STARTCHAR uni1E20
ENCODING 7712
SWIDTH 600 0
DWIDTH 12 0
BBX 11 16 0 0
BITMAP
0006FFFFF900
0006FFFFF900
000000000000
00018CEEC600
003DFFFFFF60
01DFF8118800
08FF90000000
0DFF30000000
1FFF10000000
2FFE009FFFE0
1FFF009FFFE0
0DFF3000BFE0
09FF9000BFE0
02EFF611CFE0
004EFFFFFFC0
00028DFEC600
ENDCHAR
STARTCHAR uni1E21
ENCODING 7713
SWIDTH 600 0
DWIDTH 12 0
BBX 11 18 1 -4
BITMAP
00DFFFFF0000
00DFFFFF0000
000000000000
000000000000
017CEFFFFF50
0BFFFFFFFF50
6FF914FF9000
8FF400DFB000
5FFB36FF9000
0BFFFFFD1000
0AFBCB810000
5FF200000000
4FFFFFFEB500
0BFEFFFFFF30
8F900018FF60
EFC3013CFF30
AFFFFFFFF700
07CEFEC93000
ENDCHAR
STARTCHAR uni1E24
ENCODING 7716
SWIDTH 600 0
DWIDTH 12 0
BBX 10 18 1 -5
BITMAP
BFF3003FFB
BFF3003FFB
BFF3003FFB
BFF3003FFB
BFF3003FFB
BFF3003FFB
BFFFFFFFFB
BFFFFFFFFB
BFF3003FFB
BFF3003FFB
BFF3003FFB
BFF3003FFB
BFF3003FFB
0000000000
0004DD4000
000DFFD000
000DFFD000
0005EE5000
ENDCHAR
STARTCHAR uni1E25
ENCODING 7717
SWIDTH 600 0
DWIDTH 12 0
BBX 10 19 1 -5
BITMAP
8FF6000000
8FF6000000
8FF6000000
8FF5000000
8FF46DFD60
8FFDFFFFF3
8FFE518FF9
8FF7003FFB
8FF6002FFC
8FF6002FFC
8FF6002FFC
8FF6002FFC
8FF6002FFC
8FF6002FFC
0000000000
0003DE6000
000AFFF000
000BFFF100
0003DE7000
ENDCHAR
STARTCHAR uni1E26
ENCODING 7718
SWIDTH 600 0
DWIDTH 12 0
BBX 10 17 1 0
BITMAP
04EB11BE40
0AFF33FFA0
04EB01BE40
0000000000
BFF3003FFB
BFF3003FFB
BFF3003FFB
BFF3003FFB
BFF3003FFB
BFF3003FFB
BFFFFFFFFB
BFFFFFFFFB
BFF3003FFB
BFF3003FFB
BFF3003FFB
BFF3003FFB
BFF3003FFB
ENDCHAR
STARTCHAR uni1E27
ENCODING 7719
SWIDTH 600 0
DWIDTH 12 0
BBX 12 18 -1 0
BITMAP
5EB01CE30000
BFF25FF80000
5EB01CE30000
000000000000
008FF6000000
008FF6000000
008FF6000000
008FF5000000
008FF46DFD60
008FFDFFFFF3
008FFE518FF9
008FF7003FFB
008FF6002FFC
008FF6002FFC
008FF6002FFC
008FF6002FFC
008FF6002FFC
008FF6002FFC
ENDCHAR
STARTCHAR uni1E28
ENCODING 7720
SWIDTH 600 0
DWIDTH 12 0
BBX 11 18 0 -5
BITMAP
0BFF3003FFB0
0BFF3003FFB0
0BFF3003FFB0
0BFF3003FFB0
0BFF3003FFB0
0BFF3003FFB0
0BFFFFFFFFB0
0BFFFFFFFFB0
0BFF3003FFB0
0BFF3003FFB0
0BFF3003FFB0
0BFF3003FFB0
0BFF3003FFB0
03F700000000
0AFD30000000
01AFA0000000
02AF70000000
5EC600000000
ENDCHAR
STARTCHAR uni1E29
ENCODING 7721
SWIDTH 600 0
DWIDTH 12 0
BBX 11 19 0 -5
BITMAP
08FF60000000
08FF60000000
08FF60000000
08FF50000000
08FF46DFD600
08FFDFFFFF30
08FFE518FF90
08FF7003FFB0
08FF6002FFC0
08FF6002FFC0
08FF6002FFC0
08FF6002FFC0
08FF6002FFC0
08FF6002FFC0
01E900000000
08FE50000000
019FC0000000
019FA0000000
3EC710000000
ENDCHAR
STARTCHAR uni1E2A
ENCODING 7722
SWIDTH 600 0
DWIDTH 12 0
BBX 10 18 1 -5
BITMAP
BFF3003FFB
BFF3003FFB
BFF3003FFB
BFF3003FFB
BFF3003FFB
BFF3003FFB
BFFFFFFFFB
BFFFFFFFFB
BFF3003FFB
BFF3003FFB
BFF3003FFB
BFF3003FFB
BFF3003FFB
0000000000
0021001200
04FB11BF40
01DFFFFD10
002BEEB200
ENDCHAR
STARTCHAR uni1E2B
ENCODING 7723
SWIDTH 600 0
DWIDTH 12 0
BBX 10 19 1 -5
BITMAP
8FF6000000
8FF6000000
8FF6000000
8FF5000000
8FF46DFD60
8FFDFFFFF3
8FFE518FF9
8FF7003FFB
8FF6002FFC
8FF6002FFC
8FF6002FFC
8FF6002FFC
8FF6002FFC
8FF6002FFC
0000000000
0022001300
02FC219F60
00CFFFFE20
001AEEC400
ENDCHAR
STARTCHAR uni1E32
ENCODING 7730
SWIDTH 600 0
DWIDTH 12 0
BBX 11 18 1 -5
BITMAP
AFF5002EFE30
AFF500CFF600
AFF508FF9000
AFF54FFC1000
AFF6EFE20000
AFFEFFC00000
AFFFFFF50000
AFFFDFFD0000
AFFE2AFF6000
AFF602FFE100
AFF500AFF800
AFF5002FFE10
AFF50009FF90
000000000000
0000AEA00000
0005FFF50000
0006FFF60000
0001BEB00000
ENDCHAR
STARTCHAR uni1E33
ENCODING 7731
SWIDTH 600 0
DWIDTH 12 0
BBX 11 19 1 -5
BITMAP
7FF700000000
7FF700000000
7FF700000000
7FF700000000
7FF7004FFD10
7FF703EFE200
7FF72EFE3000
7FF8DFE40000
7FFFFFD10000
7FFFFFF90000
7FFF6BFF4000
7FF902EFD100
7FF7007FFA00
7FF7000CFF50
000000000000
0000AEA00000
0006FFF50000
0006FFF50000
0001BEA00000
ENDCHAR
STARTCHAR uni1E34
ENCODING 7732
SWIDTH 600 0
DWIDTH 12 0
BBX 11 17 1 -4
BITMAP
AFF5002EFE30
AFF500CFF600
AFF508FF9000
AFF54FFC1000
AFF6EFE20000
AFFEFFC00000
AFFFFFF50000
AFFFDFFD0000
AFFE2AFF6000
AFF602FFE100
AFF500AFF800
AFF5002FFE10
AFF50009FF90
000000000000
000000000000
007FFFFF7000
007FFFFF7000
ENDCHAR
STARTCHAR uni1E35
ENCODING 7733
SWIDTH 600 0
DWIDTH 12 0
BBX 11 18 1 -4
BITMAP
7FF700000000
7FF700000000
7FF700000000
7FF700000000
7FF7004FFD10
7FF703EFE200
7FF72EFE3000
7FF8DFE40000
7FFFFFD10000
7FFFFFF90000
7FFF6BFF4000
7FF902EFD100
7FF7007FFA00
7FF7000CFF50
000000000000
000000000000
007FFFFF7000
007FFFFF7000
ENDCHAR
STARTCHAR uni1E36
ENCODING 7734
SWIDTH 600 0
DWIDTH 12 0
BBX 9 18 2 -5
BITMAP
DFF1000000
DFF1000000
DFF1000000
DFF1000000
DFF1000000
DFF1000000
DFF1000000
DFF1000000
DFF1000000
DFF1000000
DFF1000000
DFFFFFFFD0
DFFFFFFFD0
0000000000
0008EC2000
002FFF8000
002FFF9000
0008EC2000
ENDCHAR
STARTCHAR uni1E37
ENCODING 7735
SWIDTH 600 0
DWIDTH 12 0
BBX 10 19 1 -5
BITMAP
FFFFFF1000
FFFFFF1000
000DFF1000
000DFF1000
000DFF1000
000DFF1000
000DFF1000
000DFF1000
000DFF1000
000DFF1000
000CFF1000
0009FF8021
0002FFFFF8
00004CFFD8
0000000000
00001CE900
00008FFF30
00008FFF30
00002CE900
ENDCHAR
STARTCHAR uni1E38
ENCODING 7736
SWIDTH 600 0
DWIDTH 12 0
BBX 11 21 0 -5
BITMAP
2FFFFFD00000
2FFFFFD00000
000000000000
00DFF1000000
00DFF1000000
00DFF1000000
00DFF1000000
00DFF1000000
00DFF1000000
00DFF1000000
00DFF1000000
00DFF1000000
00DFF1000000
00DFF1000000
00DFFFFFFFD0
00DFFFFFFFD0
000000000000
000008EC2000
00002FFF8000
00002FFF9000
000008EC2000
ENDCHAR
STARTCHAR uni1E39
ENCODING 7737
SWIDTH 600 0
DWIDTH 12 0
BBX 10 22 1 -5
BITMAP
08FFFFF800
08FFFFF800
0000000000
FFFFFF1000
FFFFFF1000
000DFF1000
000DFF1000
000DFF1000
000DFF1000
000DFF1000
000DFF1000
000DFF1000
000DFF1000
000CFF1000
0009FF8021
0002FFFFF8
00004CFFD8
0000000000
00001CE900
00008FFF30
00008FFF30
00002CE900
ENDCHAR
STARTCHAR uni1E3A
ENCODING 7738
SWIDTH 600 0
DWIDTH 12 0
BBX 9 17 2 -4
BITMAP
DFF1000000
DFF1000000
DFF1000000
DFF1000000
DFF1000000
DFF1000000
DFF1000000
DFF1000000
DFF1000000
DFF1000000
DFF1000000
DFFFFFFFD0
DFFFFFFFD0
0000000000
0000000000
04FFFFFA00
04FFFFFA00
ENDCHAR
STARTCHAR uni1E3B
ENCODING 7739
SWIDTH 600 0
DWIDTH 12 0
BBX 10 18 1 -4
BITMAP
FFFFFF1000
FFFFFF1000
000DFF1000
000DFF1000
000DFF1000
000DFF1000
000DFF1000
000DFF1000
000DFF1000
000DFF1000
000CFF1000
0009FF8021
0002FFFFF8
00004CFFD8
0000000000
0000000000
0009FFFFF4
0009FFFFF4
ENDCHAR
STARTCHAR uni1E3E
ENCODING 7742
SWIDTH 600 0
DWIDTH 12 0
BBX 10 18 1 0
BITMAP
000005B100
00009FF900
000BFFA100
0004C40000
0000000000
DFF6006FFD
DFFA00AFFD
DFFE00EFFD
DFDF33FDFD
DFAF77F9FD
DF7FBBE7FD
DF7BEEA8FD
DF86FF59FD
DF92FF1AFD
DF90760AFD
DF90000AFD
DF90000AFD
DF90000AFD
ENDCHAR
STARTCHAR uni1E3F
ENCODING 7743
SWIDTH 600 0
DWIDTH 12 0
BBX 12 16 0 0
BITMAP
000000087000
0000005FF700
000004FFE400
00000DFD3000
000004B10000
000000000000
4FF2CE73DE80
4FFDFFFDFFF3
4FFD3FFA6FF6
4FF81FF45FF7
4FF81FF45FF7
4FF81FF45FF7
4FF81FF45FF7
4FF81FF45FF7
4FF81FF45FF7
4FF81FF45FF7
ENDCHAR
STARTCHAR uni1E40
ENCODING 7744
SWIDTH 600 0
DWIDTH 12 0
BBX 10 17 1 0
BITMAP
0005EE5000
000BFFB000
0005EE5000
0000000000
DFF6006FFD
DFFA00AFFD
DFFE00EFFD
DFDF33FDFD
DFAF77F9FD
DF7FBBE7FD
DF7BEEA8FD
DF86FF59FD
DF92FF1AFD
DF90760AFD
DF90000AFD
DF90000AFD
DF90000AFD
ENDCHAR
STARTCHAR uni1E41
ENCODING 7745
SWIDTH 600 0
DWIDTH 12 0
BBX 12 15 0 0
BITMAP
00001BEA0000
00006FFF4000
00007FFF4000
00001BEA0000
000000000000
4FF2CE73DE80
4FFDFFFDFFF3
4FFD3FFA6FF6
4FF81FF45FF7
4FF81FF45FF7
4FF81FF45FF7
4FF81FF45FF7
4FF81FF45FF7
4FF81FF45FF7
4FF81FF45FF7
ENDCHAR
STARTCHAR uni1E42
ENCODING 7746
SWIDTH 600 0
DWIDTH 12 0
BBX 10 18 1 -5
BITMAP
DFF6006FFD
DFFA00AFFD
DFFE00EFFD
DFDF33FDFD
DFAF77F9FD
DF7FBBE7FD
DF7BEEA8FD
DF86FF59FD
DF92FF1AFD
DF90760AFD
DF90000AFD
DF90000AFD
DF90000AFD
0000000000
0004DD4000
000DFFD000
000DFFD000
0005EE5000
ENDCHAR
STARTCHAR uni1E43
ENCODING 7747
SWIDTH 600 0
DWIDTH 12 0
BBX 12 15 0 -5
BITMAP
4FF2CE73DE80
4FFDFFFDFFF3
4FFD3FFA6FF6
4FF81FF45FF7
4FF81FF45FF7
4FF81FF45FF7
4FF81FF45FF7
4FF81FF45FF7
4FF81FF45FF7
4FF81FF45FF7
000000000000
00004DE50000
0000CFFE0000
0000CFFE0000
00004DE50000
ENDCHAR
STARTCHAR uni1E44
ENCODING 7748
SWIDTH 600 0
DWIDTH 12 0
BBX 10 17 1 0
BITMAP
0003DE7000
0008FFE000
0003DE7000
0000000000
AFF8002FFA
AFFE102FFA
AFFF602FFA
AFEFC02FFA
AFCDF42FFA
AFE7FA1FFA
AFF2FF2FFA
AFF1AF7EFA
AFF24FDCFA
AFF20CFEFA
AFF206FFFA
AFF201EFFA
AFF2008FFA
ENDCHAR
STARTCHAR uni1E45
ENCODING 7749
SWIDTH 600 0
DWIDTH 12 0
BBX 10 15 1 0
BITMAP
0002CE8000
0008FFF200
0009FFF200
0002CE8000
0000000000
8FE07DFD60
8FFBFFFFF3
8FFF518FF9
8FF7003FFB
8FF6002FFC
8FF6002FFC
8FF6002FFC
8FF6002FFC
8FF6002FFC
8FF6002FFC
ENDCHAR
STARTCHAR uni1E46
ENCODING 7750
SWIDTH 600 0
DWIDTH 12 0
BBX 10 18 1 -5
BITMAP
AFF8002FFA
AFFE102FFA
AFFF602FFA
AFEFC02FFA
AFCDF42FFA
AFE7FA1FFA
AFF2FF2FFA
AFF1AF7EFA
AFF24FDCFA
AFF20CFEFA
AFF206FFFA
AFF201EFFA
AFF2008FFA
0000000000
0004DD4000
000DFFD000
000DFFD000
0005EE5000
ENDCHAR
STARTCHAR uni1E47
ENCODING 7751
SWIDTH 600 0
DWIDTH 12 0
BBX 10 15 1 -5
BITMAP
8FE07DFD60
8FFBFFFFF3
8FFF518FF9
8FF7003FFB
8FF6002FFC
8FF6002FFC
8FF6002FFC
8FF6002FFC
8FF6002FFC
8FF6002FFC
0000000000
0003DE6000
000BFFF000
000BFFF000
0003DE6000
ENDCHAR
STARTCHAR uni1E48
ENCODING 7752
SWIDTH 600 0
DWIDTH 12 0
BBX 10 17 1 -4
BITMAP
AFF8002FFA
AFFE102FFA
AFFF602FFA
AFEFC02FFA
AFCDF42FFA
AFE7FA1FFA
AFF2FF2FFA
AFF1AF7EFA
AFF24FDCFA
AFF20CFEFA
AFF206FFFA
AFF201EFFA
AFF2008FFA
0000000000
0000000000
00EFFFFE00
00EFFFFE00
ENDCHAR
STARTCHAR uni1E49
ENCODING 7753
SWIDTH 600 0
DWIDTH 12 0
BBX 10 14 1 -4
BITMAP
8FE07DFD60
8FFBFFFFF3
8FFF518FF9
8FF7003FFB
8FF6002FFC
8FF6002FFC
8FF6002FFC
8FF6002FFC
8FF6002FFC
8FF6002FFC
0000000000
0000000000
00CFFFFF10
00CFFFFF10
ENDCHAR
STARTCHAR uni1E52
ENCODING 7762
SWIDTH 600 0
DWIDTH 12 0
BBX 12 20 0 0
BITMAP
0000006C1000
00003CFE5000
00002C710000
000000000000
000FFFFFF000
000FFFFFF000
000000000000
0005CEEC5000
009FFFFFF900
05FFC22CFF50
0CFF3004FFC0
1FFE0000EFF1
3FFC0000CFF3
3FFC0000CFF3
3FFC0000CFF3
1FFE0000EFF1
0BFF4004FFB0
05FFC22CFF50
009FFFFFF900
0005CEEC5000
ENDCHAR
STARTCHAR uni1E53
ENCODING 7763
SWIDTH 600 0
DWIDTH 12 0
BBX 10 18 1 0
BITMAP
000007B000
0002CFD300
0002C70000
0000000000
00EFFFFE00
00EFFFFE00
0000000000
0000000000
005BEEB500
0AFFFFFFA0
6FFB22BFF6
DFF3003FFD
FFF0000FFF
FFF0000FFF
DFF3003FFD
6FFB22BFF6
0AFFFFFFA0
006CEEC600
ENDCHAR
STARTCHAR uni1E58
ENCODING 7768
SWIDTH 600 0
DWIDTH 12 0
BBX 11 17 1 0
BITMAP
0005EE500000
000BFFB00000
0005EE500000
000000000000
9FFFFEDA3000
9FFFFFFFF400
9FF5017FFC00
9FF5000EFF00
9FF5000EFF00
9FF5019FFB00
9FFFFFFFE300
9FFFFFFE2000
9FF50DFF4000
9FF506FFC000
9FF500DFF500
9FF5006FFD00
9FF5000DFF60
ENDCHAR
STARTCHAR uni1E59
ENCODING 7769
SWIDTH 600 0
DWIDTH 12 0
BBX 9 15 2 0
BITMAP
0005ED4000
000DFFD000
000DFFD000
0005EE5000
0000000000
AFC04BEFB0
AFD6FFFF90
AFFFB30110
AFFB000000
AFF4000000
AFF4000000
AFF4000000
AFF4000000
AFF4000000
AFF4000000
ENDCHAR
STARTCHAR uni1E5A
ENCODING 7770
SWIDTH 600 0
DWIDTH 12 0
BBX 11 18 1 -5
BITMAP
9FFFFEDA3000
9FFFFFFFF400
9FF5017FFC00
9FF5000EFF00
9FF5000EFF00
9FF5019FFB00
9FFFFFFFE300
9FFFFFFE2000
9FF50DFF4000
9FF506FFC000
9FF500DFF500
9FF5006FFD00
9FF5000DFF60
000000000000
0001BE900000
0007FFF40000
0007FFF40000
0001BEA00000
ENDCHAR
STARTCHAR uni1E5B
ENCODING 7771
SWIDTH 600 0
DWIDTH 12 0
BBX 9 15 2 -5
BITMAP
AFC04BEFB0
AFD6FFFF90
AFFFB30110
AFFB000000
AFF4000000
AFF4000000
AFF4000000
AFF4000000
AFF4000000
AFF4000000
0000000000
5ED4000000
EFFC000000
EFFC000000
6ED4000000
ENDCHAR
STARTCHAR uni1E5C
ENCODING 7772
SWIDTH 600 0
DWIDTH 12 0
BBX 11 21 1 -5
BITMAP
00FFFFFF0000
00FFFFFF0000
000000000000
9FFFFEDA3000
9FFFFFFFF400
9FF5017FFC00
9FF5000EFF00
9FF5000EFF00
9FF5019FFB00
9FFFFFFFE300
9FFFFFFE2000
9FF50DFF4000
9FF506FFC000
9FF500DFF500
9FF5006FFD00
9FF5000DFF60
000000000000
0001BE900000
0007FFF40000
0007FFF40000
0001BEA00000
ENDCHAR
STARTCHAR uni1E5D
ENCODING 7773
SWIDTH 600 0
DWIDTH 12 0
BBX 9 19 2 -5
BITMAP
00FFFFFE00
00FFFFFE00
0000000000
0000000000
AFC04BEFB0
AFD6FFFF90
AFFFB30110
AFFB000000
AFF4000000
AFF4000000
AFF4000000
AFF4000000
AFF4000000
AFF4000000
0000000000
5ED4000000
EFFC000000
EFFC000000
6ED4000000
ENDCHAR
STARTCHAR uni1E5E
ENCODING 7774
SWIDTH 600 0
DWIDTH 12 0
BBX 11 17 1 -4
BITMAP
9FFFFEDA3000
9FFFFFFFF400
9FF5017FFC00
9FF5000EFF00
9FF5000EFF00
9FF5019FFB00
9FFFFFFFE300
9FFFFFFE2000
9FF50DFF4000
9FF506FFC000
9FF500DFF500
9FF5006FFD00
9FF5000DFF60
000000000000
000000000000
008FFFFF5000
008FFFFF5000
ENDCHAR
STARTCHAR uni1E5F
ENCODING 7775
SWIDTH 600 0
DWIDTH 12 0
BBX 10 14 1 -4
BITMAP
0AFC04BEFB
0AFD6FFFF9
0AFFFB3011
0AFFB00000
0AFF400000
0AFF400000
0AFF400000
0AFF400000
0AFF400000
0AFF400000
0000000000
0000000000
FFFFFD0000
FFFFFD0000
ENDCHAR
STARTCHAR uni1E60
ENCODING 7776
SWIDTH 600 0
DWIDTH 12 0
BBX 10 17 1 0
BITMAP
0001CEA000
0006FFF200
0001CEA000
0000000000
004BEFDA40
08FFFFFFF5
3FFC203A90
7FF9000000
5FFF710000
1DFFFE9200
02CFFFFF90
0004AFFFF9
000002BFFE
0200001FFF
2ED5116FFA
AFFFFFFFD2
05ADFFD810
ENDCHAR
STARTCHAR uni1E61
ENCODING 7777
SWIDTH 600 0
DWIDTH 12 0
BBX 10 15 1 0
BITMAP
0002CE7000
0009FFF100
000AFFF200
0002CE8000
0000000000
016CEFDA40
0BFFFFFFF4
4FFB114980
3FFE740000
0AFFFFEA40
005BEFFFF5
0100039FFB
3E94105FFA
AFFFFFFFE3
04ADFFD920
ENDCHAR
STARTCHAR uni1E62
ENCODING 7778
SWIDTH 600 0
DWIDTH 12 0
BBX 10 18 1 -5
BITMAP
004BEFDA40
08FFFFFFF5
3FFC203A90
7FF9000000
5FFF710000
1DFFFE9200
02CFFFFF90
0004AFFFF9
000002BFFE
0200001FFF
2ED5116FFA
AFFFFFFFD2
05ADFFD810
0000000000
0004DE5000
000CFFE000
000CFFE000
0004DE6000
ENDCHAR
STARTCHAR uni1E63
ENCODING 7779
SWIDTH 600 0
DWIDTH 12 0
BBX 10 15 1 -5
BITMAP
016CEFDA40
0BFFFFFFF4
4FFB114980
3FFE740000
0AFFFFEA40
005BEFFFF5
0100039FFB
3E94105FFA
AFFFFFFFE3
04ADFFD920
0000000000
0003DE6000
000BFFF000
000BFFF000
0003DE6000
ENDCHAR
STARTCHAR uni1E6C
ENCODING 7788
SWIDTH 600 0
DWIDTH 12 0
BBX 12 18 0 -5
BITMAP
6FFFFFFFFFF6
6FFFFFFFFFF6
00007FF70000
00007FF70000
00007FF70000
00007FF70000
00007FF70000
00007FF70000
00007FF70000
00007FF70000
00007FF70000
00007FF70000
00007FF70000
000000000000
00004DD40000
0000DFFD0000
0000DFFD0000
00005EE50000
ENDCHAR
STARTCHAR uni1E6D
ENCODING 7789
SWIDTH 600 0
DWIDTH 12 0
BBX 10 18 1 -5
BITMAP
001FF60000
003FF60000
005FF60000
EEFFFFFFF9
FFFFFFFFF9
008FF60000
008FF60000
008FF60000
008FF60000
006FF80000
003FFD3022
000BFFFFFB
00018DFED9
0000000000
00001BE900
00007FFF30
00008FFF30
00001CE900
ENDCHAR
ENDFONT
